%TF.GenerationSoftware,KiCad,Pcbnew,9.0.3*%
%TF.CreationDate,2025-08-09T00:37:04-04:00*%
%TF.ProjectId,bottom,626f7474-6f6d-42e6-9b69-6361645f7063,rev?*%
%TF.SameCoordinates,Original*%
%TF.FileFunction,Copper,L2,Bot*%
%TF.FilePolarity,Positive*%
%FSLAX46Y46*%
G04 Gerber Fmt 4.6, Leading zero omitted, Abs format (unit mm)*
G04 Created by KiCad (PCBNEW 9.0.3) date 2025-08-09 00:37:04*
%MOMM*%
%LPD*%
G01*
G04 APERTURE LIST*
G04 APERTURE END LIST*
%TA.AperFunction,Conductor*%
%TO.N,gnd*%
G36*
X93836029Y-21980912D02*
G01*
X93918584Y-21992789D01*
X93945278Y-21999730D01*
X94023161Y-22029567D01*
X94047660Y-22042238D01*
X94117016Y-22088554D01*
X94138113Y-22106333D01*
X94195511Y-22166838D01*
X94212154Y-22188842D01*
X94254750Y-22260536D01*
X94266116Y-22285674D01*
X94293509Y-22370271D01*
X94297261Y-22384810D01*
X94743178Y-24678880D01*
X94743413Y-24680122D01*
X94761453Y-24778263D01*
X94761457Y-24778281D01*
X94827298Y-24976287D01*
X94827307Y-24976309D01*
X94919927Y-25163310D01*
X94919929Y-25163313D01*
X95037550Y-25335710D01*
X95037553Y-25335714D01*
X95177889Y-25490157D01*
X95177891Y-25490158D01*
X95177895Y-25490163D01*
X95338269Y-25623707D01*
X95515583Y-25733768D01*
X95515585Y-25733769D01*
X95515587Y-25733770D01*
X95515590Y-25733772D01*
X95616382Y-25778379D01*
X95706424Y-25818229D01*
X95907118Y-25875463D01*
X96113802Y-25904369D01*
X96218150Y-25904339D01*
X96284042Y-25904346D01*
X96284068Y-25904339D01*
X124213808Y-25904339D01*
X124273575Y-25904339D01*
X124285797Y-25904942D01*
X124365482Y-25912836D01*
X124389453Y-25917632D01*
X124420086Y-25926980D01*
X124460159Y-25939210D01*
X124482721Y-25948615D01*
X124547818Y-25983645D01*
X124568097Y-25997294D01*
X124630013Y-26048513D01*
X124638629Y-26056349D01*
X124638746Y-26056466D01*
X124680922Y-26099022D01*
X124681897Y-26099590D01*
X124686666Y-26104356D01*
X124688269Y-26105959D01*
X124688272Y-26105965D01*
X124688295Y-26105985D01*
X126699288Y-28116978D01*
X126699629Y-28117278D01*
X126716696Y-28134346D01*
X126872746Y-28254102D01*
X127043093Y-28352462D01*
X127043098Y-28352464D01*
X127043106Y-28352468D01*
X127133958Y-28390103D01*
X127224823Y-28427745D01*
X127414825Y-28478660D01*
X127609847Y-28504338D01*
X127632306Y-28504338D01*
X127632318Y-28504339D01*
X127642308Y-28504339D01*
X127708200Y-28504339D01*
X127774092Y-28504339D01*
X148513808Y-28504339D01*
X148573575Y-28504339D01*
X148585797Y-28504942D01*
X148665482Y-28512836D01*
X148689453Y-28517632D01*
X148720086Y-28526980D01*
X148760159Y-28539210D01*
X148782721Y-28548615D01*
X148847818Y-28583645D01*
X148868097Y-28597294D01*
X148930013Y-28648513D01*
X148938629Y-28656349D01*
X148938746Y-28656466D01*
X148980922Y-28699022D01*
X148981897Y-28699590D01*
X148986666Y-28704356D01*
X148988269Y-28705959D01*
X148988272Y-28705965D01*
X148988295Y-28705985D01*
X150942743Y-30660433D01*
X150951007Y-30669561D01*
X151002075Y-30731935D01*
X151015691Y-30752416D01*
X151050541Y-30818165D01*
X151059844Y-30840923D01*
X151073428Y-30886654D01*
X151081033Y-30912257D01*
X151085662Y-30936410D01*
X151092928Y-31016868D01*
X151093426Y-31029171D01*
X151092851Y-31091069D01*
X151093463Y-31101102D01*
X151093463Y-54854701D01*
X151093220Y-54855622D01*
X151093463Y-54920445D01*
X151093463Y-54990858D01*
X151093779Y-54995533D01*
X151093877Y-55018582D01*
X151119611Y-55211010D01*
X151119612Y-55211016D01*
X151169922Y-55398513D01*
X151169923Y-55398517D01*
X151169924Y-55398518D01*
X151243977Y-55577980D01*
X151340535Y-55746405D01*
X151457990Y-55900985D01*
X151525324Y-55969191D01*
X151594379Y-56039141D01*
X151594382Y-56039143D01*
X151619658Y-56058887D01*
X151620352Y-56059798D01*
X151671624Y-56099478D01*
X151722828Y-56139434D01*
X151722829Y-56139434D01*
X151727150Y-56142806D01*
X151730818Y-56145289D01*
X160147497Y-62659021D01*
X160147499Y-62659023D01*
X160194067Y-62695062D01*
X160194068Y-62695063D01*
X160204626Y-62704232D01*
X160270253Y-62768067D01*
X160287962Y-62789686D01*
X160333793Y-62860660D01*
X160346212Y-62885698D01*
X160374986Y-62965138D01*
X160381482Y-62992319D01*
X160392547Y-63082823D01*
X160393463Y-63097871D01*
X160393463Y-72515668D01*
X160393482Y-72515972D01*
X160393482Y-72551695D01*
X160425484Y-72769114D01*
X160425485Y-72769119D01*
X160425486Y-72769122D01*
X160488824Y-72979568D01*
X160562901Y-73137511D01*
X160582144Y-73178541D01*
X160582146Y-73178545D01*
X160703454Y-73361794D01*
X160703458Y-73361799D01*
X160850171Y-73525426D01*
X160987874Y-73639922D01*
X161019157Y-73665933D01*
X161206811Y-73780324D01*
X161206817Y-73780326D01*
X161206818Y-73780327D01*
X161239862Y-73794347D01*
X161239903Y-73794368D01*
X161247308Y-73797509D01*
X161247309Y-73797510D01*
X179307075Y-81459330D01*
X179309983Y-81460609D01*
X179322035Y-81466097D01*
X179329364Y-81469435D01*
X179335170Y-81472264D01*
X179347017Y-81478423D01*
X179366859Y-81491279D01*
X196469713Y-95052121D01*
X196968391Y-95447522D01*
X196968392Y-95447524D01*
X196999411Y-95472119D01*
X197011315Y-95482883D01*
X197084379Y-95558100D01*
X197103542Y-95583765D01*
X197150931Y-95668118D01*
X197162882Y-95697837D01*
X197187083Y-95791520D01*
X197191022Y-95823307D01*
X197190420Y-95920062D01*
X197186085Y-95951798D01*
X197160720Y-96045167D01*
X197148401Y-96074734D01*
X197096249Y-96164918D01*
X197086569Y-96179248D01*
X186496361Y-109715975D01*
X186496361Y-109715976D01*
X186472873Y-109745999D01*
X186472870Y-109746000D01*
X186463662Y-109756495D01*
X186399661Y-109821638D01*
X186378007Y-109839205D01*
X186307008Y-109884603D01*
X186281977Y-109896888D01*
X186202628Y-109925275D01*
X186175484Y-109931656D01*
X186091797Y-109941595D01*
X186063914Y-109941749D01*
X185980123Y-109932738D01*
X185952912Y-109926658D01*
X185911237Y-109912268D01*
X185873253Y-109899152D01*
X185848087Y-109887145D01*
X185770864Y-109838963D01*
X185759451Y-109830915D01*
X185707113Y-109789406D01*
X185706613Y-109789059D01*
X178584535Y-104142180D01*
X171208458Y-98293913D01*
X171159095Y-98254371D01*
X171155803Y-98252164D01*
X171155295Y-98251762D01*
X171155277Y-98251754D01*
X171154847Y-98251413D01*
X171151791Y-98249476D01*
X171053068Y-98183314D01*
X171053051Y-98183304D01*
X170952963Y-98127918D01*
X170952955Y-98127914D01*
X170944049Y-98122986D01*
X170943257Y-98122343D01*
X170877897Y-98093123D01*
X170877133Y-98092781D01*
X170877117Y-98092774D01*
X170815735Y-98065331D01*
X170815711Y-98065322D01*
X154129364Y-90605543D01*
X154129338Y-90605531D01*
X154069442Y-90578737D01*
X154069419Y-90578729D01*
X153923225Y-90530620D01*
X153772853Y-90497718D01*
X153772849Y-90497717D01*
X153699376Y-90489404D01*
X153699376Y-90489401D01*
X153699345Y-90489400D01*
X135105485Y-88380818D01*
X135105485Y-88380819D01*
X135105476Y-88380818D01*
X135105196Y-88380786D01*
X135049815Y-88374505D01*
X135036724Y-88372305D01*
X134951984Y-88353352D01*
X134926875Y-88344831D01*
X134854167Y-88311108D01*
X134831444Y-88297444D01*
X134767560Y-88249028D01*
X134748266Y-88230850D01*
X134696139Y-88169962D01*
X134681151Y-88148097D01*
X134664909Y-88117922D01*
X134640153Y-88071928D01*
X134634279Y-88059381D01*
X134578480Y-87920478D01*
X134203016Y-86985812D01*
X176609463Y-86985812D01*
X176609463Y-87229865D01*
X176643455Y-87444484D01*
X176647642Y-87470915D01*
X176722429Y-87701086D01*
X176723060Y-87703026D01*
X176833859Y-87920481D01*
X176977302Y-88117915D01*
X176977306Y-88117920D01*
X177149881Y-88290495D01*
X177149886Y-88290499D01*
X177276148Y-88382233D01*
X177347324Y-88433945D01*
X177564778Y-88544743D01*
X177796887Y-88620160D01*
X178037936Y-88658339D01*
X178037937Y-88658339D01*
X178281989Y-88658339D01*
X178281990Y-88658339D01*
X178523039Y-88620160D01*
X178755148Y-88544743D01*
X178972602Y-88433945D01*
X179170046Y-88290494D01*
X179342618Y-88117922D01*
X179486069Y-87920478D01*
X179596867Y-87703024D01*
X179672284Y-87470915D01*
X179710463Y-87229866D01*
X179710463Y-86985812D01*
X179672284Y-86744763D01*
X179596867Y-86512654D01*
X179486069Y-86295200D01*
X179467742Y-86269975D01*
X179342623Y-86097762D01*
X179342619Y-86097757D01*
X179170044Y-85925182D01*
X179170039Y-85925178D01*
X178972605Y-85781735D01*
X178972604Y-85781734D01*
X178972602Y-85781733D01*
X178755148Y-85670935D01*
X178523039Y-85595518D01*
X178523037Y-85595517D01*
X178523035Y-85595517D01*
X178354732Y-85568860D01*
X178281990Y-85557339D01*
X178037936Y-85557339D01*
X177982056Y-85566189D01*
X177796890Y-85595517D01*
X177564775Y-85670936D01*
X177347320Y-85781735D01*
X177149886Y-85925178D01*
X177149881Y-85925182D01*
X176977306Y-86097757D01*
X176977302Y-86097762D01*
X176833859Y-86295196D01*
X176723060Y-86512651D01*
X176647641Y-86744766D01*
X176609463Y-86985812D01*
X134203016Y-86985812D01*
X130427751Y-77587812D01*
X156543463Y-77587812D01*
X156543463Y-77638115D01*
X156543463Y-77831866D01*
X156581642Y-78072915D01*
X156657059Y-78305024D01*
X156748005Y-78483517D01*
X156767859Y-78522481D01*
X156911302Y-78719915D01*
X156911306Y-78719920D01*
X157083881Y-78892495D01*
X157083886Y-78892499D01*
X157212246Y-78985757D01*
X157281324Y-79035945D01*
X157498778Y-79146743D01*
X157730887Y-79222160D01*
X157971936Y-79260339D01*
X157971937Y-79260339D01*
X158215989Y-79260339D01*
X158215990Y-79260339D01*
X158457039Y-79222160D01*
X158689148Y-79146743D01*
X158906602Y-79035945D01*
X159104046Y-78892494D01*
X159276618Y-78719922D01*
X159420069Y-78522478D01*
X159530867Y-78305024D01*
X159606284Y-78072915D01*
X159644463Y-77831866D01*
X159644463Y-77587812D01*
X159606284Y-77346763D01*
X159530867Y-77114654D01*
X159420069Y-76897200D01*
X159401742Y-76871975D01*
X159276623Y-76699762D01*
X159276619Y-76699757D01*
X159104044Y-76527182D01*
X159104039Y-76527178D01*
X158906605Y-76383735D01*
X158906604Y-76383734D01*
X158906602Y-76383733D01*
X158689148Y-76272935D01*
X158457039Y-76197518D01*
X158457037Y-76197517D01*
X158457035Y-76197517D01*
X158288732Y-76170860D01*
X158215990Y-76159339D01*
X157971936Y-76159339D01*
X157916056Y-76168189D01*
X157730890Y-76197517D01*
X157498775Y-76272936D01*
X157281320Y-76383735D01*
X157083886Y-76527178D01*
X157083881Y-76527182D01*
X156911306Y-76699757D01*
X156911302Y-76699762D01*
X156767859Y-76897196D01*
X156657060Y-77114651D01*
X156581641Y-77346766D01*
X156577118Y-77375325D01*
X156543463Y-77587812D01*
X130427751Y-77587812D01*
X129417134Y-75072020D01*
X129416832Y-75071261D01*
X129373057Y-74960068D01*
X129373056Y-74960065D01*
X129260543Y-74765627D01*
X129260536Y-74765617D01*
X129120340Y-74590108D01*
X129120336Y-74590104D01*
X129120333Y-74590100D01*
X128955556Y-74437404D01*
X128769881Y-74310942D01*
X128769882Y-74310942D01*
X128769880Y-74310941D01*
X128567454Y-74213533D01*
X128567451Y-74213532D01*
X128567449Y-74213531D01*
X128352771Y-74147342D01*
X128352765Y-74147341D01*
X128130635Y-74113852D01*
X128130639Y-74113852D01*
X128023377Y-74113839D01*
X128023369Y-74113839D01*
X127964978Y-74113827D01*
X127952414Y-74113825D01*
X127952413Y-74113825D01*
X77185149Y-74103464D01*
X77175010Y-74102845D01*
X77109697Y-74103441D01*
X77109698Y-74103442D01*
X77109045Y-74103447D01*
X77045641Y-74103436D01*
X77043345Y-74104050D01*
X77034149Y-74104134D01*
X77033244Y-74104142D01*
X77033241Y-74104141D01*
X77033225Y-74104143D01*
X76999778Y-74104444D01*
X76999774Y-74104444D01*
X76788128Y-74136782D01*
X76788111Y-74136786D01*
X76753253Y-74147343D01*
X76583182Y-74198850D01*
X76583180Y-74198850D01*
X76583176Y-74198852D01*
X76389138Y-74289378D01*
X76209908Y-74406542D01*
X76049133Y-74547958D01*
X75910055Y-74710778D01*
X75855708Y-74796640D01*
X75855705Y-74796645D01*
X75852796Y-74801241D01*
X75817546Y-74856912D01*
X75817536Y-74856938D01*
X75813665Y-74863055D01*
X68331702Y-86682386D01*
X68325875Y-86690801D01*
X68285462Y-86744303D01*
X68271828Y-86759553D01*
X68226893Y-86802152D01*
X68210938Y-86814953D01*
X68160069Y-86849276D01*
X68147039Y-86856955D01*
X52201133Y-94987391D01*
X52201129Y-94987393D01*
X52187142Y-94994524D01*
X52174326Y-95000170D01*
X52088558Y-95032305D01*
X52061421Y-95039103D01*
X51977622Y-95050263D01*
X51949654Y-95050804D01*
X51858193Y-95042211D01*
X51844342Y-95040115D01*
X51780733Y-95026776D01*
X51780689Y-95026769D01*
X51642090Y-94997708D01*
X46539386Y-93927786D01*
X46539386Y-93927785D01*
X46481545Y-93915658D01*
X46468450Y-93912155D01*
X46384203Y-93884605D01*
X46359550Y-93873436D01*
X46333925Y-93858258D01*
X46289168Y-93831746D01*
X46267527Y-93815495D01*
X46207868Y-93759528D01*
X46190266Y-93738965D01*
X46141010Y-93666751D01*
X46133028Y-93653298D01*
X41522337Y-84629374D01*
X41522297Y-84629295D01*
X41480581Y-84547506D01*
X41358013Y-84373568D01*
X41358006Y-84373559D01*
X41212134Y-84218671D01*
X41212128Y-84218666D01*
X41212124Y-84218661D01*
X41212119Y-84218657D01*
X41212117Y-84218655D01*
X41045841Y-84085895D01*
X41045833Y-84085890D01*
X40862478Y-83977917D01*
X40862476Y-83977916D01*
X40665715Y-83896894D01*
X40665706Y-83896891D01*
X40665704Y-83896891D01*
X40574262Y-83873636D01*
X40459489Y-83844449D01*
X40303024Y-83827572D01*
X40247928Y-83821629D01*
X40247927Y-83821629D01*
X40239357Y-83821926D01*
X40142145Y-83825304D01*
X40142082Y-83825306D01*
X40142070Y-83825307D01*
X40116403Y-83826183D01*
X40097892Y-83826815D01*
X40078424Y-83827480D01*
X40075742Y-83827572D01*
X40075740Y-83827572D01*
X39644270Y-83842305D01*
X32595355Y-84083008D01*
X32581749Y-84082725D01*
X32493015Y-84075998D01*
X32466306Y-84070987D01*
X32387722Y-84047085D01*
X32362745Y-84036375D01*
X32291258Y-83995930D01*
X32269215Y-83980038D01*
X32208254Y-83924991D01*
X32190201Y-83904677D01*
X32184682Y-83896893D01*
X32138727Y-83832075D01*
X32131480Y-83820561D01*
X32098607Y-83761365D01*
X32098598Y-83761351D01*
X30833256Y-81482826D01*
X29939716Y-79873812D01*
X39957463Y-79873812D01*
X39957463Y-79924115D01*
X39957463Y-80117866D01*
X39995642Y-80358915D01*
X40062340Y-80564191D01*
X40071060Y-80591026D01*
X40181859Y-80808481D01*
X40325302Y-81005915D01*
X40325306Y-81005920D01*
X40497881Y-81178495D01*
X40497886Y-81178499D01*
X40670099Y-81303618D01*
X40695324Y-81321945D01*
X40912778Y-81432743D01*
X41144887Y-81508160D01*
X41385936Y-81546339D01*
X41385937Y-81546339D01*
X41629989Y-81546339D01*
X41629990Y-81546339D01*
X41871039Y-81508160D01*
X42103148Y-81432743D01*
X42320602Y-81321945D01*
X42518046Y-81178494D01*
X42690618Y-81005922D01*
X42834069Y-80808478D01*
X42944867Y-80591024D01*
X43020284Y-80358915D01*
X43058463Y-80117866D01*
X43058463Y-79873812D01*
X43020284Y-79632763D01*
X42944867Y-79400654D01*
X42834069Y-79183200D01*
X42807580Y-79146741D01*
X42690623Y-78985762D01*
X42690619Y-78985757D01*
X42518044Y-78813182D01*
X42518039Y-78813178D01*
X42320605Y-78669735D01*
X42320604Y-78669734D01*
X42320602Y-78669733D01*
X42103148Y-78558935D01*
X41871039Y-78483518D01*
X41871037Y-78483517D01*
X41871035Y-78483517D01*
X41702732Y-78456860D01*
X41629990Y-78445339D01*
X41385936Y-78445339D01*
X41330056Y-78454189D01*
X41144890Y-78483517D01*
X40912775Y-78558936D01*
X40695320Y-78669735D01*
X40497886Y-78813178D01*
X40497881Y-78813182D01*
X40325306Y-78985757D01*
X40325302Y-78985762D01*
X40181859Y-79183196D01*
X40071060Y-79400651D01*
X39995641Y-79632766D01*
X39991118Y-79661325D01*
X39957463Y-79873812D01*
X29939716Y-79873812D01*
X25849129Y-72507812D01*
X132159463Y-72507812D01*
X132159463Y-72558115D01*
X132159463Y-72751866D01*
X132197642Y-72992915D01*
X132244624Y-73137511D01*
X132273060Y-73225026D01*
X132383859Y-73442481D01*
X132527302Y-73639915D01*
X132527306Y-73639920D01*
X132699881Y-73812495D01*
X132699886Y-73812499D01*
X132872099Y-73937618D01*
X132897324Y-73955945D01*
X133114778Y-74066743D01*
X133346887Y-74142160D01*
X133587936Y-74180339D01*
X133587937Y-74180339D01*
X133831989Y-74180339D01*
X133831990Y-74180339D01*
X134073039Y-74142160D01*
X134305148Y-74066743D01*
X134522602Y-73955945D01*
X134720046Y-73812494D01*
X134892618Y-73639922D01*
X135036069Y-73442478D01*
X135146867Y-73225024D01*
X135222284Y-72992915D01*
X135260463Y-72751866D01*
X135260463Y-72507812D01*
X135222284Y-72266763D01*
X135146867Y-72034654D01*
X135036069Y-71817200D01*
X135017742Y-71791975D01*
X134892623Y-71619762D01*
X134892619Y-71619757D01*
X134720044Y-71447182D01*
X134720039Y-71447178D01*
X134522605Y-71303735D01*
X134522604Y-71303734D01*
X134522602Y-71303733D01*
X134305148Y-71192935D01*
X134073039Y-71117518D01*
X134073037Y-71117517D01*
X134073035Y-71117517D01*
X133904732Y-71090860D01*
X133831990Y-71079339D01*
X133587936Y-71079339D01*
X133532056Y-71088189D01*
X133346890Y-71117517D01*
X133114775Y-71192936D01*
X132897320Y-71303735D01*
X132699886Y-71447178D01*
X132699881Y-71447182D01*
X132527306Y-71619757D01*
X132527302Y-71619762D01*
X132383859Y-71817196D01*
X132273060Y-72034651D01*
X132197641Y-72266766D01*
X132193118Y-72295325D01*
X132159463Y-72507812D01*
X25849129Y-72507812D01*
X23120550Y-67594407D01*
X23114495Y-67581898D01*
X23079539Y-67497992D01*
X23071798Y-67471329D01*
X23057574Y-67388651D01*
X23055960Y-67360936D01*
X23058046Y-67322339D01*
X23060487Y-67277166D01*
X23065079Y-67249792D01*
X23088132Y-67169129D01*
X23098697Y-67143463D01*
X23139122Y-67069944D01*
X23155132Y-67047275D01*
X23210903Y-66984591D01*
X23231555Y-66966052D01*
X23305373Y-66913427D01*
X23317455Y-66905824D01*
X25595021Y-65649812D01*
X54943463Y-65649812D01*
X54943463Y-65893865D01*
X54973949Y-66086348D01*
X54981642Y-66134915D01*
X55057059Y-66367024D01*
X55146105Y-66541788D01*
X55167859Y-66584481D01*
X55311302Y-66781915D01*
X55311306Y-66781920D01*
X55483881Y-66954495D01*
X55483886Y-66954499D01*
X55625941Y-67057707D01*
X55681324Y-67097945D01*
X55898778Y-67208743D01*
X56130887Y-67284160D01*
X56371936Y-67322339D01*
X56371937Y-67322339D01*
X56615989Y-67322339D01*
X56615990Y-67322339D01*
X56857039Y-67284160D01*
X57089148Y-67208743D01*
X57306602Y-67097945D01*
X57504046Y-66954494D01*
X57676618Y-66781922D01*
X57820069Y-66584478D01*
X57930867Y-66367024D01*
X57998844Y-66157812D01*
X153495463Y-66157812D01*
X153495463Y-66208115D01*
X153495463Y-66401866D01*
X153533642Y-66642915D01*
X153609059Y-66875024D01*
X153702140Y-67057707D01*
X153719859Y-67092481D01*
X153863302Y-67289915D01*
X153863306Y-67289920D01*
X154035881Y-67462495D01*
X154035886Y-67462499D01*
X154184685Y-67570607D01*
X154233324Y-67605945D01*
X154450778Y-67716743D01*
X154682887Y-67792160D01*
X154923936Y-67830339D01*
X154923937Y-67830339D01*
X155167989Y-67830339D01*
X155167990Y-67830339D01*
X155409039Y-67792160D01*
X155641148Y-67716743D01*
X155858602Y-67605945D01*
X156056046Y-67462494D01*
X156228618Y-67289922D01*
X156372069Y-67092478D01*
X156482867Y-66875024D01*
X156558284Y-66642915D01*
X156596463Y-66401866D01*
X156596463Y-66157812D01*
X156558284Y-65916763D01*
X156482867Y-65684654D01*
X156372069Y-65467200D01*
X156276668Y-65335891D01*
X156228623Y-65269762D01*
X156228619Y-65269757D01*
X156056044Y-65097182D01*
X156056039Y-65097178D01*
X155858605Y-64953735D01*
X155858604Y-64953734D01*
X155858602Y-64953733D01*
X155641148Y-64842935D01*
X155409039Y-64767518D01*
X155409037Y-64767517D01*
X155409035Y-64767517D01*
X155240732Y-64740860D01*
X155167990Y-64729339D01*
X154923936Y-64729339D01*
X154868056Y-64738189D01*
X154682890Y-64767517D01*
X154450775Y-64842936D01*
X154233320Y-64953735D01*
X154035886Y-65097178D01*
X154035881Y-65097182D01*
X153863306Y-65269757D01*
X153863302Y-65269762D01*
X153719859Y-65467196D01*
X153609060Y-65684651D01*
X153533641Y-65916766D01*
X153499090Y-66134911D01*
X153495463Y-66157812D01*
X57998844Y-66157812D01*
X58006284Y-66134915D01*
X58013977Y-66086348D01*
X58044463Y-65893865D01*
X58044463Y-65649812D01*
X58026493Y-65536357D01*
X58006284Y-65408763D01*
X57930867Y-65176654D01*
X57820069Y-64959200D01*
X57735598Y-64842935D01*
X57676623Y-64761762D01*
X57676619Y-64761757D01*
X57504044Y-64589182D01*
X57504039Y-64589178D01*
X57306605Y-64445735D01*
X57306604Y-64445734D01*
X57306602Y-64445733D01*
X57089148Y-64334935D01*
X56857039Y-64259518D01*
X56857037Y-64259517D01*
X56857035Y-64259517D01*
X56688732Y-64232860D01*
X56615990Y-64221339D01*
X56371936Y-64221339D01*
X56316056Y-64230189D01*
X56130890Y-64259517D01*
X55898775Y-64334936D01*
X55681320Y-64445735D01*
X55483886Y-64589178D01*
X55483881Y-64589182D01*
X55311306Y-64761757D01*
X55311302Y-64761762D01*
X55167859Y-64959196D01*
X55057060Y-65176651D01*
X54981641Y-65408766D01*
X54943463Y-65649812D01*
X25595021Y-65649812D01*
X36188505Y-59807812D01*
X79073463Y-59807812D01*
X79073463Y-59858115D01*
X79073463Y-60051866D01*
X79111642Y-60292915D01*
X79158624Y-60437511D01*
X79187060Y-60525026D01*
X79297859Y-60742481D01*
X79441302Y-60939915D01*
X79441306Y-60939920D01*
X79613881Y-61112495D01*
X79613886Y-61112499D01*
X79786099Y-61237618D01*
X79811324Y-61255945D01*
X80028778Y-61366743D01*
X80260887Y-61442160D01*
X80501936Y-61480339D01*
X80501937Y-61480339D01*
X80745989Y-61480339D01*
X80745990Y-61480339D01*
X80987039Y-61442160D01*
X81219148Y-61366743D01*
X81436602Y-61255945D01*
X81634046Y-61112494D01*
X81806618Y-60939922D01*
X81950069Y-60742478D01*
X82060867Y-60525024D01*
X82136284Y-60292915D01*
X82174463Y-60051866D01*
X82174463Y-59807812D01*
X101933463Y-59807812D01*
X101933463Y-59858115D01*
X101933463Y-60051866D01*
X101971642Y-60292915D01*
X102018624Y-60437511D01*
X102047060Y-60525026D01*
X102157859Y-60742481D01*
X102301302Y-60939915D01*
X102301306Y-60939920D01*
X102473881Y-61112495D01*
X102473886Y-61112499D01*
X102646099Y-61237618D01*
X102671324Y-61255945D01*
X102888778Y-61366743D01*
X103120887Y-61442160D01*
X103361936Y-61480339D01*
X103361937Y-61480339D01*
X103605989Y-61480339D01*
X103605990Y-61480339D01*
X103847039Y-61442160D01*
X104079148Y-61366743D01*
X104296602Y-61255945D01*
X104494046Y-61112494D01*
X104666618Y-60939922D01*
X104810069Y-60742478D01*
X104920867Y-60525024D01*
X104996284Y-60292915D01*
X105034463Y-60051866D01*
X105034463Y-59807812D01*
X104996284Y-59566763D01*
X104920867Y-59334654D01*
X104810069Y-59117200D01*
X104783580Y-59080741D01*
X104666623Y-58919762D01*
X104666619Y-58919757D01*
X104494044Y-58747182D01*
X104494039Y-58747178D01*
X104296605Y-58603735D01*
X104296604Y-58603734D01*
X104296602Y-58603733D01*
X104079148Y-58492935D01*
X103847039Y-58417518D01*
X103847037Y-58417517D01*
X103847035Y-58417517D01*
X103678732Y-58390860D01*
X103605990Y-58379339D01*
X103361936Y-58379339D01*
X103306056Y-58388189D01*
X103120890Y-58417517D01*
X102888775Y-58492936D01*
X102671320Y-58603735D01*
X102473886Y-58747178D01*
X102473881Y-58747182D01*
X102301306Y-58919757D01*
X102301302Y-58919762D01*
X102157859Y-59117196D01*
X102047060Y-59334651D01*
X101971641Y-59566766D01*
X101967118Y-59595325D01*
X101933463Y-59807812D01*
X82174463Y-59807812D01*
X82136284Y-59566763D01*
X82060867Y-59334654D01*
X81950069Y-59117200D01*
X81923580Y-59080741D01*
X81806623Y-58919762D01*
X81806619Y-58919757D01*
X81634044Y-58747182D01*
X81634039Y-58747178D01*
X81436605Y-58603735D01*
X81436604Y-58603734D01*
X81436602Y-58603733D01*
X81219148Y-58492935D01*
X80987039Y-58417518D01*
X80987037Y-58417517D01*
X80987035Y-58417517D01*
X80818732Y-58390860D01*
X80745990Y-58379339D01*
X80501936Y-58379339D01*
X80446056Y-58388189D01*
X80260890Y-58417517D01*
X80028775Y-58492936D01*
X79811320Y-58603735D01*
X79613886Y-58747178D01*
X79613881Y-58747182D01*
X79441306Y-58919757D01*
X79441302Y-58919762D01*
X79297859Y-59117196D01*
X79187060Y-59334651D01*
X79111641Y-59566766D01*
X79107118Y-59595325D01*
X79073463Y-59807812D01*
X36188505Y-59807812D01*
X40333782Y-57521812D01*
X47831463Y-57521812D01*
X47831463Y-57572115D01*
X47831463Y-57765866D01*
X47869642Y-58006915D01*
X47945059Y-58239024D01*
X48036005Y-58417517D01*
X48055859Y-58456481D01*
X48199302Y-58653915D01*
X48199306Y-58653920D01*
X48371881Y-58826495D01*
X48371886Y-58826499D01*
X48500246Y-58919757D01*
X48569324Y-58969945D01*
X48786778Y-59080743D01*
X49018887Y-59156160D01*
X49259936Y-59194339D01*
X49259937Y-59194339D01*
X49503989Y-59194339D01*
X49503990Y-59194339D01*
X49745039Y-59156160D01*
X49977148Y-59080743D01*
X50194602Y-58969945D01*
X50392046Y-58826494D01*
X50564618Y-58653922D01*
X50708069Y-58456478D01*
X50818867Y-58239024D01*
X50894284Y-58006915D01*
X50932463Y-57765866D01*
X50932463Y-57521812D01*
X50894284Y-57280763D01*
X50818867Y-57048654D01*
X50708069Y-56831200D01*
X50689742Y-56805975D01*
X50564623Y-56633762D01*
X50564619Y-56633757D01*
X50392044Y-56461182D01*
X50392039Y-56461178D01*
X50194605Y-56317735D01*
X50194604Y-56317734D01*
X50194602Y-56317733D01*
X49977148Y-56206935D01*
X49745039Y-56131518D01*
X49745037Y-56131517D01*
X49745035Y-56131517D01*
X49543229Y-56099554D01*
X49503990Y-56093339D01*
X49259936Y-56093339D01*
X49220697Y-56099554D01*
X49018890Y-56131517D01*
X48786775Y-56206936D01*
X48569320Y-56317735D01*
X48371886Y-56461178D01*
X48371881Y-56461182D01*
X48199306Y-56633757D01*
X48199302Y-56633762D01*
X48055859Y-56831196D01*
X47945060Y-57048651D01*
X47869641Y-57280766D01*
X47865118Y-57309325D01*
X47831463Y-57521812D01*
X40333782Y-57521812D01*
X48703576Y-52906113D01*
X48703739Y-52906024D01*
X48711990Y-52901525D01*
X48711991Y-52901527D01*
X48800376Y-52853344D01*
X48962707Y-52734254D01*
X49107676Y-52594546D01*
X49232683Y-52436726D01*
X49335488Y-52263622D01*
X49414249Y-52078337D01*
X49467554Y-51884191D01*
X49494448Y-51684665D01*
X49494451Y-51658359D01*
X49494463Y-51658205D01*
X49494463Y-51518107D01*
X49494464Y-37640110D01*
X49495373Y-37625141D01*
X49507260Y-37527612D01*
X49514464Y-37498497D01*
X49546725Y-37413778D01*
X49560709Y-37387249D01*
X49612380Y-37312749D01*
X49632329Y-37290355D01*
X49700372Y-37230456D01*
X49725122Y-37213503D01*
X49812761Y-37167959D01*
X49826475Y-37161856D01*
X49880658Y-37141587D01*
X49880677Y-37141573D01*
X58543371Y-33899812D01*
X71707463Y-33899812D01*
X71707463Y-33950115D01*
X71707463Y-34143866D01*
X71745642Y-34384915D01*
X71792624Y-34529511D01*
X71821060Y-34617026D01*
X71931859Y-34834481D01*
X72075302Y-35031915D01*
X72075306Y-35031920D01*
X72247881Y-35204495D01*
X72247886Y-35204499D01*
X72420099Y-35329618D01*
X72445324Y-35347945D01*
X72662778Y-35458743D01*
X72894887Y-35534160D01*
X73135936Y-35572339D01*
X73135937Y-35572339D01*
X73379989Y-35572339D01*
X73379990Y-35572339D01*
X73621039Y-35534160D01*
X73853148Y-35458743D01*
X74070602Y-35347945D01*
X74268046Y-35204494D01*
X74440618Y-35031922D01*
X74584069Y-34834478D01*
X74694867Y-34617024D01*
X74770284Y-34384915D01*
X74808463Y-34143866D01*
X74808463Y-33899812D01*
X74770284Y-33658763D01*
X74694867Y-33426654D01*
X74584069Y-33209200D01*
X74565742Y-33183975D01*
X74440623Y-33011762D01*
X74440619Y-33011757D01*
X74268044Y-32839182D01*
X74268039Y-32839178D01*
X74070605Y-32695735D01*
X74070604Y-32695734D01*
X74070602Y-32695733D01*
X73853148Y-32584935D01*
X73621039Y-32509518D01*
X73621037Y-32509517D01*
X73621035Y-32509517D01*
X73452732Y-32482860D01*
X73379990Y-32471339D01*
X73135936Y-32471339D01*
X73080056Y-32480189D01*
X72894890Y-32509517D01*
X72662775Y-32584936D01*
X72445320Y-32695735D01*
X72247886Y-32839178D01*
X72247881Y-32839182D01*
X72075306Y-33011757D01*
X72075302Y-33011762D01*
X71931859Y-33209196D01*
X71821060Y-33426651D01*
X71745641Y-33658766D01*
X71741118Y-33687325D01*
X71707463Y-33899812D01*
X58543371Y-33899812D01*
X65330806Y-31359812D01*
X129111463Y-31359812D01*
X129111463Y-31410115D01*
X129111463Y-31603866D01*
X129149642Y-31844915D01*
X129196624Y-31989511D01*
X129225060Y-32077026D01*
X129335859Y-32294481D01*
X129479302Y-32491915D01*
X129479306Y-32491920D01*
X129651881Y-32664495D01*
X129651886Y-32664499D01*
X129824099Y-32789618D01*
X129849324Y-32807945D01*
X130066778Y-32918743D01*
X130298887Y-32994160D01*
X130539936Y-33032339D01*
X130539937Y-33032339D01*
X130783989Y-33032339D01*
X130783990Y-33032339D01*
X131025039Y-32994160D01*
X131257148Y-32918743D01*
X131474602Y-32807945D01*
X131672046Y-32664494D01*
X131844618Y-32491922D01*
X131988069Y-32294478D01*
X132098867Y-32077024D01*
X132174284Y-31844915D01*
X132212463Y-31603866D01*
X132212463Y-31359812D01*
X132174284Y-31118763D01*
X132098867Y-30886654D01*
X131988069Y-30669200D01*
X131877113Y-30516481D01*
X131844623Y-30471762D01*
X131844619Y-30471757D01*
X131672044Y-30299182D01*
X131672039Y-30299178D01*
X131474605Y-30155735D01*
X131474604Y-30155734D01*
X131474602Y-30155733D01*
X131257148Y-30044935D01*
X131025039Y-29969518D01*
X131025037Y-29969517D01*
X131025035Y-29969517D01*
X130856732Y-29942860D01*
X130783990Y-29931339D01*
X130539936Y-29931339D01*
X130484056Y-29940189D01*
X130298890Y-29969517D01*
X130066775Y-30044936D01*
X129849320Y-30155735D01*
X129651886Y-30299178D01*
X129651881Y-30299182D01*
X129479306Y-30471757D01*
X129479302Y-30471762D01*
X129335859Y-30669196D01*
X129225060Y-30886651D01*
X129149641Y-31118766D01*
X129125442Y-31271554D01*
X129111463Y-31359812D01*
X65330806Y-31359812D01*
X70082011Y-29581812D01*
X99139463Y-29581812D01*
X99139463Y-29825865D01*
X99174160Y-30044936D01*
X99177642Y-30066915D01*
X99224624Y-30211511D01*
X99253060Y-30299026D01*
X99253141Y-30299184D01*
X99341073Y-30471762D01*
X99363859Y-30516481D01*
X99507302Y-30713915D01*
X99507306Y-30713920D01*
X99679881Y-30886495D01*
X99679886Y-30886499D01*
X99800552Y-30974167D01*
X99877324Y-31029945D01*
X100094778Y-31140743D01*
X100326887Y-31216160D01*
X100567936Y-31254339D01*
X100567937Y-31254339D01*
X100811989Y-31254339D01*
X100811990Y-31254339D01*
X101053039Y-31216160D01*
X101285148Y-31140743D01*
X101502602Y-31029945D01*
X101700046Y-30886494D01*
X101872618Y-30713922D01*
X102016069Y-30516478D01*
X102126867Y-30299024D01*
X102202284Y-30066915D01*
X102240463Y-29825866D01*
X102240463Y-29581812D01*
X102202284Y-29340763D01*
X102126867Y-29108654D01*
X102016069Y-28891200D01*
X101881503Y-28705985D01*
X101872623Y-28693762D01*
X101872619Y-28693757D01*
X101700044Y-28521182D01*
X101700039Y-28521178D01*
X101502605Y-28377735D01*
X101502604Y-28377734D01*
X101502602Y-28377733D01*
X101285148Y-28266935D01*
X101053039Y-28191518D01*
X101053037Y-28191517D01*
X101053035Y-28191517D01*
X100884732Y-28164860D01*
X100811990Y-28153339D01*
X100567936Y-28153339D01*
X100512056Y-28162189D01*
X100326890Y-28191517D01*
X100094775Y-28266936D01*
X99877320Y-28377735D01*
X99679886Y-28521178D01*
X99679881Y-28521182D01*
X99507306Y-28693757D01*
X99507302Y-28693762D01*
X99363859Y-28891196D01*
X99253060Y-29108651D01*
X99177641Y-29340766D01*
X99139463Y-29581812D01*
X70082011Y-29581812D01*
X75264033Y-27642591D01*
X75265197Y-27642163D01*
X75362245Y-27607092D01*
X75550073Y-27507160D01*
X75721926Y-27381731D01*
X75874366Y-27233314D01*
X76004345Y-27064877D01*
X76109264Y-26879789D01*
X76187023Y-26681751D01*
X76236068Y-26474724D01*
X76255419Y-26262848D01*
X76254983Y-26254224D01*
X76244687Y-26050364D01*
X76238028Y-26016224D01*
X76224322Y-25945951D01*
X76223708Y-25942795D01*
X76218120Y-25914047D01*
X76217885Y-25912836D01*
X76214756Y-25896739D01*
X76212872Y-25882960D01*
X76207698Y-25818229D01*
X76205626Y-25792306D01*
X76206527Y-25764555D01*
X76218635Y-25681485D01*
X76225689Y-25654639D01*
X76255983Y-25576351D01*
X76268835Y-25551751D01*
X76315802Y-25482160D01*
X76333807Y-25461040D01*
X76395075Y-25403661D01*
X76417342Y-25387068D01*
X76489840Y-25344770D01*
X76515244Y-25333550D01*
X76602714Y-25306140D01*
X76616166Y-25302740D01*
X76673345Y-25291659D01*
X76673366Y-25291648D01*
X76681665Y-25290039D01*
X76681667Y-25290038D01*
X93704713Y-21989139D01*
X93718388Y-21987272D01*
X93808467Y-21980046D01*
X93836029Y-21980912D01*
G37*
%TD.AperFunction*%
%TD*%
M02*
