%TF.GenerationSoftware,KiCad,Pcbnew,9.0.3*%
%TF.CreationDate,2025-08-09T09:42:03-04:00*%
%TF.ProjectId,top,746f702e-6b69-4636-9164-5f7063625858,rev?*%
%TF.SameCoordinates,Original*%
%TF.FileFunction,Copper,L2,Bot*%
%TF.FilePolarity,Positive*%
%FSLAX46Y46*%
G04 Gerber Fmt 4.6, Leading zero omitted, Abs format (unit mm)*
G04 Created by KiCad (PCBNEW 9.0.3) date 2025-08-09 09:42:03*
%MOMM*%
%LPD*%
G01*
G04 APERTURE LIST*
G04 APERTURE END LIST*
%TA.AperFunction,Conductor*%
%TO.N,gnd*%
G36*
X91340806Y-21423145D02*
G01*
X91423806Y-21435263D01*
X91450641Y-21442320D01*
X91528875Y-21472603D01*
X91553471Y-21485455D01*
X91579021Y-21502698D01*
X91622997Y-21532378D01*
X91644124Y-21550385D01*
X91701466Y-21611595D01*
X91718057Y-21633850D01*
X91760347Y-21706285D01*
X91771572Y-21731675D01*
X91798917Y-21818807D01*
X91802328Y-21832273D01*
X91813488Y-21889704D01*
X91813493Y-21889716D01*
X91814919Y-21897049D01*
X92263460Y-24204619D01*
X92263597Y-24205140D01*
X92271399Y-24245302D01*
X92349321Y-24462057D01*
X92459402Y-24664369D01*
X92459413Y-24664385D01*
X92599071Y-24847515D01*
X92599079Y-24847523D01*
X92765061Y-25007206D01*
X92765070Y-25007214D01*
X92883402Y-25090419D01*
X92953479Y-25139695D01*
X93159903Y-25241874D01*
X93379504Y-25311353D01*
X93607135Y-25346504D01*
X93722300Y-25346502D01*
X93788192Y-25346502D01*
X121717832Y-25346502D01*
X121717858Y-25346509D01*
X121777740Y-25346502D01*
X121789744Y-25347086D01*
X121868326Y-25354747D01*
X121891949Y-25359399D01*
X121961753Y-25380364D01*
X121984027Y-25389495D01*
X122048464Y-25423561D01*
X122068555Y-25436829D01*
X122129136Y-25485908D01*
X122138760Y-25494576D01*
X124114789Y-27470604D01*
X124114799Y-27470623D01*
X124151110Y-27506939D01*
X124151110Y-27506940D01*
X124220654Y-27576494D01*
X124220659Y-27576499D01*
X124376706Y-27696252D01*
X124376707Y-27696253D01*
X124429459Y-27726712D01*
X124547065Y-27794620D01*
X124728802Y-27869905D01*
X124918812Y-27920823D01*
X125113843Y-27946502D01*
X125146308Y-27946502D01*
X131134108Y-27946502D01*
X131193040Y-27946502D01*
X131206922Y-27947282D01*
X131223411Y-27949139D01*
X131297267Y-27957460D01*
X131324332Y-27963638D01*
X131403538Y-27991353D01*
X131428548Y-28003397D01*
X131499605Y-28048045D01*
X131521312Y-28065357D01*
X131580642Y-28124687D01*
X131597955Y-28146396D01*
X131642600Y-28217448D01*
X131654647Y-28242465D01*
X131682360Y-28321663D01*
X131688539Y-28348735D01*
X131698718Y-28439077D01*
X131699498Y-28452960D01*
X131699498Y-34349868D01*
X131699492Y-34349992D01*
X131699499Y-34416354D01*
X131698821Y-34429314D01*
X131689959Y-34513724D01*
X131684574Y-34539076D01*
X131660375Y-34613593D01*
X131649837Y-34637274D01*
X131610679Y-34705127D01*
X131595450Y-34726097D01*
X131543040Y-34784332D01*
X131523781Y-34801681D01*
X131455408Y-34851384D01*
X131444585Y-34858421D01*
X131443594Y-34858994D01*
X131392800Y-34888340D01*
X131392713Y-34888425D01*
X131385732Y-34892464D01*
X131385722Y-34892466D01*
X131385678Y-34892496D01*
X126510516Y-37709224D01*
X126507370Y-37710783D01*
X126446113Y-37746434D01*
X126445777Y-37746629D01*
X126384620Y-37781964D01*
X126381238Y-37784234D01*
X126347452Y-37803920D01*
X126171119Y-37945827D01*
X126171118Y-37945828D01*
X126018078Y-38112564D01*
X125891772Y-38300375D01*
X125891767Y-38300383D01*
X125795068Y-38505000D01*
X125795065Y-38505008D01*
X125730143Y-38721836D01*
X125698480Y-38945929D01*
X125698480Y-38945935D01*
X125699546Y-39055702D01*
X125699552Y-39056906D01*
X125699552Y-54098634D01*
X125699549Y-54098644D01*
X125699549Y-54257315D01*
X125730100Y-54469774D01*
X125790573Y-54675704D01*
X125790575Y-54675710D01*
X125845517Y-54796002D01*
X125879746Y-54870945D01*
X125932962Y-54953739D01*
X125995799Y-55051503D01*
X126136362Y-55213698D01*
X126136364Y-55213699D01*
X126136366Y-55213702D01*
X126298589Y-55354245D01*
X126479164Y-55470267D01*
X126479175Y-55470272D01*
X126674404Y-55559404D01*
X126674407Y-55559405D01*
X126674414Y-55559408D01*
X126880363Y-55619851D01*
X127092819Y-55650367D01*
X127092819Y-55650366D01*
X127092820Y-55650367D01*
X127092836Y-55650366D01*
X127131152Y-55650360D01*
X127134244Y-55650360D01*
X127134245Y-55650361D01*
X127153011Y-55650358D01*
X127200137Y-55650351D01*
X127266029Y-55650341D01*
X127266030Y-55650340D01*
X127276015Y-55650339D01*
X127276019Y-55650338D01*
X149134038Y-55646874D01*
X149147473Y-55647602D01*
X149234945Y-55657122D01*
X149261160Y-55662898D01*
X149338130Y-55688860D01*
X149362487Y-55700142D01*
X149428448Y-55739883D01*
X149437479Y-55745324D01*
X149449375Y-55753470D01*
X154513032Y-59672272D01*
X156758240Y-61409856D01*
X157651620Y-62101249D01*
X157651622Y-62101251D01*
X157673284Y-62118015D01*
X157698141Y-62137253D01*
X157698142Y-62137254D01*
X157708804Y-62146524D01*
X157774937Y-62210993D01*
X157792771Y-62232862D01*
X157838774Y-62304622D01*
X157851202Y-62329958D01*
X157879790Y-62410265D01*
X157886167Y-62437753D01*
X157896669Y-62529526D01*
X157897473Y-62543622D01*
X157897467Y-62602442D01*
X157897473Y-62602468D01*
X157897474Y-62610367D01*
X157897474Y-62610369D01*
X157897501Y-71957472D01*
X157897504Y-71957509D01*
X157897505Y-71993886D01*
X157897506Y-71993890D01*
X157929520Y-72211310D01*
X157969437Y-72343917D01*
X157992869Y-72421756D01*
X158086197Y-72620727D01*
X158207514Y-72803980D01*
X158207516Y-72803983D01*
X158279841Y-72884641D01*
X158354233Y-72967604D01*
X158523222Y-73108110D01*
X158710877Y-73222500D01*
X158751368Y-73239680D01*
X158751376Y-73239686D01*
X158812034Y-73265420D01*
X158812037Y-73265421D01*
X158812038Y-73265422D01*
X158830777Y-73273372D01*
X158872693Y-73291155D01*
X158872694Y-73291155D01*
X176811006Y-80901448D01*
X176813920Y-80902729D01*
X176833399Y-80911598D01*
X176839167Y-80914408D01*
X176851053Y-80920586D01*
X176870899Y-80933445D01*
X182142253Y-85113098D01*
X194455390Y-94876177D01*
X194455399Y-94876185D01*
X194504382Y-94915025D01*
X194514735Y-94924220D01*
X194578963Y-94988030D01*
X194596284Y-95009585D01*
X194641035Y-95080147D01*
X194653149Y-95105005D01*
X194681150Y-95183731D01*
X194687454Y-95210657D01*
X194697311Y-95293633D01*
X194697491Y-95321283D01*
X194688716Y-95404378D01*
X194682764Y-95431382D01*
X194670517Y-95467293D01*
X194655791Y-95510468D01*
X194644001Y-95535483D01*
X194596385Y-95612769D01*
X194588478Y-95624130D01*
X194576418Y-95639546D01*
X194576415Y-95639550D01*
X194552293Y-95670382D01*
X194552290Y-95670386D01*
X194549935Y-95673397D01*
X194549910Y-95673426D01*
X184000463Y-109158055D01*
X184000463Y-109158056D01*
X183976989Y-109188061D01*
X183976986Y-109188062D01*
X183967735Y-109198601D01*
X183913426Y-109253822D01*
X183903388Y-109264029D01*
X183881615Y-109281654D01*
X183810191Y-109327166D01*
X183785016Y-109339455D01*
X183705199Y-109367772D01*
X183677911Y-109374096D01*
X183593770Y-109383776D01*
X183565755Y-109383814D01*
X183481593Y-109374359D01*
X183454287Y-109368107D01*
X183374391Y-109340001D01*
X183349188Y-109327781D01*
X183271668Y-109278675D01*
X183260269Y-109270516D01*
X183211787Y-109231482D01*
X183205086Y-109226812D01*
X169750169Y-98558816D01*
X168748355Y-97764508D01*
X171589224Y-97764508D01*
X171589224Y-97764514D01*
X171602999Y-97895580D01*
X171650226Y-98018608D01*
X171650228Y-98018612D01*
X171727682Y-98125219D01*
X171727686Y-98125223D01*
X171727687Y-98125224D01*
X172262638Y-98558419D01*
X182607732Y-106935711D01*
X182710145Y-107018644D01*
X182710146Y-107018644D01*
X182710148Y-107018646D01*
X182830539Y-107072248D01*
X182960700Y-107092863D01*
X183091763Y-107079088D01*
X183214794Y-107031861D01*
X183288436Y-106978355D01*
X183321404Y-106954404D01*
X183321405Y-106954402D01*
X183321409Y-106954400D01*
X192214831Y-95971939D01*
X192268432Y-95851548D01*
X192289048Y-95721387D01*
X192275273Y-95590324D01*
X192228046Y-95467293D01*
X192150584Y-95360678D01*
X192048169Y-95277743D01*
X192048166Y-95277741D01*
X187391983Y-91507238D01*
X181168126Y-86467257D01*
X181138447Y-86454043D01*
X181047733Y-86413654D01*
X181047728Y-86413653D01*
X180917575Y-86393039D01*
X180917573Y-86393039D01*
X180917572Y-86393039D01*
X180852040Y-86399926D01*
X180786506Y-86406814D01*
X180663478Y-86454041D01*
X180663474Y-86454043D01*
X180556867Y-86531497D01*
X180556862Y-86531503D01*
X180475979Y-86631382D01*
X180475969Y-86631397D01*
X171746376Y-97411547D01*
X171663442Y-97513960D01*
X171663441Y-97513963D01*
X171609839Y-97634354D01*
X171609838Y-97634356D01*
X171609838Y-97634358D01*
X171589224Y-97764508D01*
X168748355Y-97764508D01*
X168712521Y-97736096D01*
X168712129Y-97735784D01*
X168711572Y-97735339D01*
X168711573Y-97735339D01*
X168661955Y-97695670D01*
X168659258Y-97693865D01*
X168658406Y-97693190D01*
X168657959Y-97692996D01*
X168654324Y-97690564D01*
X168654323Y-97690562D01*
X168556372Y-97625028D01*
X168556371Y-97625027D01*
X168556364Y-97625023D01*
X168556358Y-97625019D01*
X168448173Y-97565209D01*
X168447324Y-97564519D01*
X168445239Y-97563587D01*
X168445167Y-97563547D01*
X168398282Y-97542594D01*
X168398269Y-97542583D01*
X168398268Y-97542588D01*
X151651590Y-90055838D01*
X151651054Y-90055596D01*
X151578720Y-90022846D01*
X151578712Y-90022843D01*
X151578707Y-90022841D01*
X151479146Y-89989758D01*
X151430508Y-89973596D01*
X151277993Y-89939993D01*
X151200957Y-89931289D01*
X151200957Y-89931285D01*
X151200906Y-89931283D01*
X145087315Y-89237989D01*
X143938703Y-89107734D01*
X154062423Y-89107734D01*
X154078484Y-89238535D01*
X154127851Y-89360724D01*
X154207160Y-89465971D01*
X154311008Y-89547106D01*
X167198074Y-95017342D01*
X167198075Y-95017343D01*
X167285428Y-95054422D01*
X167319383Y-95068835D01*
X167449885Y-95087176D01*
X167580687Y-95071116D01*
X167702875Y-95021748D01*
X167808123Y-94942439D01*
X167889257Y-94838591D01*
X167940749Y-94717283D01*
X167940748Y-94717283D01*
X171459352Y-86427975D01*
X174113500Y-86427975D01*
X174113500Y-86672028D01*
X174147511Y-86886766D01*
X174151679Y-86913078D01*
X174226513Y-87143394D01*
X174227097Y-87145189D01*
X174337896Y-87362644D01*
X174481339Y-87560078D01*
X174481343Y-87560083D01*
X174653918Y-87732658D01*
X174653923Y-87732662D01*
X174740475Y-87795545D01*
X174851361Y-87876108D01*
X175068815Y-87986906D01*
X175300924Y-88062323D01*
X175541973Y-88100502D01*
X175541974Y-88100502D01*
X175786026Y-88100502D01*
X175786027Y-88100502D01*
X176027076Y-88062323D01*
X176259185Y-87986906D01*
X176476639Y-87876108D01*
X176674083Y-87732657D01*
X176846655Y-87560085D01*
X176990106Y-87362641D01*
X177100904Y-87145187D01*
X177176321Y-86913078D01*
X177214500Y-86672029D01*
X177214500Y-86427975D01*
X177176321Y-86186926D01*
X177100904Y-85954817D01*
X176990106Y-85737363D01*
X176971779Y-85712138D01*
X176846660Y-85539925D01*
X176846656Y-85539920D01*
X176674081Y-85367345D01*
X176674076Y-85367341D01*
X176476642Y-85223898D01*
X176476641Y-85223897D01*
X176476639Y-85223896D01*
X176259185Y-85113098D01*
X176027076Y-85037681D01*
X176027074Y-85037680D01*
X176027072Y-85037680D01*
X175858769Y-85011023D01*
X175786027Y-84999502D01*
X175541973Y-84999502D01*
X175486093Y-85008352D01*
X175300927Y-85037680D01*
X175068812Y-85113099D01*
X174851357Y-85223898D01*
X174653923Y-85367341D01*
X174653918Y-85367345D01*
X174481343Y-85539920D01*
X174481339Y-85539925D01*
X174337896Y-85737359D01*
X174227097Y-85954814D01*
X174151678Y-86186929D01*
X174113500Y-86427975D01*
X171459352Y-86427975D01*
X173410986Y-81830216D01*
X173429327Y-81699714D01*
X173413267Y-81568912D01*
X173363899Y-81446724D01*
X173363897Y-81446721D01*
X173363896Y-81446719D01*
X173284594Y-81341480D01*
X173284589Y-81341475D01*
X173180743Y-81260343D01*
X173180742Y-81260342D01*
X173059434Y-81208850D01*
X173059431Y-81208849D01*
X173057160Y-81207885D01*
X173057159Y-81207884D01*
X160293675Y-75790105D01*
X160293675Y-75790104D01*
X160208514Y-75753956D01*
X160172367Y-75738613D01*
X160172364Y-75738612D01*
X160172362Y-75738612D01*
X160041865Y-75720272D01*
X159911064Y-75736332D01*
X159911061Y-75736333D01*
X159788875Y-75785700D01*
X159788874Y-75785700D01*
X159683628Y-75865008D01*
X159602493Y-75968856D01*
X159602285Y-75969347D01*
X159551001Y-76090165D01*
X159551000Y-76090167D01*
X154132256Y-88855923D01*
X154132256Y-88855924D01*
X154080764Y-88977232D01*
X154062423Y-89107734D01*
X143938703Y-89107734D01*
X132553868Y-87816670D01*
X132540781Y-87814472D01*
X132456137Y-87795545D01*
X132431061Y-87787040D01*
X132358425Y-87753381D01*
X132335725Y-87739746D01*
X132271888Y-87691429D01*
X132252603Y-87673287D01*
X132226545Y-87642907D01*
X132200484Y-87612523D01*
X132185491Y-87590701D01*
X132144426Y-87514630D01*
X132138479Y-87501948D01*
X131652240Y-86291513D01*
X131484866Y-85874856D01*
X134855078Y-85874856D01*
X134866315Y-85954814D01*
X134873419Y-86005357D01*
X134924911Y-86126665D01*
X135006046Y-86230513D01*
X135111293Y-86309822D01*
X135233482Y-86359189D01*
X135364283Y-86375250D01*
X135364284Y-86375249D01*
X135382435Y-86377478D01*
X135382439Y-86377478D01*
X149259929Y-88081420D01*
X149390431Y-88063079D01*
X149511739Y-88011587D01*
X149615587Y-87930452D01*
X149694896Y-87825205D01*
X149744263Y-87703016D01*
X149746672Y-87683397D01*
X149760324Y-87572215D01*
X149760323Y-87572214D01*
X149762007Y-87558507D01*
X149762007Y-87558493D01*
X149768142Y-87508535D01*
X151054747Y-77029975D01*
X154047500Y-77029975D01*
X154047500Y-77080278D01*
X154047500Y-77274029D01*
X154085679Y-77515078D01*
X154161096Y-77747187D01*
X154252042Y-77925680D01*
X154271896Y-77964644D01*
X154415339Y-78162078D01*
X154415343Y-78162083D01*
X154587918Y-78334658D01*
X154587923Y-78334662D01*
X154716283Y-78427920D01*
X154785361Y-78478108D01*
X155002815Y-78588906D01*
X155234924Y-78664323D01*
X155475973Y-78702502D01*
X155475974Y-78702502D01*
X155720026Y-78702502D01*
X155720027Y-78702502D01*
X155961076Y-78664323D01*
X156193185Y-78588906D01*
X156410639Y-78478108D01*
X156608083Y-78334657D01*
X156780655Y-78162085D01*
X156924106Y-77964641D01*
X157034904Y-77747187D01*
X157110321Y-77515078D01*
X157148500Y-77274029D01*
X157148500Y-77029975D01*
X157110321Y-76788926D01*
X157034904Y-76556817D01*
X156924106Y-76339363D01*
X156905779Y-76314138D01*
X156780660Y-76141925D01*
X156780656Y-76141920D01*
X156608081Y-75969345D01*
X156608076Y-75969341D01*
X156410642Y-75825898D01*
X156410641Y-75825897D01*
X156410639Y-75825896D01*
X156193185Y-75715098D01*
X155961076Y-75639681D01*
X155961074Y-75639680D01*
X155961072Y-75639680D01*
X155792769Y-75613023D01*
X155720027Y-75601502D01*
X155475973Y-75601502D01*
X155420093Y-75610352D01*
X155234927Y-75639680D01*
X155002812Y-75715099D01*
X154785357Y-75825898D01*
X154587923Y-75969341D01*
X154587918Y-75969345D01*
X154415343Y-76141920D01*
X154415339Y-76141925D01*
X154271896Y-76339359D01*
X154161097Y-76556814D01*
X154085678Y-76788929D01*
X154081155Y-76817488D01*
X154047500Y-77029975D01*
X151054747Y-77029975D01*
X151466494Y-73676569D01*
X151448153Y-73546067D01*
X151396661Y-73424759D01*
X151315526Y-73320911D01*
X151315525Y-73320910D01*
X151210282Y-73241604D01*
X151210281Y-73241603D01*
X151210279Y-73241602D01*
X151205537Y-73239686D01*
X151205522Y-73239680D01*
X151162997Y-73222499D01*
X151088091Y-73192235D01*
X151088088Y-73192234D01*
X151088087Y-73192234D01*
X151063724Y-73189241D01*
X151063724Y-73189242D01*
X151010505Y-73182708D01*
X150957289Y-73176174D01*
X150957286Y-73176174D01*
X137061643Y-71470004D01*
X137061642Y-71470004D01*
X137061641Y-71470004D01*
X136931145Y-71488344D01*
X136931141Y-71488345D01*
X136809834Y-71539836D01*
X136809832Y-71539837D01*
X136705984Y-71620972D01*
X136626675Y-71726219D01*
X136626673Y-71726224D01*
X136580750Y-71839892D01*
X136580748Y-71839897D01*
X136577309Y-71848406D01*
X136577309Y-71848408D01*
X136561248Y-71979209D01*
X136561248Y-71979211D01*
X134871961Y-85737359D01*
X134855078Y-85874856D01*
X131484866Y-85874856D01*
X125891156Y-71949975D01*
X129663500Y-71949975D01*
X129663500Y-72194028D01*
X129699568Y-72421754D01*
X129701679Y-72435078D01*
X129777096Y-72667187D01*
X129887891Y-72884636D01*
X129887896Y-72884644D01*
X130031339Y-73082078D01*
X130031343Y-73082083D01*
X130203918Y-73254658D01*
X130203923Y-73254662D01*
X130295108Y-73320911D01*
X130401361Y-73398108D01*
X130618815Y-73508906D01*
X130850924Y-73584323D01*
X131091973Y-73622502D01*
X131091974Y-73622502D01*
X131336026Y-73622502D01*
X131336027Y-73622502D01*
X131577076Y-73584323D01*
X131809185Y-73508906D01*
X132026639Y-73398108D01*
X132224083Y-73254657D01*
X132396655Y-73082085D01*
X132540106Y-72884641D01*
X132650904Y-72667187D01*
X132726321Y-72435078D01*
X132764500Y-72194029D01*
X132764500Y-71949975D01*
X132726321Y-71708926D01*
X132650904Y-71476817D01*
X132540106Y-71259363D01*
X132521779Y-71234138D01*
X132396660Y-71061925D01*
X132396656Y-71061920D01*
X132224081Y-70889345D01*
X132224076Y-70889341D01*
X132026642Y-70745898D01*
X132026641Y-70745897D01*
X132026639Y-70745896D01*
X131809185Y-70635098D01*
X131577076Y-70559681D01*
X131577074Y-70559680D01*
X131577072Y-70559680D01*
X131408769Y-70533023D01*
X131336027Y-70521502D01*
X131091973Y-70521502D01*
X131036093Y-70530352D01*
X130850927Y-70559680D01*
X130618812Y-70635099D01*
X130401357Y-70745898D01*
X130203923Y-70889341D01*
X130203918Y-70889345D01*
X130031343Y-71061920D01*
X130031339Y-71061925D01*
X129887896Y-71259359D01*
X129777097Y-71476814D01*
X129701678Y-71708929D01*
X129663500Y-71949975D01*
X125891156Y-71949975D01*
X123340322Y-65599975D01*
X150999500Y-65599975D01*
X150999500Y-65650278D01*
X150999500Y-65844029D01*
X151037679Y-66085078D01*
X151113096Y-66317187D01*
X151153590Y-66396662D01*
X151223896Y-66534644D01*
X151367339Y-66732078D01*
X151367343Y-66732083D01*
X151539918Y-66904658D01*
X151539923Y-66904662D01*
X151645451Y-66981332D01*
X151737361Y-67048108D01*
X151954815Y-67158906D01*
X152186924Y-67234323D01*
X152427973Y-67272502D01*
X152427974Y-67272502D01*
X152672026Y-67272502D01*
X152672027Y-67272502D01*
X152913076Y-67234323D01*
X153145185Y-67158906D01*
X153362639Y-67048108D01*
X153560083Y-66904657D01*
X153732655Y-66732085D01*
X153876106Y-66534641D01*
X153986904Y-66317187D01*
X154062321Y-66085078D01*
X154100500Y-65844029D01*
X154100500Y-65599975D01*
X154062321Y-65358926D01*
X153986904Y-65126817D01*
X153876106Y-64909363D01*
X153772896Y-64767306D01*
X153732660Y-64711925D01*
X153732656Y-64711920D01*
X153560081Y-64539345D01*
X153560076Y-64539341D01*
X153362642Y-64395898D01*
X153362641Y-64395897D01*
X153362639Y-64395896D01*
X153145185Y-64285098D01*
X152913076Y-64209681D01*
X152913074Y-64209680D01*
X152913072Y-64209680D01*
X152744769Y-64183023D01*
X152672027Y-64171502D01*
X152427973Y-64171502D01*
X152372093Y-64180352D01*
X152186927Y-64209680D01*
X151954812Y-64285099D01*
X151737357Y-64395898D01*
X151539923Y-64539341D01*
X151539918Y-64539345D01*
X151367343Y-64711920D01*
X151367339Y-64711925D01*
X151223896Y-64909359D01*
X151113097Y-65126814D01*
X151037678Y-65358929D01*
X151014400Y-65505902D01*
X150999500Y-65599975D01*
X123340322Y-65599975D01*
X123062897Y-64909359D01*
X122901630Y-64507904D01*
X122901385Y-64507289D01*
X122858680Y-64399317D01*
X122858672Y-64399300D01*
X122746036Y-64205305D01*
X122746034Y-64205302D01*
X122744931Y-64203925D01*
X122605794Y-64030189D01*
X122560087Y-63987923D01*
X122441080Y-63877874D01*
X122441079Y-63877873D01*
X122255554Y-63751740D01*
X122145474Y-63698854D01*
X122053336Y-63654589D01*
X122053333Y-63654588D01*
X122053331Y-63654587D01*
X122053329Y-63654586D01*
X121838930Y-63588583D01*
X121838925Y-63588581D01*
X121838922Y-63588581D01*
X121838917Y-63588580D01*
X121838916Y-63588580D01*
X121617081Y-63555182D01*
X121617075Y-63555181D01*
X121507204Y-63555181D01*
X121507203Y-63555180D01*
X121507203Y-63555181D01*
X121507181Y-63555180D01*
X121465832Y-63555172D01*
X121451330Y-63555169D01*
X121439014Y-63555167D01*
X121439013Y-63555167D01*
X121439011Y-63555166D01*
X80962023Y-63546905D01*
X80961208Y-63546902D01*
X80854444Y-63546178D01*
X80854436Y-63546179D01*
X80639080Y-63576221D01*
X80430308Y-63636990D01*
X80232477Y-63727212D01*
X80232472Y-63727215D01*
X80049709Y-63845013D01*
X80049701Y-63845019D01*
X79885833Y-63987922D01*
X79885832Y-63987923D01*
X79848585Y-64031347D01*
X79744263Y-64152967D01*
X79744261Y-64152970D01*
X79744260Y-64152970D01*
X79687333Y-64243044D01*
X79687285Y-64243121D01*
X65835729Y-86124567D01*
X65829898Y-86132987D01*
X65789475Y-86186496D01*
X65775831Y-86201754D01*
X65730891Y-86244345D01*
X65714922Y-86257152D01*
X65663967Y-86291513D01*
X65650965Y-86299173D01*
X49747738Y-94407848D01*
X49747737Y-94407847D01*
X49747730Y-94407852D01*
X49691143Y-94436704D01*
X49678324Y-94442352D01*
X49592555Y-94474487D01*
X49565421Y-94481284D01*
X49481638Y-94492444D01*
X49453670Y-94492986D01*
X49444232Y-94492100D01*
X49362476Y-94484421D01*
X49348626Y-94482325D01*
X49284730Y-94468928D01*
X49284728Y-94468927D01*
X43985785Y-93357863D01*
X43972189Y-93354195D01*
X43884792Y-93325202D01*
X43859278Y-93313378D01*
X43786721Y-93269134D01*
X43764526Y-93251866D01*
X43703801Y-93192408D01*
X43686069Y-93170583D01*
X43636489Y-93093005D01*
X43629590Y-93080726D01*
X43603726Y-93027864D01*
X43603724Y-93027862D01*
X43602421Y-93025898D01*
X43595315Y-93013747D01*
X42835909Y-91527458D01*
X39035042Y-84088500D01*
X39032968Y-84084440D01*
X39032967Y-84084440D01*
X39017305Y-84053787D01*
X38984603Y-83989672D01*
X38862029Y-83815729D01*
X38716137Y-83660823D01*
X38549846Y-83528054D01*
X38531624Y-83517324D01*
X38366483Y-83420078D01*
X38169720Y-83339057D01*
X37963492Y-83286611D01*
X37963488Y-83286610D01*
X37751928Y-83263791D01*
X37751927Y-83263791D01*
X37740535Y-83264187D01*
X37646132Y-83267469D01*
X37646054Y-83267472D01*
X37620507Y-83268343D01*
X37620508Y-83268344D01*
X37579740Y-83269735D01*
X37579741Y-83269736D01*
X37579739Y-83269736D01*
X37085559Y-83286611D01*
X30099340Y-83525172D01*
X30085864Y-83524899D01*
X29998016Y-83518332D01*
X29971572Y-83513430D01*
X29893692Y-83490025D01*
X29868934Y-83479541D01*
X29797921Y-83439890D01*
X29776007Y-83424315D01*
X29715221Y-83370292D01*
X29697176Y-83350353D01*
X29645868Y-83279529D01*
X29637880Y-83266983D01*
X29636107Y-83263791D01*
X24260775Y-73584323D01*
X20774178Y-67305938D01*
X20737435Y-67239775D01*
X23779534Y-67239775D01*
X23779535Y-67239779D01*
X23811416Y-67367643D01*
X23811416Y-67367644D01*
X30462367Y-79366278D01*
X30662641Y-79727582D01*
X30748718Y-79816718D01*
X30754187Y-79822381D01*
X30772037Y-79833106D01*
X30867147Y-79890253D01*
X30993826Y-79926578D01*
X31125590Y-79928878D01*
X31253460Y-79896996D01*
X31368721Y-79833106D01*
X31368721Y-79833105D01*
X32301648Y-79315975D01*
X37461500Y-79315975D01*
X37461500Y-79366278D01*
X37461500Y-79560029D01*
X37499679Y-79801078D01*
X37546661Y-79945674D01*
X37575097Y-80033189D01*
X37685896Y-80250644D01*
X37829339Y-80448078D01*
X37829343Y-80448083D01*
X38001918Y-80620658D01*
X38001923Y-80620662D01*
X38174136Y-80745781D01*
X38199361Y-80764108D01*
X38416815Y-80874906D01*
X38648924Y-80950323D01*
X38889973Y-80988502D01*
X38889974Y-80988502D01*
X39134026Y-80988502D01*
X39134027Y-80988502D01*
X39375076Y-80950323D01*
X39607185Y-80874906D01*
X39824639Y-80764108D01*
X40022083Y-80620657D01*
X40194655Y-80448085D01*
X40338106Y-80250641D01*
X40448904Y-80033187D01*
X40524321Y-79801078D01*
X40562500Y-79560029D01*
X40562500Y-79315975D01*
X40524321Y-79074926D01*
X40448904Y-78842817D01*
X40338106Y-78625363D01*
X40332112Y-78617113D01*
X42535610Y-78617113D01*
X42535610Y-78617115D01*
X42563010Y-78746018D01*
X45641414Y-84787725D01*
X48790213Y-90967591D01*
X48978707Y-91337530D01*
X48978709Y-91337533D01*
X49066885Y-91435464D01*
X49177403Y-91507234D01*
X49177406Y-91507235D01*
X49177410Y-91507238D01*
X49302744Y-91547962D01*
X49434348Y-91554859D01*
X49563252Y-91527459D01*
X49563253Y-91527458D01*
X49563255Y-91527458D01*
X49640883Y-91487904D01*
X49680673Y-91467631D01*
X49680673Y-91467630D01*
X49694872Y-91460396D01*
X49694879Y-91460390D01*
X62037343Y-85171592D01*
X62154764Y-85111764D01*
X62252699Y-85023583D01*
X62324473Y-84913060D01*
X62365197Y-84787725D01*
X62372094Y-84656122D01*
X62344694Y-84527217D01*
X62344693Y-84527215D01*
X62344693Y-84527214D01*
X62329975Y-84498329D01*
X62329974Y-84498327D01*
X62284866Y-84409796D01*
X62284863Y-84409793D01*
X55988827Y-72053127D01*
X55988827Y-72053126D01*
X55928999Y-71935705D01*
X55882444Y-71884000D01*
X55840818Y-71837769D01*
X55730300Y-71765999D01*
X55730295Y-71765996D01*
X55604961Y-71725272D01*
X55604953Y-71725271D01*
X55473379Y-71718376D01*
X55473364Y-71718375D01*
X55473357Y-71718375D01*
X55473356Y-71718375D01*
X55473355Y-71718375D01*
X55344450Y-71745775D01*
X47508068Y-75738612D01*
X42870362Y-78101641D01*
X42870361Y-78101642D01*
X42870360Y-78101641D01*
X42752942Y-78161470D01*
X42752936Y-78161474D01*
X42655007Y-78249649D01*
X42655000Y-78249657D01*
X42583234Y-78360168D01*
X42583232Y-78360172D01*
X42583231Y-78360174D01*
X42583231Y-78360175D01*
X42561218Y-78427925D01*
X42542507Y-78485510D01*
X42542506Y-78485515D01*
X42535610Y-78617113D01*
X40332112Y-78617113D01*
X40236501Y-78485515D01*
X40194660Y-78427925D01*
X40194656Y-78427920D01*
X40022081Y-78255345D01*
X40022076Y-78255341D01*
X39824642Y-78111898D01*
X39824641Y-78111897D01*
X39824639Y-78111896D01*
X39607185Y-78001098D01*
X39375076Y-77925681D01*
X39375074Y-77925680D01*
X39375072Y-77925680D01*
X39206769Y-77899023D01*
X39134027Y-77887502D01*
X38889973Y-77887502D01*
X38834093Y-77896352D01*
X38648927Y-77925680D01*
X38416812Y-78001099D01*
X38199357Y-78111898D01*
X38001923Y-78255341D01*
X38001918Y-78255345D01*
X37829343Y-78427920D01*
X37829339Y-78427925D01*
X37685896Y-78625359D01*
X37575097Y-78842814D01*
X37499678Y-79074929D01*
X37495155Y-79103488D01*
X37461500Y-79315975D01*
X32301648Y-79315975D01*
X43613397Y-73045772D01*
X43708195Y-72954227D01*
X43750006Y-72884641D01*
X43776068Y-72841267D01*
X43812393Y-72714587D01*
X43814693Y-72582823D01*
X43782811Y-72454953D01*
X43733141Y-72365346D01*
X43718921Y-72339692D01*
X43718920Y-72339691D01*
X39701446Y-65091975D01*
X52447500Y-65091975D01*
X52447500Y-65336028D01*
X52475326Y-65511717D01*
X52485679Y-65577078D01*
X52561096Y-65809187D01*
X52648715Y-65981150D01*
X52671896Y-66026644D01*
X52815339Y-66224078D01*
X52815343Y-66224083D01*
X52987918Y-66396658D01*
X52987923Y-66396662D01*
X53145568Y-66511197D01*
X53185361Y-66540108D01*
X53402815Y-66650906D01*
X53634924Y-66726323D01*
X53875973Y-66764502D01*
X53875974Y-66764502D01*
X54120026Y-66764502D01*
X54120027Y-66764502D01*
X54361076Y-66726323D01*
X54593185Y-66650906D01*
X54810639Y-66540108D01*
X55008083Y-66396657D01*
X55180655Y-66224085D01*
X55324106Y-66026641D01*
X55434904Y-65809187D01*
X55510321Y-65577078D01*
X55548500Y-65336029D01*
X55548500Y-65091975D01*
X55510321Y-64850926D01*
X55434904Y-64618817D01*
X55324106Y-64401363D01*
X55209081Y-64243044D01*
X55180660Y-64203925D01*
X55180656Y-64203920D01*
X55008081Y-64031345D01*
X55008076Y-64031341D01*
X54810642Y-63887898D01*
X54810641Y-63887897D01*
X54810639Y-63887896D01*
X54593185Y-63777098D01*
X54361076Y-63701681D01*
X54361074Y-63701680D01*
X54361072Y-63701680D01*
X54192769Y-63675023D01*
X54120027Y-63663502D01*
X53875973Y-63663502D01*
X53820093Y-63672352D01*
X53634927Y-63701680D01*
X53402812Y-63777099D01*
X53185357Y-63887898D01*
X52987923Y-64031341D01*
X52987918Y-64031345D01*
X52815343Y-64203920D01*
X52815339Y-64203925D01*
X52671896Y-64401359D01*
X52561097Y-64618814D01*
X52561096Y-64618816D01*
X52561096Y-64618817D01*
X52544725Y-64669203D01*
X52485678Y-64850929D01*
X52447500Y-65091975D01*
X39701446Y-65091975D01*
X36931587Y-60095016D01*
X36840042Y-60000218D01*
X36785069Y-59967187D01*
X36785069Y-59967186D01*
X36727083Y-59932345D01*
X36600407Y-59896021D01*
X36600403Y-59896020D01*
X36600402Y-59896020D01*
X36598101Y-59895979D01*
X36468637Y-59893719D01*
X36468633Y-59893720D01*
X36340769Y-59925601D01*
X36340768Y-59925601D01*
X36265746Y-59967187D01*
X24096092Y-66712936D01*
X23980833Y-66776824D01*
X23886031Y-66868372D01*
X23818160Y-66981330D01*
X23781836Y-67108005D01*
X23781835Y-67108011D01*
X23779534Y-67239775D01*
X20737435Y-67239775D01*
X20624584Y-67036562D01*
X20618515Y-67024022D01*
X20600740Y-66981330D01*
X20583507Y-66939938D01*
X20575765Y-66913223D01*
X20561570Y-66830369D01*
X20559979Y-66802608D01*
X20564614Y-66718677D01*
X20569251Y-66691259D01*
X20592484Y-66610459D01*
X20603115Y-66584775D01*
X20643776Y-66511192D01*
X20659871Y-66488516D01*
X20715907Y-66425856D01*
X20736650Y-66407340D01*
X20811074Y-66354623D01*
X20822834Y-66347249D01*
X20874368Y-66318836D01*
X20874370Y-66318833D01*
X20882798Y-66314187D01*
X20882881Y-66314133D01*
X21404200Y-66026641D01*
X32455181Y-59932345D01*
X37837821Y-56963975D01*
X45335500Y-56963975D01*
X45335500Y-57014278D01*
X45335500Y-57208029D01*
X45373679Y-57449078D01*
X45449096Y-57681187D01*
X45540042Y-57859680D01*
X45559896Y-57898644D01*
X45703339Y-58096078D01*
X45703343Y-58096083D01*
X45875918Y-58268658D01*
X45875923Y-58268662D01*
X46004283Y-58361920D01*
X46073361Y-58412108D01*
X46290815Y-58522906D01*
X46522924Y-58598323D01*
X46763973Y-58636502D01*
X46763974Y-58636502D01*
X47008026Y-58636502D01*
X47008027Y-58636502D01*
X47249076Y-58598323D01*
X47481185Y-58522906D01*
X47698639Y-58412108D01*
X47896083Y-58268657D01*
X48068655Y-58096085D01*
X48212106Y-57898641D01*
X48322904Y-57681187D01*
X48398321Y-57449078D01*
X48436500Y-57208029D01*
X48436500Y-56963975D01*
X48398321Y-56722926D01*
X48322904Y-56490817D01*
X48212106Y-56273363D01*
X48091999Y-56108049D01*
X48068660Y-56075925D01*
X48068656Y-56075920D01*
X47896081Y-55903345D01*
X47896076Y-55903341D01*
X47849913Y-55869802D01*
X56745791Y-55869802D01*
X56745791Y-55869808D01*
X56758101Y-56001013D01*
X61674798Y-69249916D01*
X61674799Y-69249917D01*
X61697968Y-69282567D01*
X61751064Y-69357391D01*
X61822828Y-69416844D01*
X61852548Y-69441466D01*
X61972324Y-69496404D01*
X61972331Y-69496407D01*
X62102254Y-69518475D01*
X62233463Y-69506165D01*
X62357013Y-69460315D01*
X62357014Y-69460313D01*
X62369551Y-69455661D01*
X62369562Y-69455655D01*
X75348457Y-64639159D01*
X75348464Y-64639158D01*
X75358811Y-64635318D01*
X75358814Y-64635318D01*
X75482364Y-64589468D01*
X75589839Y-64513203D01*
X75673912Y-64411720D01*
X75678665Y-64401359D01*
X75728852Y-64291941D01*
X75728855Y-64291935D01*
X75750923Y-64162012D01*
X75750074Y-64152967D01*
X75738613Y-64030803D01*
X75692763Y-63907253D01*
X75689654Y-63898874D01*
X75689646Y-63898858D01*
X73964435Y-59249975D01*
X76577500Y-59249975D01*
X76577500Y-59494028D01*
X76615678Y-59735074D01*
X76691096Y-59967187D01*
X76801896Y-60184644D01*
X76945339Y-60382078D01*
X76945343Y-60382083D01*
X77117918Y-60554658D01*
X77117923Y-60554662D01*
X77194166Y-60610055D01*
X77315361Y-60698108D01*
X77532815Y-60808906D01*
X77764924Y-60884323D01*
X78005973Y-60922502D01*
X78005974Y-60922502D01*
X78250026Y-60922502D01*
X78250027Y-60922502D01*
X78491076Y-60884323D01*
X78723185Y-60808906D01*
X78940639Y-60698108D01*
X79138083Y-60554657D01*
X79310655Y-60382085D01*
X79454106Y-60184641D01*
X79564904Y-59967187D01*
X79640321Y-59735078D01*
X79678500Y-59494029D01*
X79678500Y-59249975D01*
X79640321Y-59008926D01*
X79564904Y-58776817D01*
X79454106Y-58559363D01*
X79427617Y-58522904D01*
X79310660Y-58361925D01*
X79310656Y-58361920D01*
X79138081Y-58189345D01*
X79138076Y-58189341D01*
X78940642Y-58045898D01*
X78940641Y-58045897D01*
X78940639Y-58045896D01*
X78723185Y-57935098D01*
X78491076Y-57859681D01*
X78491074Y-57859680D01*
X78491072Y-57859680D01*
X78322769Y-57833023D01*
X78250027Y-57821502D01*
X78005973Y-57821502D01*
X77950093Y-57830352D01*
X77764927Y-57859680D01*
X77532812Y-57935099D01*
X77315357Y-58045898D01*
X77117923Y-58189341D01*
X77117918Y-58189345D01*
X76945343Y-58361920D01*
X76945339Y-58361925D01*
X76801896Y-58559359D01*
X76691097Y-58776814D01*
X76615678Y-59008929D01*
X76577500Y-59249975D01*
X73964435Y-59249975D01*
X70871608Y-50915811D01*
X70871606Y-50915802D01*
X70867766Y-50905454D01*
X70867766Y-50905452D01*
X70821916Y-50781902D01*
X70821913Y-50781898D01*
X70821913Y-50781897D01*
X70745651Y-50674427D01*
X70644166Y-50590352D01*
X70644164Y-50590351D01*
X70524389Y-50535413D01*
X70524382Y-50535410D01*
X70394460Y-50513343D01*
X70263252Y-50525653D01*
X70171488Y-50559708D01*
X57137901Y-55396501D01*
X57137900Y-55396501D01*
X57014353Y-55442349D01*
X57014347Y-55442352D01*
X56906880Y-55518612D01*
X56906874Y-55518617D01*
X56822799Y-55620100D01*
X56767861Y-55739876D01*
X56767858Y-55739883D01*
X56745791Y-55869802D01*
X47849913Y-55869802D01*
X47698642Y-55759898D01*
X47698641Y-55759897D01*
X47698639Y-55759896D01*
X47481185Y-55649098D01*
X47249076Y-55573681D01*
X47249074Y-55573680D01*
X47249072Y-55573680D01*
X47080769Y-55547023D01*
X47008027Y-55535502D01*
X46763973Y-55535502D01*
X46708093Y-55544352D01*
X46522927Y-55573680D01*
X46290812Y-55649099D01*
X46073357Y-55759898D01*
X45875923Y-55903341D01*
X45875918Y-55903345D01*
X45703343Y-56075920D01*
X45703339Y-56075925D01*
X45559896Y-56273359D01*
X45449097Y-56490814D01*
X45373678Y-56722929D01*
X45369155Y-56751488D01*
X45335500Y-56963975D01*
X37837821Y-56963975D01*
X38043553Y-56850520D01*
X39821920Y-55869802D01*
X46280303Y-52308191D01*
X46280304Y-52308189D01*
X46287947Y-52303975D01*
X46287997Y-52303942D01*
X46310313Y-52291643D01*
X46471376Y-52172408D01*
X46615155Y-52032815D01*
X46739096Y-51875345D01*
X46840998Y-51702793D01*
X46919051Y-51518223D01*
X46971870Y-51324914D01*
X46998516Y-51126298D01*
X46998500Y-51026100D01*
X46998500Y-50960208D01*
X46998501Y-37831249D01*
X50059680Y-37831249D01*
X50063492Y-37872333D01*
X50071779Y-37961665D01*
X50071854Y-37962466D01*
X50071855Y-37962473D01*
X51679793Y-42309293D01*
X54863442Y-50915815D01*
X54928954Y-51092915D01*
X54956205Y-51166583D01*
X54956205Y-51166584D01*
X54974672Y-51216509D01*
X54974677Y-51216518D01*
X55050822Y-51324062D01*
X55050824Y-51324064D01*
X55050827Y-51324068D01*
X55137505Y-51396029D01*
X55152223Y-51408248D01*
X55196511Y-51428617D01*
X55271949Y-51463316D01*
X55401849Y-51485520D01*
X55401849Y-51485519D01*
X55401850Y-51485520D01*
X55410728Y-51484696D01*
X55533070Y-51473347D01*
X68653185Y-46620067D01*
X68653191Y-46620066D01*
X68663515Y-46616247D01*
X68663516Y-46616247D01*
X68787115Y-46570526D01*
X68894669Y-46494374D01*
X68978848Y-46392979D01*
X69033917Y-46273252D01*
X69056121Y-46143352D01*
X69043948Y-46012131D01*
X68840899Y-45463218D01*
X79346578Y-45463218D01*
X79346578Y-45463219D01*
X82043049Y-59335359D01*
X82043050Y-59335361D01*
X82100820Y-59453808D01*
X82135784Y-59494029D01*
X82187279Y-59553267D01*
X82296533Y-59626960D01*
X82421137Y-59669865D01*
X82544008Y-59678456D01*
X82552600Y-59679057D01*
X82552600Y-59679056D01*
X82552601Y-59679057D01*
X82552601Y-59679056D01*
X82568887Y-59680196D01*
X82571581Y-59680384D01*
X82587499Y-59672273D01*
X84760034Y-59249975D01*
X99437500Y-59249975D01*
X99437500Y-59494028D01*
X99475678Y-59735074D01*
X99551096Y-59967187D01*
X99661896Y-60184644D01*
X99805339Y-60382078D01*
X99805343Y-60382083D01*
X99977918Y-60554658D01*
X99977923Y-60554662D01*
X100054166Y-60610055D01*
X100175361Y-60698108D01*
X100392815Y-60808906D01*
X100624924Y-60884323D01*
X100865973Y-60922502D01*
X100865974Y-60922502D01*
X101110026Y-60922502D01*
X101110027Y-60922502D01*
X101351076Y-60884323D01*
X101583185Y-60808906D01*
X101800639Y-60698108D01*
X101998083Y-60554657D01*
X102170655Y-60382085D01*
X102314106Y-60184641D01*
X102424904Y-59967187D01*
X102500321Y-59735078D01*
X102538500Y-59494029D01*
X102538500Y-59249975D01*
X102500321Y-59008926D01*
X102424904Y-58776817D01*
X102314106Y-58559363D01*
X102287617Y-58522904D01*
X102170660Y-58361925D01*
X102170656Y-58361920D01*
X101998081Y-58189345D01*
X101998076Y-58189341D01*
X101800642Y-58045898D01*
X101800641Y-58045897D01*
X101800639Y-58045896D01*
X101583185Y-57935098D01*
X101351076Y-57859681D01*
X101351074Y-57859680D01*
X101351072Y-57859680D01*
X101182769Y-57833023D01*
X101110027Y-57821502D01*
X100865973Y-57821502D01*
X100810093Y-57830352D01*
X100624927Y-57859680D01*
X100392812Y-57935099D01*
X100175357Y-58045898D01*
X99977923Y-58189341D01*
X99977918Y-58189345D01*
X99805343Y-58361920D01*
X99805339Y-58361925D01*
X99661896Y-58559359D01*
X99551097Y-58776814D01*
X99475678Y-59008929D01*
X99437500Y-59249975D01*
X84760034Y-59249975D01*
X96424743Y-56982586D01*
X96543190Y-56924816D01*
X96599671Y-56875717D01*
X96642649Y-56838357D01*
X96701243Y-56751488D01*
X96716342Y-56729103D01*
X96731115Y-56686198D01*
X96759247Y-56604498D01*
X96768439Y-56473035D01*
X96691247Y-56075919D01*
X95746674Y-51216509D01*
X94825654Y-46478272D01*
X105145537Y-46478272D01*
X105145537Y-60610055D01*
X105179645Y-60737351D01*
X105212591Y-60794414D01*
X105245537Y-60851478D01*
X105338723Y-60944664D01*
X105452851Y-61010556D01*
X105580145Y-61044664D01*
X105580147Y-61044664D01*
X119711927Y-61044664D01*
X119711929Y-61044664D01*
X119839223Y-61010556D01*
X119953351Y-60944664D01*
X120046537Y-60851478D01*
X120112429Y-60737350D01*
X120146537Y-60610056D01*
X120146537Y-46478272D01*
X120112429Y-46350978D01*
X120046537Y-46236850D01*
X119953351Y-46143664D01*
X119896287Y-46110718D01*
X119839224Y-46077772D01*
X119775576Y-46060718D01*
X119711929Y-46043664D01*
X105711929Y-46043664D01*
X105580145Y-46043664D01*
X105452849Y-46077772D01*
X105338723Y-46143664D01*
X105338720Y-46143666D01*
X105245539Y-46236847D01*
X105245537Y-46236850D01*
X105179645Y-46350976D01*
X105145537Y-46478272D01*
X94825654Y-46478272D01*
X94071968Y-42600893D01*
X94014197Y-42482446D01*
X93927739Y-42382987D01*
X93818485Y-42309294D01*
X93818483Y-42309293D01*
X93736912Y-42281206D01*
X93693881Y-42266389D01*
X93685288Y-42265788D01*
X93562417Y-42257196D01*
X93562414Y-42257197D01*
X93438908Y-42281202D01*
X93438899Y-42281206D01*
X93433055Y-42282342D01*
X93433053Y-42282342D01*
X88455392Y-43249901D01*
X79690277Y-44953667D01*
X79571828Y-45011439D01*
X79472369Y-45097896D01*
X79398675Y-45207152D01*
X79355771Y-45331755D01*
X79346578Y-45463218D01*
X68840899Y-45463218D01*
X64357114Y-33341975D01*
X69211500Y-33341975D01*
X69211500Y-33392278D01*
X69211500Y-33586029D01*
X69249679Y-33827078D01*
X69296661Y-33971674D01*
X69325097Y-34059189D01*
X69435896Y-34276644D01*
X69579339Y-34474078D01*
X69579343Y-34474083D01*
X69751918Y-34646658D01*
X69751923Y-34646662D01*
X69861257Y-34726097D01*
X69949361Y-34790108D01*
X70166815Y-34900906D01*
X70398924Y-34976323D01*
X70639973Y-35014502D01*
X70639974Y-35014502D01*
X70884026Y-35014502D01*
X70884027Y-35014502D01*
X71125076Y-34976323D01*
X71357185Y-34900906D01*
X71574639Y-34790108D01*
X71772083Y-34646657D01*
X71944655Y-34474085D01*
X72088106Y-34276641D01*
X72198904Y-34059187D01*
X72274321Y-33827078D01*
X72312500Y-33586029D01*
X72312500Y-33341975D01*
X72274321Y-33100926D01*
X72198904Y-32868817D01*
X72088106Y-32651363D01*
X72026343Y-32566353D01*
X71944660Y-32453925D01*
X71944656Y-32453920D01*
X71772081Y-32281345D01*
X71772076Y-32281341D01*
X71574642Y-32137898D01*
X71574641Y-32137897D01*
X71574639Y-32137896D01*
X71357185Y-32027098D01*
X71125076Y-31951681D01*
X71125074Y-31951680D01*
X71125072Y-31951680D01*
X70956769Y-31925023D01*
X70884027Y-31913502D01*
X70639973Y-31913502D01*
X70584093Y-31922352D01*
X70398927Y-31951680D01*
X70166812Y-32027099D01*
X69949357Y-32137898D01*
X69751923Y-32281341D01*
X69751918Y-32281345D01*
X69579343Y-32453920D01*
X69579339Y-32453925D01*
X69435896Y-32651359D01*
X69325097Y-32868814D01*
X69249678Y-33100929D01*
X69245155Y-33129488D01*
X69211500Y-33341975D01*
X64357114Y-33341975D01*
X64172999Y-32844248D01*
X64141127Y-32758086D01*
X64141124Y-32758082D01*
X64141124Y-32758081D01*
X64064979Y-32650537D01*
X64064977Y-32650535D01*
X64064975Y-32650532D01*
X63963580Y-32566353D01*
X63963578Y-32566351D01*
X63875001Y-32525611D01*
X63843853Y-32511284D01*
X63843851Y-32511283D01*
X63843850Y-32511283D01*
X63713956Y-32489080D01*
X63713951Y-32489079D01*
X63600490Y-32499605D01*
X63582732Y-32501253D01*
X63582730Y-32501253D01*
X63582727Y-32501254D01*
X50439713Y-37363002D01*
X50439701Y-37363008D01*
X50400438Y-37377532D01*
X50328683Y-37404075D01*
X50221138Y-37480221D01*
X50221133Y-37480226D01*
X50136952Y-37581622D01*
X50081884Y-37701349D01*
X50081884Y-37701351D01*
X50059681Y-37831244D01*
X50059680Y-37831249D01*
X46998501Y-37831249D01*
X46998501Y-37082255D01*
X46999397Y-37067395D01*
X47011119Y-36970513D01*
X47018219Y-36941601D01*
X47050044Y-36857362D01*
X47063840Y-36830969D01*
X47114829Y-36756761D01*
X47134521Y-36734416D01*
X47201746Y-36674502D01*
X47226194Y-36657504D01*
X47312015Y-36612041D01*
X47326573Y-36605494D01*
X72772243Y-27083192D01*
X72773263Y-27082817D01*
X72866334Y-27049179D01*
X73054152Y-26949239D01*
X73225994Y-26823805D01*
X73378424Y-26675385D01*
X73446989Y-26586526D01*
X75677318Y-26586526D01*
X75677318Y-26586528D01*
X75690153Y-26652555D01*
X78373789Y-40458667D01*
X78373790Y-40458670D01*
X78431560Y-40577117D01*
X78458777Y-40608425D01*
X78477810Y-40630320D01*
X78477811Y-40630322D01*
X78477812Y-40630322D01*
X78518019Y-40676575D01*
X78627273Y-40750268D01*
X78751877Y-40793173D01*
X78874748Y-40801764D01*
X78883340Y-40802365D01*
X78883340Y-40802364D01*
X78883341Y-40802365D01*
X78883341Y-40802364D01*
X78899627Y-40803504D01*
X78902321Y-40803692D01*
X78918239Y-40795581D01*
X92755483Y-38105894D01*
X92873930Y-38048124D01*
X92946876Y-37984712D01*
X92973389Y-37961665D01*
X93033644Y-37872333D01*
X93047082Y-37852411D01*
X93063778Y-37803922D01*
X93089987Y-37727806D01*
X93099179Y-37596343D01*
X93096318Y-37581622D01*
X91436532Y-29042763D01*
X91432880Y-29023975D01*
X96643500Y-29023975D01*
X96643500Y-29268028D01*
X96678197Y-29487099D01*
X96681679Y-29509078D01*
X96728661Y-29653674D01*
X96757097Y-29741189D01*
X96757178Y-29741347D01*
X96845110Y-29913925D01*
X96867896Y-29958644D01*
X97011339Y-30156078D01*
X97011343Y-30156083D01*
X97183918Y-30328658D01*
X97183923Y-30328662D01*
X97304589Y-30416330D01*
X97381361Y-30472108D01*
X97598815Y-30582906D01*
X97830924Y-30658323D01*
X98071973Y-30696502D01*
X98071974Y-30696502D01*
X98316026Y-30696502D01*
X98316027Y-30696502D01*
X98557076Y-30658323D01*
X98789185Y-30582906D01*
X99006639Y-30472108D01*
X99204083Y-30328657D01*
X99376655Y-30156085D01*
X99520106Y-29958641D01*
X99630904Y-29741187D01*
X99706321Y-29509078D01*
X99744500Y-29268029D01*
X99744500Y-29023975D01*
X99706321Y-28782926D01*
X99630904Y-28550817D01*
X99520106Y-28333363D01*
X99435889Y-28217448D01*
X99376660Y-28135925D01*
X99376656Y-28135920D01*
X99204081Y-27963345D01*
X99204076Y-27963341D01*
X99006642Y-27819898D01*
X99006641Y-27819897D01*
X99006639Y-27819896D01*
X98789185Y-27709098D01*
X98557076Y-27633681D01*
X98557074Y-27633680D01*
X98557072Y-27633680D01*
X98388769Y-27607023D01*
X98316027Y-27595502D01*
X98071973Y-27595502D01*
X98016093Y-27604352D01*
X97830927Y-27633680D01*
X97598812Y-27709099D01*
X97381357Y-27819898D01*
X97183923Y-27963341D01*
X97183918Y-27963345D01*
X97011343Y-28135920D01*
X97011339Y-28135925D01*
X96867896Y-28333359D01*
X96757097Y-28550814D01*
X96681678Y-28782929D01*
X96643500Y-29023975D01*
X91432880Y-29023975D01*
X91147004Y-27553272D01*
X105145537Y-27553272D01*
X105145537Y-41685055D01*
X105179645Y-41812351D01*
X105212591Y-41869414D01*
X105245537Y-41926478D01*
X105338723Y-42019664D01*
X105452851Y-42085556D01*
X105580145Y-42119664D01*
X105580147Y-42119664D01*
X119711927Y-42119664D01*
X119711929Y-42119664D01*
X119839223Y-42085556D01*
X119953351Y-42019664D01*
X120046537Y-41926478D01*
X120112429Y-41812350D01*
X120146537Y-41685056D01*
X120146537Y-30801975D01*
X126615500Y-30801975D01*
X126615500Y-30852278D01*
X126615500Y-31046029D01*
X126653679Y-31287078D01*
X126700661Y-31431674D01*
X126729097Y-31519189D01*
X126839896Y-31736644D01*
X126983339Y-31934078D01*
X126983343Y-31934083D01*
X127155918Y-32106658D01*
X127155923Y-32106662D01*
X127328136Y-32231781D01*
X127353361Y-32250108D01*
X127570815Y-32360906D01*
X127802924Y-32436323D01*
X128043973Y-32474502D01*
X128043974Y-32474502D01*
X128288026Y-32474502D01*
X128288027Y-32474502D01*
X128529076Y-32436323D01*
X128761185Y-32360906D01*
X128978639Y-32250108D01*
X129176083Y-32106657D01*
X129348655Y-31934085D01*
X129492106Y-31736641D01*
X129602904Y-31519187D01*
X129678321Y-31287078D01*
X129716500Y-31046029D01*
X129716500Y-30801975D01*
X129678321Y-30560926D01*
X129602904Y-30328817D01*
X129492106Y-30111363D01*
X129381150Y-29958644D01*
X129348660Y-29913925D01*
X129348656Y-29913920D01*
X129176081Y-29741345D01*
X129176076Y-29741341D01*
X128978642Y-29597898D01*
X128978641Y-29597897D01*
X128978639Y-29597896D01*
X128761185Y-29487098D01*
X128529076Y-29411681D01*
X128529074Y-29411680D01*
X128529072Y-29411680D01*
X128360769Y-29385023D01*
X128288027Y-29373502D01*
X128043973Y-29373502D01*
X127988093Y-29382352D01*
X127802927Y-29411680D01*
X127570812Y-29487099D01*
X127353357Y-29597898D01*
X127155923Y-29741341D01*
X127155918Y-29741345D01*
X126983343Y-29913920D01*
X126983339Y-29913925D01*
X126839896Y-30111359D01*
X126729097Y-30328814D01*
X126653678Y-30560929D01*
X126629479Y-30713717D01*
X126615500Y-30801975D01*
X120146537Y-30801975D01*
X120146537Y-27553272D01*
X120112429Y-27425978D01*
X120046537Y-27311850D01*
X119953351Y-27218664D01*
X119896287Y-27185718D01*
X119839224Y-27152772D01*
X119738113Y-27125680D01*
X119711929Y-27118664D01*
X105711929Y-27118664D01*
X105580145Y-27118664D01*
X105452849Y-27152772D01*
X105338723Y-27218664D01*
X105338720Y-27218666D01*
X105245539Y-27311847D01*
X105245537Y-27311850D01*
X105179645Y-27425976D01*
X105145537Y-27553272D01*
X91147004Y-27553272D01*
X90873104Y-26144179D01*
X90402708Y-23724201D01*
X90344937Y-23605754D01*
X90258479Y-23506295D01*
X90149225Y-23432602D01*
X90149223Y-23432601D01*
X90067652Y-23404514D01*
X90024621Y-23389697D01*
X90016028Y-23389096D01*
X89893157Y-23380504D01*
X89893154Y-23380505D01*
X89769648Y-23404510D01*
X89769639Y-23404514D01*
X89763795Y-23405650D01*
X89763793Y-23405650D01*
X84928675Y-24345502D01*
X76021017Y-26076975D01*
X75902568Y-26134747D01*
X75803109Y-26221204D01*
X75729415Y-26330460D01*
X75686511Y-26455063D01*
X75677318Y-26586526D01*
X73446989Y-26586526D01*
X73508394Y-26506947D01*
X73613304Y-26321860D01*
X73691056Y-26123824D01*
X73740096Y-25916801D01*
X73759443Y-25704931D01*
X73748710Y-25492450D01*
X73728790Y-25390331D01*
X73728345Y-25388041D01*
X73727348Y-25382914D01*
X73718796Y-25338924D01*
X73716922Y-25325264D01*
X73715797Y-25311353D01*
X73709647Y-25235336D01*
X73710489Y-25207809D01*
X73710744Y-25206026D01*
X73722263Y-25125374D01*
X73729160Y-25098716D01*
X73758844Y-25020912D01*
X73771455Y-24996436D01*
X73817584Y-24927103D01*
X73835293Y-24906010D01*
X73895584Y-24848577D01*
X73917509Y-24831914D01*
X73989005Y-24789201D01*
X74014059Y-24777796D01*
X74099322Y-24749926D01*
X74114215Y-24746063D01*
X91208693Y-21431314D01*
X91222449Y-21429440D01*
X91313064Y-21422234D01*
X91340806Y-21423145D01*
G37*
%TD.AperFunction*%
%TD*%
M02*
