%TF.GenerationSoftware,KiCad,Pcbnew,9.0.3*%
%TF.CreationDate,2025-08-09T00:32:57-04:00*%
%TF.ProjectId,darling,6461726c-696e-4672-9e6b-696361645f70,rev?*%
%TF.SameCoordinates,Original*%
%TF.FileFunction,Profile,NP*%
%FSLAX46Y46*%
G04 Gerber Fmt 4.6, Leading zero omitted, Abs format (unit mm)*
G04 Created by KiCad (PCBNEW 9.0.3) date 2025-08-09 00:32:57*
%MOMM*%
%LPD*%
G01*
G04 APERTURE LIST*
%TA.AperFunction,Profile*%
%ADD10C,0.050000*%
%TD*%
G04 APERTURE END LIST*
D10*
X166524000Y-85600000D02*
G75*
G02*
X163476000Y-85600000I-1524000J0D01*
G01*
X163476000Y-85600000D02*
G75*
G02*
X166524000Y-85600000I1524000J0D01*
G01*
X158984624Y-64100323D02*
G75*
G02*
X158600008Y-63312089I615376J788223D01*
G01*
X160645984Y-99382534D02*
G75*
G02*
X160941468Y-99463255I-112684J-993666D01*
G01*
X131285800Y-33800000D02*
G75*
G02*
X131996083Y-34096041I0J-1000100D01*
G01*
X102242710Y-32990807D02*
X101794229Y-30683549D01*
X158307100Y-38707100D02*
G75*
G02*
X158599990Y-39414214I-707100J-707100D01*
G01*
X53378175Y-102800263D02*
G75*
G02*
X52700821Y-102291765I205225J978763D01*
G01*
X134714200Y-36400000D02*
G75*
G02*
X134010079Y-36110121I0J1000100D01*
G01*
X139192000Y-39878000D02*
G75*
G02*
X136144000Y-39878000I-1524000J0D01*
G01*
X136144000Y-39878000D02*
G75*
G02*
X139192000Y-39878000I1524000J0D01*
G01*
X89154000Y-68326000D02*
G75*
G02*
X86106000Y-68326000I-1524000J0D01*
G01*
X86106000Y-68326000D02*
G75*
G02*
X89154000Y-68326000I1524000J0D01*
G01*
X59414237Y-103839778D02*
X75401699Y-95688154D01*
X57912000Y-66040000D02*
G75*
G02*
X54864000Y-66040000I-1524000J0D01*
G01*
X54864000Y-66040000D02*
G75*
G02*
X57912000Y-66040000I1524000J0D01*
G01*
X204322776Y-103481150D02*
G75*
G02*
X204489066Y-104880877I-621276J-783550D01*
G01*
X56000002Y-46028700D02*
G75*
G02*
X56641770Y-45095031I1000198J-100D01*
G01*
X82728151Y-34381522D02*
X82739045Y-34437564D01*
X100622249Y-29892640D02*
X83510445Y-33210749D01*
X186510246Y-89395446D02*
G75*
G02*
X186648907Y-89467548I-391746J-922754D01*
G01*
X75757880Y-95350596D02*
G75*
G02*
X75401700Y-95688156I-844980J534896D01*
G01*
X193868810Y-118456050D02*
X204489085Y-104880891D01*
X83281665Y-83465196D02*
G75*
G02*
X84126774Y-83000119I844835J-534804D01*
G01*
X204322776Y-103481150D02*
X186648906Y-89467549D01*
X186690000Y-95504000D02*
G75*
G02*
X183642000Y-95504000I-1524000J0D01*
G01*
X183642000Y-95504000D02*
G75*
G02*
X186690000Y-95504000I1524000J0D01*
G01*
X131285800Y-33800000D02*
X103224300Y-33800000D01*
X55482908Y-60855735D02*
X30077009Y-74866354D01*
X177901277Y-107080463D02*
X192467202Y-118629343D01*
X134714200Y-36400000D02*
X155585800Y-36400000D01*
X39611627Y-92979612D02*
X47164676Y-92721694D01*
X59414237Y-103839778D02*
G75*
G02*
X58754786Y-103927614I-454237J890878D01*
G01*
X47164676Y-92721694D02*
G75*
G02*
X48089234Y-93266134I34124J-999306D01*
G01*
X100622249Y-29892640D02*
G75*
G02*
X101794184Y-30683558I190351J-981660D01*
G01*
X142240000Y-81026000D02*
G75*
G02*
X139192000Y-81026000I-1524000J0D01*
G01*
X139192000Y-81026000D02*
G75*
G02*
X142240000Y-81026000I1524000J0D01*
G01*
X167512041Y-70699756D02*
X158984624Y-64100323D01*
X48089255Y-93266123D02*
X52700823Y-102291764D01*
X193868810Y-118456050D02*
G75*
G02*
X192467212Y-118629330I-787710J616350D01*
G01*
X135024204Y-83010500D02*
G75*
G02*
X135953888Y-83642657I-204J-1000000D01*
G01*
X168509508Y-81758668D02*
X186510246Y-89395446D01*
X82739045Y-34437564D02*
G75*
G02*
X82097602Y-35568845I-981745J-190836D01*
G01*
X167512041Y-70699756D02*
G75*
G02*
X167899961Y-71485309I-612141J-790844D01*
G01*
X168509508Y-81758668D02*
G75*
G02*
X167900004Y-80838000I390592J920668D01*
G01*
X131996062Y-34096062D02*
X134010100Y-36110100D01*
X53378175Y-102800263D02*
X58754785Y-103927617D01*
X112014000Y-68326000D02*
G75*
G02*
X108966000Y-68326000I-1524000J0D01*
G01*
X108966000Y-68326000D02*
G75*
G02*
X112014000Y-68326000I1524000J0D01*
G01*
X141992821Y-97267227D02*
X160645984Y-99382534D01*
X135953888Y-83642657D02*
X141179766Y-96651759D01*
X50038000Y-88392000D02*
G75*
G02*
X46990000Y-88392000I-1524000J0D01*
G01*
X46990000Y-88392000D02*
G75*
G02*
X50038000Y-88392000I1524000J0D01*
G01*
X135024204Y-83010500D02*
X84126774Y-83000112D01*
X155585800Y-36400000D02*
G75*
G02*
X156296083Y-36696041I0J-1000100D01*
G01*
X109220000Y-38100000D02*
G75*
G02*
X106172000Y-38100000I-1524000J0D01*
G01*
X106172000Y-38100000D02*
G75*
G02*
X109220000Y-38100000I1524000J0D01*
G01*
X82728151Y-34381522D02*
G75*
G02*
X83510429Y-33210672I981749J190822D01*
G01*
X156296062Y-36696062D02*
X158307100Y-38707100D01*
X103224300Y-33800000D02*
G75*
G02*
X102242753Y-32990799I0J999900D01*
G01*
X29685639Y-76227451D02*
G75*
G02*
X30077015Y-74866364I874161J485451D01*
G01*
X39611627Y-92979612D02*
G75*
G02*
X38705653Y-92469968I-34127J999412D01*
G01*
X65024000Y-74168000D02*
G75*
G02*
X61976000Y-74168000I-1524000J0D01*
G01*
X61976000Y-74168000D02*
G75*
G02*
X65024000Y-74168000I1524000J0D01*
G01*
X75757880Y-95350596D02*
X83281665Y-83465196D01*
X56000000Y-59980100D02*
G75*
G02*
X55482898Y-60855717I-999900J0D01*
G01*
X163576000Y-74676000D02*
G75*
G02*
X160528000Y-74676000I-1524000J0D01*
G01*
X160528000Y-74676000D02*
G75*
G02*
X163576000Y-74676000I1524000J0D01*
G01*
X81788000Y-42418000D02*
G75*
G02*
X78740000Y-42418000I-1524000J0D01*
G01*
X78740000Y-42418000D02*
G75*
G02*
X81788000Y-42418000I1524000J0D01*
G01*
X29685639Y-76227451D02*
X38705655Y-92469967D01*
X82097618Y-35568890D02*
X56641759Y-45095004D01*
X158600000Y-39414214D02*
X158600000Y-63312089D01*
X141992821Y-97267227D02*
G75*
G02*
X141179707Y-96651783I112679J993727D01*
G01*
X56000002Y-46028700D02*
X56000000Y-59980100D01*
X177684817Y-106948506D02*
G75*
G02*
X177901269Y-107080472I-408117J-912894D01*
G01*
X167900000Y-80838000D02*
X167900000Y-71485309D01*
X160941472Y-99463246D02*
X177684817Y-106948506D01*
M02*
