M48
; DRILL file {KiCad 9.0.3} date 2025-08-09T00:33:01-0400
; FORMAT={-:-/ absolute / metric / decimal}
; #@! TF.CreationDate,2025-08-09T00:33:01-04:00
; #@! TF.GenerationSoftware,Kicad,Pcbnew,9.0.3
; #@! TF.FileFunction,Plated,1,2,PTH
FMAT,2
METRIC
; #@! TA.AperFunction,Plated,PTH,ViaDrill
T1C0.300
; #@! TA.AperFunction,Plated,PTH,ComponentDrill
T2C0.400
; #@! TA.AperFunction,Plated,PTH,ComponentDrill
T3C1.100
%
G90
G05
T1
X51.308Y-78.232
X74.168Y-52.324
X78.74Y-55.88
X114.3Y-45.212
X114.3Y-54.356
X146.304Y-78.232
X164.084Y-76.708
X164.084Y-81.788
T2
X39.627Y-72.097
X58.522Y-83.698
X66.447Y-43.698
X73.137Y-61.727
X92.49Y-33.474
X96.159Y-52.35
X122.198Y-35.873
X122.198Y-54.798
X145.676Y-44.8
X145.68Y-47.343
X145.68Y-49.883
X145.68Y-52.423
X145.68Y-54.963
X145.68Y-57.503
X145.68Y-60.043
X145.68Y-62.583
X145.68Y-65.123
X145.68Y-67.663
X145.68Y-70.203
X145.68Y-72.743
X145.68Y-75.283
X147.2Y-44.8
X147.204Y-47.343
X147.204Y-49.883
X147.204Y-52.423
X147.204Y-54.963
X147.204Y-57.503
X147.204Y-60.043
X147.204Y-62.583
X147.204Y-65.123
X147.204Y-67.663
X147.204Y-70.203
X147.204Y-72.743
X147.204Y-75.283
X153.671Y-81.096
X176.321Y-87.297
X196.341Y-99.757
T3
X138.818Y-44.8
X138.822Y-47.343
X138.822Y-49.883
X138.822Y-52.423
X138.822Y-54.963
X138.822Y-57.503
X138.822Y-60.043
X138.822Y-62.583
X138.822Y-65.123
X138.822Y-67.663
X138.822Y-70.203
X138.822Y-72.743
X138.822Y-75.283
X154.058Y-44.8
X154.062Y-47.343
X154.062Y-49.883
X154.062Y-52.423
X154.062Y-54.963
X154.062Y-57.503
X154.062Y-60.043
X154.062Y-62.583
X154.062Y-65.123
X154.062Y-67.663
X154.062Y-70.203
X154.062Y-72.743
X154.062Y-75.283
M30
