%TF.GenerationSoftware,KiCad,Pcbnew,9.0.3*%
%TF.CreationDate,2025-08-09T00:32:57-04:00*%
%TF.ProjectId,darling,6461726c-696e-4672-9e6b-696361645f70,rev?*%
%TF.SameCoordinates,Original*%
%TF.FileFunction,Soldermask,Bot*%
%TF.FilePolarity,Negative*%
%FSLAX46Y46*%
G04 Gerber Fmt 4.6, Leading zero omitted, Abs format (unit mm)*
G04 Created by KiCad (PCBNEW 9.0.3) date 2025-08-09 00:32:57*
%MOMM*%
%LPD*%
G01*
G04 APERTURE LIST*
G04 Aperture macros list*
%AMHorizOval*
0 Thick line with rounded ends*
0 $1 width*
0 $2 $3 position (X,Y) of the first rounded end (center of the circle)*
0 $4 $5 position (X,Y) of the second rounded end (center of the circle)*
0 Add line between two ends*
20,1,$1,$2,$3,$4,$5,0*
0 Add two circle primitives to create the rounded ends*
1,1,$1,$2,$3*
1,1,$1,$4,$5*%
%AMRotRect*
0 Rectangle, with rotation*
0 The origin of the aperture is its center*
0 $1 length*
0 $2 width*
0 $3 Rotation angle, in degrees counterclockwise*
0 Add horizontal line*
21,1,$1,$2,0,0,$3*%
%AMFreePoly0*
4,1,6,1.275000,-1.849998,-0.670000,-1.850002,-1.275000,-0.649998,-1.275000,0.649998,1.275000,0.649998,1.275000,-1.849998,1.275000,-1.849998,$1*%
%AMFreePoly1*
4,1,6,0.600000,-0.250000,-0.600000,-0.250000,-0.600000,1.000000,0.000000,0.400000,0.600000,1.000000,0.600000,-0.250000,0.600000,-0.250000,$1*%
%AMFreePoly2*
4,1,6,0.600000,0.200000,0.000000,-0.400000,-0.600000,0.200000,-0.600000,0.400000,0.600000,0.400000,0.600000,0.200000,0.600000,0.200000,$1*%
G04 Aperture macros list end*
%ADD10C,0.100000*%
%ADD11C,0.250000*%
%ADD12C,1.701800*%
%ADD13HorizOval,3.000000X-0.258819X-0.965926X0.258819X0.965926X0*%
%ADD14C,3.987800*%
%ADD15HorizOval,3.000000X-0.601815X0.798636X0.601815X-0.798636X0*%
%ADD16FreePoly0,11.000000*%
%ADD17RotRect,2.550000X2.500000X11.000000*%
%ADD18HorizOval,3.000000X-0.098278X-0.995159X0.098278X0.995159X0*%
%ADD19HorizOval,3.000000X-0.723690X0.690125X0.723690X-0.690125X0*%
%ADD20FreePoly0,20.360000*%
%ADD21RotRect,2.550000X2.500000X20.360000*%
%ADD22HorizOval,3.000000X-0.438371X-0.898794X0.438371X0.898794X0*%
%ADD23HorizOval,3.000000X-0.438371X0.898794X0.438371X-0.898794X0*%
%ADD24FreePoly0,0.000000*%
%ADD25R,2.550000X2.500000*%
%ADD26HorizOval,3.000000X-0.544639X-0.838671X0.544639X0.838671X0*%
%ADD27HorizOval,3.000000X-0.325568X0.945519X0.325568X-0.945519X0*%
%ADD28FreePoly0,353.000000*%
%ADD29RotRect,2.550000X2.500000X353.000000*%
%ADD30HorizOval,3.000000X-0.906308X-0.422618X0.906308X0.422618X0*%
%ADD31HorizOval,3.000000X0.224951X0.974370X-0.224951X-0.974370X0*%
%ADD32FreePoly0,321.000000*%
%ADD33RotRect,2.550000X2.500000X321.000000*%
%ADD34HorizOval,3.000000X0.052336X-0.998630X-0.052336X0.998630X0*%
%ADD35HorizOval,3.000000X-0.819152X0.573576X0.819152X-0.573576X0*%
%ADD36FreePoly0,29.000000*%
%ADD37RotRect,2.550000X2.500000X29.000000*%
%ADD38HorizOval,3.000000X-0.754710X-0.656059X0.754710X0.656059X0*%
%ADD39HorizOval,3.000000X-0.052336X0.998630X0.052336X-0.998630X0*%
%ADD40FreePoly0,337.000000*%
%ADD41RotRect,2.550000X2.500000X337.000000*%
%ADD42HorizOval,3.000000X0.017452X-0.999848X-0.017452X0.999848X0*%
%ADD43HorizOval,3.000000X-0.798636X0.601815X0.798636X-0.601815X0*%
%ADD44FreePoly0,27.000000*%
%ADD45RotRect,2.550000X2.500000X27.000000*%
%ADD46FreePoly1,270.000000*%
%ADD47FreePoly1,90.000000*%
%ADD48C,1.600000*%
%ADD49FreePoly2,90.000000*%
%ADD50FreePoly2,270.000000*%
G04 APERTURE END LIST*
%TO.C,ctl1*%
D10*
X140340000Y-44288000D02*
X141356000Y-44288000D01*
X141356000Y-45304000D01*
X140340000Y-45304000D01*
X140340000Y-44288000D01*
G36*
X140340000Y-44288000D02*
G01*
X141356000Y-44288000D01*
X141356000Y-45304000D01*
X140340000Y-45304000D01*
X140340000Y-44288000D01*
G37*
X140344000Y-46831000D02*
X141360000Y-46831000D01*
X141360000Y-47847000D01*
X140344000Y-47847000D01*
X140344000Y-46831000D01*
G36*
X140344000Y-46831000D02*
G01*
X141360000Y-46831000D01*
X141360000Y-47847000D01*
X140344000Y-47847000D01*
X140344000Y-46831000D01*
G37*
X140344000Y-49371000D02*
X141360000Y-49371000D01*
X141360000Y-50387000D01*
X140344000Y-50387000D01*
X140344000Y-49371000D01*
G36*
X140344000Y-49371000D02*
G01*
X141360000Y-49371000D01*
X141360000Y-50387000D01*
X140344000Y-50387000D01*
X140344000Y-49371000D01*
G37*
X140344000Y-51911000D02*
X141360000Y-51911000D01*
X141360000Y-52927000D01*
X140344000Y-52927000D01*
X140344000Y-51911000D01*
G36*
X140344000Y-51911000D02*
G01*
X141360000Y-51911000D01*
X141360000Y-52927000D01*
X140344000Y-52927000D01*
X140344000Y-51911000D01*
G37*
X140344000Y-54451000D02*
X141360000Y-54451000D01*
X141360000Y-55467000D01*
X140344000Y-55467000D01*
X140344000Y-54451000D01*
G36*
X140344000Y-54451000D02*
G01*
X141360000Y-54451000D01*
X141360000Y-55467000D01*
X140344000Y-55467000D01*
X140344000Y-54451000D01*
G37*
X140344000Y-56991000D02*
X141360000Y-56991000D01*
X141360000Y-58007000D01*
X140344000Y-58007000D01*
X140344000Y-56991000D01*
G36*
X140344000Y-56991000D02*
G01*
X141360000Y-56991000D01*
X141360000Y-58007000D01*
X140344000Y-58007000D01*
X140344000Y-56991000D01*
G37*
X140344000Y-59531000D02*
X141360000Y-59531000D01*
X141360000Y-60547000D01*
X140344000Y-60547000D01*
X140344000Y-59531000D01*
G36*
X140344000Y-59531000D02*
G01*
X141360000Y-59531000D01*
X141360000Y-60547000D01*
X140344000Y-60547000D01*
X140344000Y-59531000D01*
G37*
X140344000Y-62071000D02*
X141360000Y-62071000D01*
X141360000Y-63087000D01*
X140344000Y-63087000D01*
X140344000Y-62071000D01*
G36*
X140344000Y-62071000D02*
G01*
X141360000Y-62071000D01*
X141360000Y-63087000D01*
X140344000Y-63087000D01*
X140344000Y-62071000D01*
G37*
X140344000Y-64611000D02*
X141360000Y-64611000D01*
X141360000Y-65627000D01*
X140344000Y-65627000D01*
X140344000Y-64611000D01*
G36*
X140344000Y-64611000D02*
G01*
X141360000Y-64611000D01*
X141360000Y-65627000D01*
X140344000Y-65627000D01*
X140344000Y-64611000D01*
G37*
X140344000Y-67151000D02*
X141360000Y-67151000D01*
X141360000Y-68167000D01*
X140344000Y-68167000D01*
X140344000Y-67151000D01*
G36*
X140344000Y-67151000D02*
G01*
X141360000Y-67151000D01*
X141360000Y-68167000D01*
X140344000Y-68167000D01*
X140344000Y-67151000D01*
G37*
X140344000Y-69691000D02*
X141360000Y-69691000D01*
X141360000Y-70707000D01*
X140344000Y-70707000D01*
X140344000Y-69691000D01*
G36*
X140344000Y-69691000D02*
G01*
X141360000Y-69691000D01*
X141360000Y-70707000D01*
X140344000Y-70707000D01*
X140344000Y-69691000D01*
G37*
X140344000Y-72231000D02*
X141360000Y-72231000D01*
X141360000Y-73247000D01*
X140344000Y-73247000D01*
X140344000Y-72231000D01*
G36*
X140344000Y-72231000D02*
G01*
X141360000Y-72231000D01*
X141360000Y-73247000D01*
X140344000Y-73247000D01*
X140344000Y-72231000D01*
G37*
X140344000Y-74771000D02*
X141360000Y-74771000D01*
X141360000Y-75787000D01*
X140344000Y-75787000D01*
X140344000Y-74771000D01*
G36*
X140344000Y-74771000D02*
G01*
X141360000Y-74771000D01*
X141360000Y-75787000D01*
X140344000Y-75787000D01*
X140344000Y-74771000D01*
G37*
X151516000Y-44288000D02*
X152532000Y-44288000D01*
X152532000Y-45304000D01*
X151516000Y-45304000D01*
X151516000Y-44288000D01*
G36*
X151516000Y-44288000D02*
G01*
X152532000Y-44288000D01*
X152532000Y-45304000D01*
X151516000Y-45304000D01*
X151516000Y-44288000D01*
G37*
X151520000Y-46831000D02*
X152536000Y-46831000D01*
X152536000Y-47847000D01*
X151520000Y-47847000D01*
X151520000Y-46831000D01*
G36*
X151520000Y-46831000D02*
G01*
X152536000Y-46831000D01*
X152536000Y-47847000D01*
X151520000Y-47847000D01*
X151520000Y-46831000D01*
G37*
X151520000Y-49371000D02*
X152536000Y-49371000D01*
X152536000Y-50387000D01*
X151520000Y-50387000D01*
X151520000Y-49371000D01*
G36*
X151520000Y-49371000D02*
G01*
X152536000Y-49371000D01*
X152536000Y-50387000D01*
X151520000Y-50387000D01*
X151520000Y-49371000D01*
G37*
X151520000Y-51911000D02*
X152536000Y-51911000D01*
X152536000Y-52927000D01*
X151520000Y-52927000D01*
X151520000Y-51911000D01*
G36*
X151520000Y-51911000D02*
G01*
X152536000Y-51911000D01*
X152536000Y-52927000D01*
X151520000Y-52927000D01*
X151520000Y-51911000D01*
G37*
X151520000Y-54451000D02*
X152536000Y-54451000D01*
X152536000Y-55467000D01*
X151520000Y-55467000D01*
X151520000Y-54451000D01*
G36*
X151520000Y-54451000D02*
G01*
X152536000Y-54451000D01*
X152536000Y-55467000D01*
X151520000Y-55467000D01*
X151520000Y-54451000D01*
G37*
X151520000Y-56991000D02*
X152536000Y-56991000D01*
X152536000Y-58007000D01*
X151520000Y-58007000D01*
X151520000Y-56991000D01*
G36*
X151520000Y-56991000D02*
G01*
X152536000Y-56991000D01*
X152536000Y-58007000D01*
X151520000Y-58007000D01*
X151520000Y-56991000D01*
G37*
X151520000Y-59531000D02*
X152536000Y-59531000D01*
X152536000Y-60547000D01*
X151520000Y-60547000D01*
X151520000Y-59531000D01*
G36*
X151520000Y-59531000D02*
G01*
X152536000Y-59531000D01*
X152536000Y-60547000D01*
X151520000Y-60547000D01*
X151520000Y-59531000D01*
G37*
X151520000Y-62071000D02*
X152536000Y-62071000D01*
X152536000Y-63087000D01*
X151520000Y-63087000D01*
X151520000Y-62071000D01*
G36*
X151520000Y-62071000D02*
G01*
X152536000Y-62071000D01*
X152536000Y-63087000D01*
X151520000Y-63087000D01*
X151520000Y-62071000D01*
G37*
X151520000Y-64611000D02*
X152536000Y-64611000D01*
X152536000Y-65627000D01*
X151520000Y-65627000D01*
X151520000Y-64611000D01*
G36*
X151520000Y-64611000D02*
G01*
X152536000Y-64611000D01*
X152536000Y-65627000D01*
X151520000Y-65627000D01*
X151520000Y-64611000D01*
G37*
X151520000Y-67151000D02*
X152536000Y-67151000D01*
X152536000Y-68167000D01*
X151520000Y-68167000D01*
X151520000Y-67151000D01*
G36*
X151520000Y-67151000D02*
G01*
X152536000Y-67151000D01*
X152536000Y-68167000D01*
X151520000Y-68167000D01*
X151520000Y-67151000D01*
G37*
X151520000Y-69691000D02*
X152536000Y-69691000D01*
X152536000Y-70707000D01*
X151520000Y-70707000D01*
X151520000Y-69691000D01*
G36*
X151520000Y-69691000D02*
G01*
X152536000Y-69691000D01*
X152536000Y-70707000D01*
X151520000Y-70707000D01*
X151520000Y-69691000D01*
G37*
X151520000Y-72231000D02*
X152536000Y-72231000D01*
X152536000Y-73247000D01*
X151520000Y-73247000D01*
X151520000Y-72231000D01*
G36*
X151520000Y-72231000D02*
G01*
X152536000Y-72231000D01*
X152536000Y-73247000D01*
X151520000Y-73247000D01*
X151520000Y-72231000D01*
G37*
X151520000Y-74771000D02*
X152536000Y-74771000D01*
X152536000Y-75787000D01*
X151520000Y-75787000D01*
X151520000Y-74771000D01*
G36*
X151520000Y-74771000D02*
G01*
X152536000Y-74771000D01*
X152536000Y-75787000D01*
X151520000Y-75787000D01*
X151520000Y-74771000D01*
G37*
D11*
X145799000Y-44796000D02*
G75*
G02*
X145549000Y-44796000I-125000J0D01*
G01*
X145549000Y-44796000D02*
G75*
G02*
X145799000Y-44796000I125000J0D01*
G01*
X145803000Y-47339000D02*
G75*
G02*
X145553000Y-47339000I-125000J0D01*
G01*
X145553000Y-47339000D02*
G75*
G02*
X145803000Y-47339000I125000J0D01*
G01*
X145803000Y-49879000D02*
G75*
G02*
X145553000Y-49879000I-125000J0D01*
G01*
X145553000Y-49879000D02*
G75*
G02*
X145803000Y-49879000I125000J0D01*
G01*
X145803000Y-52419000D02*
G75*
G02*
X145553000Y-52419000I-125000J0D01*
G01*
X145553000Y-52419000D02*
G75*
G02*
X145803000Y-52419000I125000J0D01*
G01*
X145803000Y-54959000D02*
G75*
G02*
X145553000Y-54959000I-125000J0D01*
G01*
X145553000Y-54959000D02*
G75*
G02*
X145803000Y-54959000I125000J0D01*
G01*
X145803000Y-57499000D02*
G75*
G02*
X145553000Y-57499000I-125000J0D01*
G01*
X145553000Y-57499000D02*
G75*
G02*
X145803000Y-57499000I125000J0D01*
G01*
X145803000Y-60039000D02*
G75*
G02*
X145553000Y-60039000I-125000J0D01*
G01*
X145553000Y-60039000D02*
G75*
G02*
X145803000Y-60039000I125000J0D01*
G01*
X145803000Y-62579000D02*
G75*
G02*
X145553000Y-62579000I-125000J0D01*
G01*
X145553000Y-62579000D02*
G75*
G02*
X145803000Y-62579000I125000J0D01*
G01*
X145803000Y-65119000D02*
G75*
G02*
X145553000Y-65119000I-125000J0D01*
G01*
X145553000Y-65119000D02*
G75*
G02*
X145803000Y-65119000I125000J0D01*
G01*
X145803000Y-67659000D02*
G75*
G02*
X145553000Y-67659000I-125000J0D01*
G01*
X145553000Y-67659000D02*
G75*
G02*
X145803000Y-67659000I125000J0D01*
G01*
X145803000Y-70199000D02*
G75*
G02*
X145553000Y-70199000I-125000J0D01*
G01*
X145553000Y-70199000D02*
G75*
G02*
X145803000Y-70199000I125000J0D01*
G01*
X145803000Y-72739000D02*
G75*
G02*
X145553000Y-72739000I-125000J0D01*
G01*
X145553000Y-72739000D02*
G75*
G02*
X145803000Y-72739000I125000J0D01*
G01*
X145803000Y-75279000D02*
G75*
G02*
X145553000Y-75279000I-125000J0D01*
G01*
X145553000Y-75279000D02*
G75*
G02*
X145803000Y-75279000I125000J0D01*
G01*
X147323000Y-44796000D02*
G75*
G02*
X147073000Y-44796000I-125000J0D01*
G01*
X147073000Y-44796000D02*
G75*
G02*
X147323000Y-44796000I125000J0D01*
G01*
X147327000Y-47339000D02*
G75*
G02*
X147077000Y-47339000I-125000J0D01*
G01*
X147077000Y-47339000D02*
G75*
G02*
X147327000Y-47339000I125000J0D01*
G01*
X147327000Y-49879000D02*
G75*
G02*
X147077000Y-49879000I-125000J0D01*
G01*
X147077000Y-49879000D02*
G75*
G02*
X147327000Y-49879000I125000J0D01*
G01*
X147327000Y-52419000D02*
G75*
G02*
X147077000Y-52419000I-125000J0D01*
G01*
X147077000Y-52419000D02*
G75*
G02*
X147327000Y-52419000I125000J0D01*
G01*
X147327000Y-54959000D02*
G75*
G02*
X147077000Y-54959000I-125000J0D01*
G01*
X147077000Y-54959000D02*
G75*
G02*
X147327000Y-54959000I125000J0D01*
G01*
X147327000Y-57499000D02*
G75*
G02*
X147077000Y-57499000I-125000J0D01*
G01*
X147077000Y-57499000D02*
G75*
G02*
X147327000Y-57499000I125000J0D01*
G01*
X147327000Y-60039000D02*
G75*
G02*
X147077000Y-60039000I-125000J0D01*
G01*
X147077000Y-60039000D02*
G75*
G02*
X147327000Y-60039000I125000J0D01*
G01*
X147327000Y-62579000D02*
G75*
G02*
X147077000Y-62579000I-125000J0D01*
G01*
X147077000Y-62579000D02*
G75*
G02*
X147327000Y-62579000I125000J0D01*
G01*
X147327000Y-65119000D02*
G75*
G02*
X147077000Y-65119000I-125000J0D01*
G01*
X147077000Y-65119000D02*
G75*
G02*
X147327000Y-65119000I125000J0D01*
G01*
X147327000Y-67659000D02*
G75*
G02*
X147077000Y-67659000I-125000J0D01*
G01*
X147077000Y-67659000D02*
G75*
G02*
X147327000Y-67659000I125000J0D01*
G01*
X147327000Y-70199000D02*
G75*
G02*
X147077000Y-70199000I-125000J0D01*
G01*
X147077000Y-70199000D02*
G75*
G02*
X147327000Y-70199000I125000J0D01*
G01*
X147327000Y-72739000D02*
G75*
G02*
X147077000Y-72739000I-125000J0D01*
G01*
X147077000Y-72739000D02*
G75*
G02*
X147327000Y-72739000I125000J0D01*
G01*
X147327000Y-75279000D02*
G75*
G02*
X147077000Y-75279000I-125000J0D01*
G01*
X147077000Y-75279000D02*
G75*
G02*
X147327000Y-75279000I125000J0D01*
G01*
%TD*%
D12*
%TO.C,sw3*%
X88903581Y-42014743D03*
D13*
X90043601Y-37922023D03*
D14*
X93958964Y-41032077D03*
D15*
X96276934Y-36710386D03*
D12*
X98876916Y-40076123D03*
D16*
X98957441Y-34253787D03*
D17*
X85984493Y-39994616D03*
%TD*%
D12*
%TO.C,sw5*%
X64297274Y-52708719D03*
D18*
X64756485Y-48485081D03*
D14*
X69125529Y-50916944D03*
D19*
X70709769Y-46275804D03*
D12*
X73822529Y-49173876D03*
D20*
X72955053Y-43415960D03*
D21*
X61088501Y-51190241D03*
%TD*%
D12*
%TO.C,sw2*%
X117048037Y-62498161D03*
D22*
X118948037Y-58698162D03*
D14*
X122198037Y-62498162D03*
D23*
X125298037Y-58698162D03*
D12*
X127208037Y-62498161D03*
D24*
X128398037Y-56798160D03*
D25*
X114568037Y-59958161D03*
%TD*%
D12*
%TO.C,sw9*%
X147620652Y-88110613D03*
D26*
X149969593Y-84570490D03*
D14*
X152732264Y-88738241D03*
D27*
X156272261Y-85344361D03*
D12*
X157704921Y-89348806D03*
D28*
X159580706Y-83836316D03*
D29*
X145468685Y-85287310D03*
%TD*%
D12*
%TO.C,sw11*%
X187493235Y-102500001D03*
D30*
X191361229Y-100742556D03*
D14*
X191495536Y-105741002D03*
D31*
X196296106Y-104738740D03*
D12*
X195389038Y-108893896D03*
D32*
X199900969Y-105213055D03*
D33*
X187164387Y-98965336D03*
%TD*%
D12*
%TO.C,sw7*%
X38856045Y-81328129D03*
D34*
X38675547Y-77083437D03*
D14*
X43360337Y-78831361D03*
D35*
X44229382Y-74004896D03*
D12*
X47742182Y-76402463D03*
D36*
X46019564Y-70840207D03*
D37*
X35455572Y-80308923D03*
%TD*%
D12*
%TO.C,sw10*%
X168571711Y-92372807D03*
D38*
X171805448Y-89617279D03*
D14*
X173312311Y-94385073D03*
D39*
X177650654Y-92098421D03*
D12*
X177924040Y-96342635D03*
D40*
X181246609Y-91560727D03*
D41*
X167281316Y-89065712D03*
%TD*%
D12*
%TO.C,sw8*%
X57429539Y-92896886D03*
D42*
X57397288Y-88648480D03*
D14*
X62018223Y-90558836D03*
D43*
X63055179Y-85765641D03*
D12*
X66482165Y-88284343D03*
D44*
X64954716Y-82665356D03*
D45*
X54066707Y-91759626D03*
%TD*%
D46*
%TO.C,ctl1*%
X151268000Y-62583000D03*
D47*
X141616000Y-47343000D03*
X141616000Y-49883000D03*
D46*
X151268000Y-75283000D03*
X151268000Y-72743000D03*
D47*
X141616000Y-70203000D03*
X141616000Y-57503000D03*
X141616000Y-60043000D03*
X141616000Y-62583000D03*
X141616000Y-65123000D03*
D46*
X151268000Y-60043000D03*
X151268000Y-57503000D03*
D47*
X141616000Y-67663000D03*
X141616000Y-72743000D03*
X141616000Y-75283000D03*
D46*
X151268000Y-70203000D03*
X151268000Y-67663000D03*
X151268000Y-65123000D03*
X151264000Y-44800000D03*
D47*
X141612000Y-44800000D03*
D48*
X138818000Y-44800000D03*
X138822000Y-47343000D03*
X138822000Y-49883000D03*
X138822000Y-52423000D03*
X138822000Y-54963000D03*
X138822000Y-57503000D03*
X138822000Y-60043000D03*
X138822000Y-62583000D03*
X138822000Y-65123000D03*
X138822000Y-67663000D03*
X138822000Y-70203000D03*
X138822000Y-72743000D03*
X138822000Y-75283000D03*
D49*
X140504000Y-44800000D03*
X140508000Y-47343000D03*
X140508000Y-49883000D03*
X140508000Y-52423000D03*
X140508000Y-54963000D03*
X140508000Y-57503000D03*
X140508000Y-60043000D03*
X140508000Y-62583000D03*
X140508000Y-65123000D03*
X140508000Y-67663000D03*
X140508000Y-70203000D03*
X140508000Y-72743000D03*
X140508000Y-75283000D03*
D50*
X152372000Y-44800000D03*
X152376000Y-47343000D03*
X152376000Y-49883000D03*
X152376000Y-52423000D03*
X152376000Y-54963000D03*
X152376000Y-57503000D03*
X152376000Y-60043000D03*
X152376000Y-62583000D03*
X152376000Y-65123000D03*
X152376000Y-67663000D03*
X152376000Y-70203000D03*
X152376000Y-72743000D03*
X152376000Y-75283000D03*
D48*
X154058000Y-44800000D03*
X154062000Y-47343000D03*
X154062000Y-49883000D03*
X154062000Y-52423000D03*
X154062000Y-54963000D03*
X154062000Y-57503000D03*
X154062000Y-60043000D03*
X154062000Y-62583000D03*
X154062000Y-65123000D03*
X154062000Y-67663000D03*
X154062000Y-70203000D03*
X154062000Y-72743000D03*
X154062000Y-75283000D03*
D47*
X141616000Y-52423000D03*
X141616000Y-54963000D03*
D46*
X151268000Y-49883000D03*
X151268000Y-47343000D03*
X151268000Y-52423000D03*
X151268000Y-54963000D03*
%TD*%
D12*
%TO.C,sw1*%
X117048037Y-43573161D03*
D22*
X118948037Y-39773162D03*
D14*
X122198037Y-43573162D03*
D23*
X125298037Y-39773162D03*
D12*
X127208037Y-43573161D03*
D24*
X128398037Y-37873160D03*
D25*
X114568037Y-41033161D03*
%TD*%
D12*
%TO.C,sw4*%
X92572838Y-60891433D03*
D13*
X93712858Y-56798713D03*
D14*
X97628221Y-59908767D03*
D15*
X99946191Y-55587076D03*
D12*
X102546173Y-58952813D03*
D16*
X102626698Y-53130477D03*
D17*
X89653750Y-58871306D03*
%TD*%
D12*
%TO.C,sw6*%
X70987730Y-70737328D03*
D18*
X71446941Y-66513690D03*
D14*
X75815985Y-68945553D03*
D19*
X77400225Y-64304413D03*
D12*
X80512985Y-67202485D03*
D20*
X79645509Y-61444569D03*
D21*
X67778957Y-69218850D03*
%TD*%
M02*
