M48
; DRILL file {KiCad 9.0.3} date 2025-08-09T00:33:01-0400
; FORMAT={-:-/ absolute / metric / decimal}
; #@! TF.CreationDate,2025-08-09T00:33:01-04:00
; #@! TF.GenerationSoftware,Kicad,Pcbnew,9.0.3
; #@! TF.FileFunction,NonPlated,1,2,NPTH
FMAT,2
METRIC
; #@! TA.AperFunction,NonPlated,NPTH,ComponentDrill
T1C1.702
; #@! TA.AperFunction,NonPlated,NPTH,ComponentDrill
T2C3.000
; #@! TA.AperFunction,NonPlated,NPTH,ComponentDrill
T3C3.988
%
G90
G05
T1
X38.856Y-81.328
X47.742Y-76.402
X57.43Y-92.897
X64.297Y-52.709
X66.482Y-88.284
X70.988Y-70.737
X73.823Y-49.174
X80.513Y-67.202
X88.904Y-42.015
X92.573Y-60.891
X98.877Y-40.076
X102.546Y-58.953
X117.048Y-43.573
X117.048Y-62.498
X127.208Y-43.573
X127.208Y-62.498
X147.621Y-88.111
X157.705Y-89.349
X168.572Y-92.373
X177.924Y-96.343
X187.493Y-102.5
X195.389Y-108.894
T3
X43.36Y-78.831
X62.018Y-90.559
X69.126Y-50.917
X75.816Y-68.946
X93.959Y-41.032
X97.628Y-59.909
X122.198Y-43.573
X122.198Y-62.498
X152.732Y-88.738
X173.312Y-94.385
X191.496Y-105.741
T2
G00X38.602Y-75.685
M15
G01X38.749Y-78.482
M16
G05
G00X45.376Y-74.808
M15
G01X43.083Y-73.202
M16
G05
G00X57.373Y-87.249
M15
G01X57.422Y-90.048
M16
G05
G00X64.173Y-86.608
M15
G01X61.937Y-84.923
M16
G05
G00X64.894Y-47.092
M15
G01X64.619Y-49.878
M16
G05
G00X71.723Y-47.242
M15
G01X69.697Y-45.31
M16
G05
G00X71.585Y-65.12
M15
G01X71.309Y-67.907
M16
G05
G00X78.413Y-65.271
M15
G01X76.387Y-63.338
M16
G05
G00X90.406Y-36.57
M15
G01X89.681Y-39.274
M16
G05
G00X94.075Y-55.446
M15
G01X93.351Y-58.151
M16
G05
G00X97.119Y-37.828
M15
G01X95.434Y-35.592
M16
G05
G00X100.789Y-56.705
M15
G01X99.104Y-54.469
M16
G05
G00X119.562Y-38.515
M15
G01X118.334Y-41.031
M16
G05
G00X119.562Y-57.44
M15
G01X118.334Y-59.956
M16
G05
G00X125.912Y-41.031
M15
G01X124.684Y-38.515
M16
G05
G00X125.912Y-59.956
M15
G01X124.684Y-57.44
M16
G05
G00X150.732Y-83.396
M15
G01X149.207Y-85.745
M16
G05
G00X156.728Y-86.668
M15
G01X155.816Y-84.021
M16
G05
G00X172.862Y-88.699
M15
G01X170.749Y-90.536
M16
G05
G00X177.724Y-93.497
M15
G01X177.577Y-90.7
M16
G05
G00X192.63Y-100.151
M15
G01X190.092Y-101.334
M16
G05
G00X195.981Y-106.103
M15
G01X196.611Y-103.375
M16
G05
M30
