%TF.GenerationSoftware,KiCad,Pcbnew,9.0.3*%
%TF.CreationDate,2025-08-09T00:32:57-04:00*%
%TF.ProjectId,darling,6461726c-696e-4672-9e6b-696361645f70,rev?*%
%TF.SameCoordinates,Original*%
%TF.FileFunction,Legend,Top*%
%TF.FilePolarity,Positive*%
%FSLAX46Y46*%
G04 Gerber Fmt 4.6, Leading zero omitted, Abs format (unit mm)*
G04 Created by KiCad (PCBNEW 9.0.3) date 2025-08-09 00:32:57*
%MOMM*%
%LPD*%
G01*
G04 APERTURE LIST*
%ADD10C,0.100000*%
%ADD11C,0.150000*%
G04 APERTURE END LIST*
D10*
G36*
X94647218Y-49572666D02*
G01*
X94622914Y-49447633D01*
X94998851Y-49374559D01*
X95023155Y-49499591D01*
X94647218Y-49572666D01*
G37*
G36*
X94574143Y-49196729D02*
G01*
X94549840Y-49071697D01*
X94674752Y-49047416D01*
X94699056Y-49172449D01*
X94574143Y-49196729D01*
G37*
G36*
X94725038Y-49297155D02*
G01*
X94700734Y-49172123D01*
X94950080Y-49123655D01*
X94974384Y-49248687D01*
X94725038Y-49297155D01*
G37*
G36*
X94676570Y-49047809D02*
G01*
X94652266Y-48922777D01*
X95024367Y-48850448D01*
X95048671Y-48975480D01*
X94676570Y-49047809D01*
G37*
G36*
X94974687Y-49250246D02*
G01*
X95097442Y-49226384D01*
X95121606Y-49350698D01*
X94998851Y-49374559D01*
X94974687Y-49250246D01*
G37*
G36*
X95271541Y-49451310D02*
G01*
X95149999Y-48826028D01*
X95274911Y-48801747D01*
X95347986Y-49177684D01*
X95596852Y-49129309D01*
X95523777Y-48753372D01*
X95648690Y-48729092D01*
X95770232Y-49354374D01*
X95645320Y-49378655D01*
X95621156Y-49254341D01*
X95372290Y-49302716D01*
X95396454Y-49427029D01*
X95271541Y-49451310D01*
G37*
G36*
X95871560Y-49204921D02*
G01*
X95847396Y-49080608D01*
X95972309Y-49056327D01*
X95996473Y-49180641D01*
X95871560Y-49204921D01*
G37*
G36*
X95750158Y-48580358D02*
G01*
X95725854Y-48455326D01*
X96224545Y-48358390D01*
X96273013Y-48607736D01*
X96148580Y-48631923D01*
X96124416Y-48507610D01*
X95750158Y-48580358D01*
G37*
G36*
X95996473Y-49180641D02*
G01*
X96245819Y-49132173D01*
X96270123Y-49257205D01*
X96020777Y-49305673D01*
X95996473Y-49180641D01*
G37*
G36*
X95947702Y-48929737D02*
G01*
X95923398Y-48804704D01*
X96047831Y-48780517D01*
X96072135Y-48905549D01*
X95947702Y-48929737D01*
G37*
G36*
X96047971Y-48781236D02*
G01*
X96023667Y-48656204D01*
X96148580Y-48631923D01*
X96172884Y-48756956D01*
X96047971Y-48781236D01*
G37*
G36*
X96245819Y-49132173D02*
G01*
X96172744Y-48756236D01*
X96297177Y-48732049D01*
X96370252Y-49107985D01*
X96245819Y-49132173D01*
G37*
G36*
X71193636Y-59231887D02*
G01*
X71149321Y-59112472D01*
X71508368Y-58979229D01*
X71552683Y-59098644D01*
X71193636Y-59231887D01*
G37*
G36*
X71060393Y-58872840D02*
G01*
X71016078Y-58753425D01*
X71135379Y-58709153D01*
X71179694Y-58828568D01*
X71060393Y-58872840D01*
G37*
G36*
X71225612Y-58947388D02*
G01*
X71181297Y-58827973D01*
X71419440Y-58739597D01*
X71463755Y-58859012D01*
X71225612Y-58947388D01*
G37*
G36*
X71137236Y-58709245D02*
G01*
X71092921Y-58589830D01*
X71448304Y-58457946D01*
X71492619Y-58577361D01*
X71137236Y-58709245D01*
G37*
G36*
X71464307Y-58860501D02*
G01*
X71581547Y-58816993D01*
X71625607Y-58935721D01*
X71508368Y-58979229D01*
X71464307Y-58860501D01*
G37*
G36*
X71789910Y-59010608D02*
G01*
X71568292Y-58413419D01*
X71687592Y-58369146D01*
X71820835Y-58728193D01*
X72058520Y-58639987D01*
X71925277Y-58280941D01*
X72044578Y-58236668D01*
X72266196Y-58833858D01*
X72146896Y-58878130D01*
X72102835Y-58759402D01*
X71865150Y-58847608D01*
X71909210Y-58966336D01*
X71789910Y-59010608D01*
G37*
G36*
X72341869Y-58669915D02*
G01*
X72297808Y-58551187D01*
X72417109Y-58506914D01*
X72461169Y-58625642D01*
X72341869Y-58669915D01*
G37*
G36*
X72208881Y-58311555D02*
G01*
X72076190Y-57953997D01*
X72552476Y-57777246D01*
X72596791Y-57896661D01*
X72239806Y-58029139D01*
X72283866Y-58147868D01*
X72523612Y-58058897D01*
X72567927Y-58178312D01*
X72208881Y-58311555D01*
G37*
G36*
X72462772Y-58625047D02*
G01*
X72700915Y-58536672D01*
X72745230Y-58656087D01*
X72507087Y-58744462D01*
X72462772Y-58625047D01*
G37*
G36*
X72700915Y-58536672D02*
G01*
X72567672Y-58177625D01*
X72684912Y-58134117D01*
X72818155Y-58493164D01*
X72700915Y-58536672D01*
G37*
G36*
X121244025Y-71013162D02*
G01*
X121244025Y-70885789D01*
X121626997Y-70885789D01*
X121626997Y-71013162D01*
X121244025Y-71013162D01*
G37*
G36*
X121244025Y-70630189D02*
G01*
X121244025Y-70502816D01*
X121371275Y-70502816D01*
X121371275Y-70630189D01*
X121244025Y-70630189D01*
G37*
G36*
X121372985Y-70757561D02*
G01*
X121372985Y-70630189D01*
X121626997Y-70630189D01*
X121626997Y-70757561D01*
X121372985Y-70757561D01*
G37*
G36*
X121372985Y-70503549D02*
G01*
X121372985Y-70376176D01*
X121752050Y-70376176D01*
X121752050Y-70503549D01*
X121372985Y-70503549D01*
G37*
G36*
X121626997Y-70759149D02*
G01*
X121752050Y-70759149D01*
X121752050Y-70885789D01*
X121626997Y-70885789D01*
X121626997Y-70759149D01*
G37*
G36*
X121880033Y-71013162D02*
G01*
X121880033Y-70376176D01*
X122007283Y-70376176D01*
X122007283Y-70759149D01*
X122260807Y-70759149D01*
X122260807Y-70376176D01*
X122388058Y-70376176D01*
X122388058Y-71013162D01*
X122260807Y-71013162D01*
X122260807Y-70886522D01*
X122007283Y-70886522D01*
X122007283Y-71013162D01*
X121880033Y-71013162D01*
G37*
G36*
X122516041Y-70757561D02*
G01*
X122643292Y-70757561D01*
X122643292Y-70885789D01*
X123024066Y-70885789D01*
X123024066Y-71013162D01*
X122516041Y-71013162D01*
X122516041Y-70757561D01*
G37*
G36*
X122516041Y-70378496D02*
G01*
X122516041Y-70251124D01*
X122643292Y-70251124D01*
X122643292Y-70378496D01*
X122516041Y-70378496D01*
G37*
G36*
X122643292Y-70757561D02*
G01*
X122643292Y-70630189D01*
X122770054Y-70630189D01*
X122770054Y-70757561D01*
X122643292Y-70757561D01*
G37*
G36*
X122643292Y-70249536D02*
G01*
X122643292Y-70122164D01*
X122897304Y-70122164D01*
X122897304Y-70249536D01*
X122643292Y-70249536D01*
G37*
G36*
X122770054Y-70630189D02*
G01*
X122770054Y-70502816D01*
X122897304Y-70502816D01*
X122897304Y-70630189D01*
X122770054Y-70630189D01*
G37*
G36*
X122897304Y-70502816D02*
G01*
X122897304Y-70251124D01*
X123024066Y-70251124D01*
X123024066Y-70502816D01*
X122897304Y-70502816D01*
G37*
G36*
X150747646Y-97073506D02*
G01*
X150763169Y-96947083D01*
X151143287Y-96993756D01*
X151127764Y-97120179D01*
X150747646Y-97073506D01*
G37*
G36*
X150794318Y-96693388D02*
G01*
X150809841Y-96566965D01*
X150936143Y-96582473D01*
X150920620Y-96708896D01*
X150794318Y-96693388D01*
G37*
G36*
X150906795Y-96835528D02*
G01*
X150922317Y-96709104D01*
X151174437Y-96740061D01*
X151158914Y-96866484D01*
X150906795Y-96835528D01*
G37*
G36*
X150937751Y-96583409D02*
G01*
X150953274Y-96456985D01*
X151329513Y-96503182D01*
X151313990Y-96629605D01*
X150937751Y-96583409D01*
G37*
G36*
X151158720Y-96868060D02*
G01*
X151282841Y-96883300D01*
X151267407Y-97008996D01*
X151143287Y-96993756D01*
X151158720Y-96868060D01*
G37*
G36*
X151378913Y-97151016D02*
G01*
X151456542Y-96518779D01*
X151582844Y-96534287D01*
X151536172Y-96914405D01*
X151787806Y-96945302D01*
X151834479Y-96565184D01*
X151960781Y-96580692D01*
X151883152Y-97212929D01*
X151756850Y-97197421D01*
X151772283Y-97071725D01*
X151520649Y-97040828D01*
X151505215Y-97166524D01*
X151378913Y-97151016D01*
G37*
G36*
X152025704Y-97102103D02*
G01*
X152041137Y-96976407D01*
X152167439Y-96991915D01*
X152152006Y-97117611D01*
X152025704Y-97102103D01*
G37*
G36*
X152072377Y-96721985D02*
G01*
X152103050Y-96472169D01*
X152229352Y-96487677D01*
X152198679Y-96737493D01*
X152072377Y-96721985D01*
G37*
G36*
X152153703Y-97117819D02*
G01*
X152405822Y-97148776D01*
X152390299Y-97275199D01*
X152138180Y-97244242D01*
X152153703Y-97117819D01*
G37*
G36*
X152200376Y-96737701D02*
G01*
X152452495Y-96768657D01*
X152483168Y-96518841D01*
X152607289Y-96534081D01*
X152529942Y-97164016D01*
X152405822Y-97148776D01*
X152436972Y-96895081D01*
X152184853Y-96864124D01*
X152200376Y-96737701D01*
G37*
G36*
X152231243Y-96486309D02*
G01*
X152246765Y-96359886D01*
X152498885Y-96390842D01*
X152483362Y-96517266D01*
X152231243Y-96486309D01*
G37*
G36*
X185148330Y-111557893D02*
G01*
X185228489Y-111458906D01*
X185526114Y-111699919D01*
X185445956Y-111798906D01*
X185148330Y-111557893D01*
G37*
G36*
X185389343Y-111260268D02*
G01*
X185469501Y-111161281D01*
X185568393Y-111241362D01*
X185488235Y-111340349D01*
X185389343Y-111260268D01*
G37*
G36*
X185409406Y-111440412D02*
G01*
X185489564Y-111341425D01*
X185686969Y-111501280D01*
X185606811Y-111600267D01*
X185409406Y-111440412D01*
G37*
G36*
X185569261Y-111243007D02*
G01*
X185649419Y-111144020D01*
X185944008Y-111382573D01*
X185863850Y-111481561D01*
X185569261Y-111243007D01*
G37*
G36*
X185605811Y-111601501D02*
G01*
X185702995Y-111680199D01*
X185623298Y-111778617D01*
X185526114Y-111699919D01*
X185605811Y-111601501D01*
G37*
G36*
X185642602Y-111958147D02*
G01*
X186043470Y-111463116D01*
X186142362Y-111543197D01*
X185901349Y-111840823D01*
X186098375Y-112000371D01*
X186339387Y-111702745D01*
X186438279Y-111782826D01*
X186037411Y-112277857D01*
X185938519Y-112197776D01*
X186018216Y-112099358D01*
X185821191Y-111939810D01*
X185741494Y-112038228D01*
X185642602Y-111958147D01*
G37*
G36*
X186614878Y-112581582D02*
G01*
X186534720Y-112680569D01*
X186237094Y-112439557D01*
X186317252Y-112340570D01*
X186415765Y-112420344D01*
X186736475Y-112024300D01*
X186637962Y-111944526D01*
X186718120Y-111845539D01*
X186816633Y-111925313D01*
X186896330Y-111826895D01*
X186995222Y-111906977D01*
X186514657Y-112500425D01*
X186614878Y-112581582D01*
G37*
G36*
X187109149Y-112981835D02*
G01*
X187028991Y-113080822D01*
X186731365Y-112839810D01*
X186811524Y-112740823D01*
X186910036Y-112820597D01*
X187230746Y-112424553D01*
X187132233Y-112344779D01*
X187212391Y-112245792D01*
X187310904Y-112325566D01*
X187390601Y-112227148D01*
X187489493Y-112307230D01*
X187008928Y-112900678D01*
X187109149Y-112981835D01*
G37*
G36*
X46654093Y-86741261D02*
G01*
X46592341Y-86629858D01*
X46927297Y-86444189D01*
X46989048Y-86555592D01*
X46654093Y-86741261D01*
G37*
G36*
X46468424Y-86406305D02*
G01*
X46406672Y-86294903D01*
X46517968Y-86233210D01*
X46579720Y-86344613D01*
X46468424Y-86406305D01*
G37*
G36*
X46642967Y-86455187D02*
G01*
X46581215Y-86343784D01*
X46803379Y-86220636D01*
X46865131Y-86332039D01*
X46642967Y-86455187D01*
G37*
G36*
X46519819Y-86233022D02*
G01*
X46458067Y-86121620D01*
X46789605Y-85937845D01*
X46851356Y-86049248D01*
X46519819Y-86233022D01*
G37*
G36*
X46865901Y-86333428D02*
G01*
X46975274Y-86272801D01*
X47036670Y-86383563D01*
X46927297Y-86444189D01*
X46865901Y-86333428D01*
G37*
G36*
X47210358Y-86432918D02*
G01*
X46901542Y-85875798D01*
X47012837Y-85814106D01*
X47198506Y-86149061D01*
X47420243Y-86026150D01*
X47234575Y-85691195D01*
X47345870Y-85629502D01*
X47654687Y-86186622D01*
X47543391Y-86248315D01*
X47481995Y-86137553D01*
X47260258Y-86260464D01*
X47321654Y-86371226D01*
X47210358Y-86432918D01*
G37*
G36*
X47966580Y-85432885D02*
G01*
X47855284Y-85494577D01*
X47731366Y-85271024D01*
X47398120Y-85455746D01*
X47336368Y-85344343D01*
X47780911Y-85097929D01*
X47966580Y-85432885D01*
G37*
G36*
X47756267Y-85839889D02*
G01*
X47867563Y-85778197D01*
X47990711Y-86000361D01*
X47879415Y-86062054D01*
X47756267Y-85839889D01*
G37*
G36*
X47867563Y-85778197D02*
G01*
X47744415Y-85556033D01*
X47855284Y-85494577D01*
X47978432Y-85716742D01*
X47867563Y-85778197D01*
G37*
G36*
X168814338Y-101726156D02*
G01*
X168864107Y-101608909D01*
X169216635Y-101758548D01*
X169166866Y-101875795D01*
X168814338Y-101726156D01*
G37*
G36*
X168963978Y-101373627D02*
G01*
X169013746Y-101256380D01*
X169130881Y-101306101D01*
X169081112Y-101423348D01*
X168963978Y-101373627D01*
G37*
G36*
X169032918Y-101541263D02*
G01*
X169082686Y-101424016D01*
X169316506Y-101523267D01*
X169266737Y-101640514D01*
X169032918Y-101541263D01*
G37*
G36*
X169132168Y-101307444D02*
G01*
X169181937Y-101190196D01*
X169530868Y-101338309D01*
X169481099Y-101455556D01*
X169132168Y-101307444D01*
G37*
G36*
X169266117Y-101641975D02*
G01*
X169381228Y-101690837D01*
X169331746Y-101807410D01*
X169216635Y-101758548D01*
X169266117Y-101641975D01*
G37*
G36*
X169399787Y-101974664D02*
G01*
X169648677Y-101388316D01*
X169765812Y-101438037D01*
X169616172Y-101790565D01*
X169849542Y-101889625D01*
X169999182Y-101537096D01*
X170116317Y-101586817D01*
X169867427Y-102173165D01*
X169750292Y-102123445D01*
X169799774Y-102006872D01*
X169566404Y-101907812D01*
X169516922Y-102024385D01*
X169399787Y-101974664D01*
G37*
G36*
X170506241Y-102305953D02*
G01*
X170456473Y-102423200D01*
X170103944Y-102273561D01*
X170153713Y-102156314D01*
X170270398Y-102205844D01*
X170469519Y-101736743D01*
X170352834Y-101687213D01*
X170402603Y-101569966D01*
X170519288Y-101619496D01*
X170568770Y-101502923D01*
X170685905Y-101552644D01*
X170387533Y-102255565D01*
X170506241Y-102305953D01*
G37*
G36*
X170621073Y-102352972D02*
G01*
X170869963Y-101766624D01*
X170987098Y-101816345D01*
X170887227Y-102051626D01*
X171005711Y-102101919D01*
X170955942Y-102219166D01*
X170837459Y-102168873D01*
X170738208Y-102402693D01*
X170621073Y-102352972D01*
G37*
G36*
X170739162Y-102404822D02*
G01*
X170972981Y-102504073D01*
X170923213Y-102621320D01*
X170689393Y-102522069D01*
X170739162Y-102404822D01*
G37*
G36*
X170987765Y-101819149D02*
G01*
X171037534Y-101701901D01*
X171271353Y-101801152D01*
X171221585Y-101918399D01*
X170987765Y-101819149D01*
G37*
G36*
X171005425Y-102102594D02*
G01*
X171055193Y-101985347D01*
X171172103Y-102034972D01*
X171222492Y-101916263D01*
X171337603Y-101965125D01*
X171088713Y-102551473D01*
X170973602Y-102502611D01*
X171122334Y-102152219D01*
X171005425Y-102102594D01*
G37*
G36*
X65033921Y-98578869D02*
G01*
X64976095Y-98465379D01*
X65317326Y-98291513D01*
X65375152Y-98405003D01*
X65033921Y-98578869D01*
G37*
G36*
X64860055Y-98237637D02*
G01*
X64802229Y-98124147D01*
X64915610Y-98066377D01*
X64973436Y-98179867D01*
X64860055Y-98237637D01*
G37*
G36*
X65032785Y-98292580D02*
G01*
X64974959Y-98179091D01*
X65201286Y-98063771D01*
X65259112Y-98177261D01*
X65032785Y-98292580D01*
G37*
G36*
X64917466Y-98066254D02*
G01*
X64859640Y-97952764D01*
X65197389Y-97780672D01*
X65255215Y-97894162D01*
X64917466Y-98066254D01*
G37*
G36*
X65259833Y-98178676D02*
G01*
X65371255Y-98121903D01*
X65428748Y-98234740D01*
X65317326Y-98291513D01*
X65259833Y-98178676D01*
G37*
G36*
X65600608Y-98290127D02*
G01*
X65311423Y-97722569D01*
X65424804Y-97664798D01*
X65598670Y-98006029D01*
X65824562Y-97890932D01*
X65650696Y-97549701D01*
X65764077Y-97491930D01*
X66053262Y-98059488D01*
X65939881Y-98117259D01*
X65882388Y-98004422D01*
X65656496Y-98119519D01*
X65713989Y-98232356D01*
X65600608Y-98290127D01*
G37*
G36*
X66108749Y-97886481D02*
G01*
X65993430Y-97660154D01*
X66106811Y-97602383D01*
X66222130Y-97828710D01*
X66108749Y-97886481D01*
G37*
G36*
X65935604Y-97546664D02*
G01*
X65821338Y-97322405D01*
X65934719Y-97264634D01*
X66048985Y-97488893D01*
X65935604Y-97546664D01*
G37*
G36*
X66224374Y-97829348D02*
G01*
X66450701Y-97714029D01*
X66508527Y-97827519D01*
X66282200Y-97942838D01*
X66224374Y-97829348D01*
G37*
G36*
X66050508Y-97488117D02*
G01*
X66276835Y-97372798D01*
X66334661Y-97486288D01*
X66108334Y-97601607D01*
X66050508Y-97488117D01*
G37*
G36*
X65935522Y-97262443D02*
G01*
X65877696Y-97148953D01*
X66104023Y-97033634D01*
X66161848Y-97147124D01*
X65935522Y-97262443D01*
G37*
G36*
X66449980Y-97712615D02*
G01*
X66334661Y-97486288D01*
X66446084Y-97429515D01*
X66561403Y-97655842D01*
X66449980Y-97712615D01*
G37*
G36*
X66276835Y-97372798D02*
G01*
X66162569Y-97148539D01*
X66273992Y-97091766D01*
X66388258Y-97316025D01*
X66276835Y-97372798D01*
G37*
G36*
X148565992Y-44925000D02*
G01*
X148565992Y-44034002D01*
X148693242Y-44034002D01*
X148693242Y-44288014D01*
X148947804Y-44288014D01*
X148947804Y-44415387D01*
X148693242Y-44415387D01*
X148693242Y-44797627D01*
X148947804Y-44797627D01*
X148947804Y-44925000D01*
X148565992Y-44925000D01*
G37*
G36*
X149074017Y-44797627D02*
G01*
X148947804Y-44797627D01*
X148947804Y-44416974D01*
X149074017Y-44416974D01*
X149074017Y-44797627D01*
G37*
G36*
X149202000Y-44669399D02*
G01*
X149202000Y-44542027D01*
X149456012Y-44542027D01*
X149456012Y-44288014D01*
X149583263Y-44288014D01*
X149583263Y-44542027D01*
X149838985Y-44542027D01*
X149838985Y-44669399D01*
X149583263Y-44669399D01*
X149583263Y-44925000D01*
X149456012Y-44925000D01*
X149456012Y-44669399D01*
X149202000Y-44669399D01*
G37*
G36*
X149009921Y-70297627D02*
G01*
X149009921Y-70425000D01*
X148626948Y-70425000D01*
X148626948Y-70297627D01*
X148753710Y-70297627D01*
X148753710Y-69788014D01*
X148626948Y-69788014D01*
X148626948Y-69660642D01*
X148753710Y-69660642D01*
X148753710Y-69534002D01*
X148880960Y-69534002D01*
X148880960Y-70297627D01*
X149009921Y-70297627D01*
G37*
G36*
X149645929Y-70297627D02*
G01*
X149645929Y-70425000D01*
X149262956Y-70425000D01*
X149262956Y-70297627D01*
X149389718Y-70297627D01*
X149389718Y-69788014D01*
X149262956Y-69788014D01*
X149262956Y-69660642D01*
X149389718Y-69660642D01*
X149389718Y-69534002D01*
X149516969Y-69534002D01*
X149516969Y-70297627D01*
X149645929Y-70297627D01*
G37*
G36*
X150281937Y-70297627D02*
G01*
X150281937Y-70425000D01*
X149898964Y-70425000D01*
X149898964Y-70297627D01*
X150025727Y-70297627D01*
X150025727Y-69788014D01*
X149898964Y-69788014D01*
X149898964Y-69660642D01*
X150025727Y-69660642D01*
X150025727Y-69534002D01*
X150152977Y-69534002D01*
X150152977Y-70297627D01*
X150281937Y-70297627D01*
G37*
G36*
X145179984Y-77547627D02*
G01*
X145179984Y-77164654D01*
X145307234Y-77164654D01*
X145307234Y-77547627D01*
X145179984Y-77547627D01*
G37*
G36*
X145308944Y-77547627D02*
G01*
X145562956Y-77547627D01*
X145562956Y-77675000D01*
X145308944Y-77675000D01*
X145308944Y-77547627D01*
G37*
G36*
X145308944Y-77165387D02*
G01*
X145308944Y-77038014D01*
X145562956Y-77038014D01*
X145562956Y-77165387D01*
X145308944Y-77165387D01*
G37*
G36*
X145562956Y-77547627D02*
G01*
X145562956Y-77420987D01*
X145688009Y-77420987D01*
X145688009Y-77547627D01*
X145562956Y-77547627D01*
G37*
G36*
X145562956Y-77164654D02*
G01*
X145688009Y-77164654D01*
X145688009Y-77292027D01*
X145562956Y-77292027D01*
X145562956Y-77164654D01*
G37*
G36*
X145815992Y-77165387D02*
G01*
X145815992Y-77038014D01*
X145942754Y-77038014D01*
X145942754Y-76784002D01*
X146070004Y-76784002D01*
X146070004Y-77038014D01*
X146324017Y-77038014D01*
X146324017Y-77165387D01*
X146070004Y-77165387D01*
X146070004Y-77549947D01*
X145942754Y-77549947D01*
X145942754Y-77165387D01*
X145815992Y-77165387D01*
G37*
G36*
X146070004Y-77547627D02*
G01*
X146324017Y-77547627D01*
X146324017Y-77675000D01*
X146070004Y-77675000D01*
X146070004Y-77547627D01*
G37*
G36*
X146963933Y-77547627D02*
G01*
X146963933Y-77675000D01*
X146709921Y-77675000D01*
X146709921Y-77547627D01*
X146963933Y-77547627D01*
G37*
G36*
X146453954Y-76911374D02*
G01*
X146453954Y-76784002D01*
X146708211Y-76784002D01*
X146708211Y-77547627D01*
X146580960Y-77547627D01*
X146580960Y-76911374D01*
X146453954Y-76911374D01*
G37*
G36*
X147599942Y-77547627D02*
G01*
X147599942Y-77675000D01*
X147216969Y-77675000D01*
X147216969Y-77547627D01*
X147343731Y-77547627D01*
X147343731Y-77038014D01*
X147216969Y-77038014D01*
X147216969Y-76910642D01*
X147343731Y-76910642D01*
X147343731Y-76784002D01*
X147470981Y-76784002D01*
X147470981Y-77547627D01*
X147599942Y-77547627D01*
G37*
G36*
X148497988Y-60046039D02*
G01*
X148497988Y-59409054D01*
X148625238Y-59409054D01*
X148625238Y-59664654D01*
X148753954Y-59664654D01*
X148753954Y-59792027D01*
X148625238Y-59792027D01*
X148625238Y-60046039D01*
X148497988Y-60046039D01*
G37*
G36*
X148626948Y-60047627D02*
G01*
X148880960Y-60047627D01*
X148880960Y-60175000D01*
X148626948Y-60175000D01*
X148626948Y-60047627D01*
G37*
G36*
X148626948Y-59411374D02*
G01*
X148626948Y-59284002D01*
X148880960Y-59284002D01*
X148880960Y-59411374D01*
X148626948Y-59411374D01*
G37*
G36*
X148753954Y-59665387D02*
G01*
X148753954Y-59538014D01*
X148880960Y-59538014D01*
X148880960Y-59409054D01*
X149006013Y-59409054D01*
X149006013Y-60046039D01*
X148880960Y-60046039D01*
X148880960Y-59665387D01*
X148753954Y-59665387D01*
G37*
G36*
X149133996Y-59919399D02*
G01*
X149261246Y-59919399D01*
X149261246Y-60047627D01*
X149642021Y-60047627D01*
X149642021Y-60175000D01*
X149133996Y-60175000D01*
X149133996Y-59919399D01*
G37*
G36*
X149133996Y-59540334D02*
G01*
X149133996Y-59412962D01*
X149261246Y-59412962D01*
X149261246Y-59540334D01*
X149133996Y-59540334D01*
G37*
G36*
X149261246Y-59919399D02*
G01*
X149261246Y-59792027D01*
X149388008Y-59792027D01*
X149388008Y-59919399D01*
X149261246Y-59919399D01*
G37*
G36*
X149261246Y-59411374D02*
G01*
X149261246Y-59284002D01*
X149515259Y-59284002D01*
X149515259Y-59411374D01*
X149261246Y-59411374D01*
G37*
G36*
X149388008Y-59792027D02*
G01*
X149388008Y-59664654D01*
X149515259Y-59664654D01*
X149515259Y-59792027D01*
X149388008Y-59792027D01*
G37*
G36*
X149515259Y-59664654D02*
G01*
X149515259Y-59412962D01*
X149642021Y-59412962D01*
X149642021Y-59664654D01*
X149515259Y-59664654D01*
G37*
G36*
X149770004Y-60047627D02*
G01*
X149770004Y-59920987D01*
X149897255Y-59920987D01*
X149897255Y-60047627D01*
X149770004Y-60047627D01*
G37*
G36*
X149770004Y-59664654D02*
G01*
X149770004Y-59412962D01*
X149897255Y-59412962D01*
X149897255Y-59664654D01*
X149770004Y-59664654D01*
G37*
G36*
X149898964Y-60047627D02*
G01*
X150152977Y-60047627D01*
X150152977Y-60175000D01*
X149898964Y-60175000D01*
X149898964Y-60047627D01*
G37*
G36*
X149898964Y-59664654D02*
G01*
X150152977Y-59664654D01*
X150152977Y-59412962D01*
X150278029Y-59412962D01*
X150278029Y-60047627D01*
X150152977Y-60047627D01*
X150152977Y-59792027D01*
X149898964Y-59792027D01*
X149898964Y-59664654D01*
G37*
G36*
X149898964Y-59411374D02*
G01*
X149898964Y-59284002D01*
X150152977Y-59284002D01*
X150152977Y-59411374D01*
X149898964Y-59411374D01*
G37*
G36*
X143259921Y-73297627D02*
G01*
X143259921Y-73425000D01*
X142876948Y-73425000D01*
X142876948Y-73297627D01*
X143003710Y-73297627D01*
X143003710Y-72788014D01*
X142876948Y-72788014D01*
X142876948Y-72660642D01*
X143003710Y-72660642D01*
X143003710Y-72534002D01*
X143130960Y-72534002D01*
X143130960Y-73297627D01*
X143259921Y-73297627D01*
G37*
G36*
X143383996Y-73296039D02*
G01*
X143383996Y-72659054D01*
X143511246Y-72659054D01*
X143511246Y-72914654D01*
X143639962Y-72914654D01*
X143639962Y-73042027D01*
X143511246Y-73042027D01*
X143511246Y-73296039D01*
X143383996Y-73296039D01*
G37*
G36*
X143512956Y-73297627D02*
G01*
X143766969Y-73297627D01*
X143766969Y-73425000D01*
X143512956Y-73425000D01*
X143512956Y-73297627D01*
G37*
G36*
X143512956Y-72661374D02*
G01*
X143512956Y-72534002D01*
X143766969Y-72534002D01*
X143766969Y-72661374D01*
X143512956Y-72661374D01*
G37*
G36*
X143639962Y-72915387D02*
G01*
X143639962Y-72788014D01*
X143766969Y-72788014D01*
X143766969Y-72659054D01*
X143892021Y-72659054D01*
X143892021Y-73296039D01*
X143766969Y-73296039D01*
X143766969Y-72915387D01*
X143639962Y-72915387D01*
G37*
G36*
X144020004Y-73169399D02*
G01*
X144020004Y-72534002D01*
X144147255Y-72534002D01*
X144147255Y-73042027D01*
X144274017Y-73042027D01*
X144274017Y-72788014D01*
X144401267Y-72788014D01*
X144401267Y-73042027D01*
X144529983Y-73042027D01*
X144529983Y-73169399D01*
X144401267Y-73169399D01*
X144401267Y-73425000D01*
X144274017Y-73425000D01*
X144274017Y-73169399D01*
X144020004Y-73169399D01*
G37*
G36*
X142747988Y-70796039D02*
G01*
X142747988Y-70159054D01*
X142875238Y-70159054D01*
X142875238Y-70414654D01*
X143003954Y-70414654D01*
X143003954Y-70542027D01*
X142875238Y-70542027D01*
X142875238Y-70796039D01*
X142747988Y-70796039D01*
G37*
G36*
X142876948Y-70797627D02*
G01*
X143130960Y-70797627D01*
X143130960Y-70925000D01*
X142876948Y-70925000D01*
X142876948Y-70797627D01*
G37*
G36*
X142876948Y-70161374D02*
G01*
X142876948Y-70034002D01*
X143130960Y-70034002D01*
X143130960Y-70161374D01*
X142876948Y-70161374D01*
G37*
G36*
X143003954Y-70415387D02*
G01*
X143003954Y-70288014D01*
X143130960Y-70288014D01*
X143130960Y-70159054D01*
X143256013Y-70159054D01*
X143256013Y-70796039D01*
X143130960Y-70796039D01*
X143130960Y-70415387D01*
X143003954Y-70415387D01*
G37*
G36*
X143895929Y-70797627D02*
G01*
X143895929Y-70925000D01*
X143512956Y-70925000D01*
X143512956Y-70797627D01*
X143639718Y-70797627D01*
X143639718Y-70288014D01*
X143512956Y-70288014D01*
X143512956Y-70160642D01*
X143639718Y-70160642D01*
X143639718Y-70034002D01*
X143766969Y-70034002D01*
X143766969Y-70797627D01*
X143895929Y-70797627D01*
G37*
G36*
X144531937Y-70797627D02*
G01*
X144531937Y-70925000D01*
X144148964Y-70925000D01*
X144148964Y-70797627D01*
X144275727Y-70797627D01*
X144275727Y-70288014D01*
X144148964Y-70288014D01*
X144148964Y-70160642D01*
X144275727Y-70160642D01*
X144275727Y-70034002D01*
X144402977Y-70034002D01*
X144402977Y-70797627D01*
X144531937Y-70797627D01*
G37*
G36*
X142747988Y-58046039D02*
G01*
X142747988Y-57409054D01*
X142875238Y-57409054D01*
X142875238Y-57664654D01*
X143003954Y-57664654D01*
X143003954Y-57792027D01*
X142875238Y-57792027D01*
X142875238Y-58046039D01*
X142747988Y-58046039D01*
G37*
G36*
X142876948Y-58047627D02*
G01*
X143130960Y-58047627D01*
X143130960Y-58175000D01*
X142876948Y-58175000D01*
X142876948Y-58047627D01*
G37*
G36*
X142876948Y-57411374D02*
G01*
X142876948Y-57284002D01*
X143130960Y-57284002D01*
X143130960Y-57411374D01*
X142876948Y-57411374D01*
G37*
G36*
X143003954Y-57665387D02*
G01*
X143003954Y-57538014D01*
X143130960Y-57538014D01*
X143130960Y-57409054D01*
X143256013Y-57409054D01*
X143256013Y-58046039D01*
X143130960Y-58046039D01*
X143130960Y-57665387D01*
X143003954Y-57665387D01*
G37*
G36*
X143895929Y-58047627D02*
G01*
X143895929Y-58175000D01*
X143512956Y-58175000D01*
X143512956Y-58047627D01*
X143639718Y-58047627D01*
X143639718Y-57538014D01*
X143512956Y-57538014D01*
X143512956Y-57410642D01*
X143639718Y-57410642D01*
X143639718Y-57284002D01*
X143766969Y-57284002D01*
X143766969Y-58047627D01*
X143895929Y-58047627D01*
G37*
G36*
X144530228Y-57666974D02*
G01*
X144402977Y-57666974D01*
X144402977Y-57411374D01*
X144021958Y-57411374D01*
X144021958Y-57284002D01*
X144530228Y-57284002D01*
X144530228Y-57666974D01*
G37*
G36*
X144148964Y-57920987D02*
G01*
X144276215Y-57920987D01*
X144276215Y-58175000D01*
X144148964Y-58175000D01*
X144148964Y-57920987D01*
G37*
G36*
X144276215Y-57920987D02*
G01*
X144276215Y-57666974D01*
X144402977Y-57666974D01*
X144402977Y-57920987D01*
X144276215Y-57920987D01*
G37*
G36*
X142747988Y-60546039D02*
G01*
X142747988Y-59909054D01*
X142875238Y-59909054D01*
X142875238Y-60164654D01*
X143003954Y-60164654D01*
X143003954Y-60292027D01*
X142875238Y-60292027D01*
X142875238Y-60546039D01*
X142747988Y-60546039D01*
G37*
G36*
X142876948Y-60547627D02*
G01*
X143130960Y-60547627D01*
X143130960Y-60675000D01*
X142876948Y-60675000D01*
X142876948Y-60547627D01*
G37*
G36*
X142876948Y-59911374D02*
G01*
X142876948Y-59784002D01*
X143130960Y-59784002D01*
X143130960Y-59911374D01*
X142876948Y-59911374D01*
G37*
G36*
X143003954Y-60165387D02*
G01*
X143003954Y-60038014D01*
X143130960Y-60038014D01*
X143130960Y-59909054D01*
X143256013Y-59909054D01*
X143256013Y-60546039D01*
X143130960Y-60546039D01*
X143130960Y-60165387D01*
X143003954Y-60165387D01*
G37*
G36*
X143383996Y-60419399D02*
G01*
X143511246Y-60419399D01*
X143511246Y-60547627D01*
X143892021Y-60547627D01*
X143892021Y-60675000D01*
X143383996Y-60675000D01*
X143383996Y-60419399D01*
G37*
G36*
X143383996Y-60040334D02*
G01*
X143383996Y-59912962D01*
X143511246Y-59912962D01*
X143511246Y-60040334D01*
X143383996Y-60040334D01*
G37*
G36*
X143511246Y-60419399D02*
G01*
X143511246Y-60292027D01*
X143638008Y-60292027D01*
X143638008Y-60419399D01*
X143511246Y-60419399D01*
G37*
G36*
X143511246Y-59911374D02*
G01*
X143511246Y-59784002D01*
X143765259Y-59784002D01*
X143765259Y-59911374D01*
X143511246Y-59911374D01*
G37*
G36*
X143638008Y-60292027D02*
G01*
X143638008Y-60164654D01*
X143765259Y-60164654D01*
X143765259Y-60292027D01*
X143638008Y-60292027D01*
G37*
G36*
X143765259Y-60164654D02*
G01*
X143765259Y-59912962D01*
X143892021Y-59912962D01*
X143892021Y-60164654D01*
X143765259Y-60164654D01*
G37*
G36*
X144020004Y-60546039D02*
G01*
X144020004Y-59909054D01*
X144147255Y-59909054D01*
X144147255Y-60164654D01*
X144275971Y-60164654D01*
X144275971Y-60292027D01*
X144147255Y-60292027D01*
X144147255Y-60546039D01*
X144020004Y-60546039D01*
G37*
G36*
X144148964Y-60547627D02*
G01*
X144402977Y-60547627D01*
X144402977Y-60675000D01*
X144148964Y-60675000D01*
X144148964Y-60547627D01*
G37*
G36*
X144148964Y-59911374D02*
G01*
X144148964Y-59784002D01*
X144402977Y-59784002D01*
X144402977Y-59911374D01*
X144148964Y-59911374D01*
G37*
G36*
X144275971Y-60165387D02*
G01*
X144275971Y-60038014D01*
X144402977Y-60038014D01*
X144402977Y-59909054D01*
X144528029Y-59909054D01*
X144528029Y-60546039D01*
X144402977Y-60546039D01*
X144402977Y-60165387D01*
X144275971Y-60165387D01*
G37*
G36*
X143259921Y-75797627D02*
G01*
X143259921Y-75925000D01*
X142876948Y-75925000D01*
X142876948Y-75797627D01*
X143003710Y-75797627D01*
X143003710Y-75288014D01*
X142876948Y-75288014D01*
X142876948Y-75160642D01*
X143003710Y-75160642D01*
X143003710Y-75034002D01*
X143130960Y-75034002D01*
X143130960Y-75797627D01*
X143259921Y-75797627D01*
G37*
G36*
X143383996Y-75796039D02*
G01*
X143383996Y-75159054D01*
X143511246Y-75159054D01*
X143511246Y-75414654D01*
X143639962Y-75414654D01*
X143639962Y-75542027D01*
X143511246Y-75542027D01*
X143511246Y-75796039D01*
X143383996Y-75796039D01*
G37*
G36*
X143512956Y-75797627D02*
G01*
X143766969Y-75797627D01*
X143766969Y-75925000D01*
X143512956Y-75925000D01*
X143512956Y-75797627D01*
G37*
G36*
X143512956Y-75161374D02*
G01*
X143512956Y-75034002D01*
X143766969Y-75034002D01*
X143766969Y-75161374D01*
X143512956Y-75161374D01*
G37*
G36*
X143639962Y-75415387D02*
G01*
X143639962Y-75288014D01*
X143766969Y-75288014D01*
X143766969Y-75159054D01*
X143892021Y-75159054D01*
X143892021Y-75796039D01*
X143766969Y-75796039D01*
X143766969Y-75415387D01*
X143639962Y-75415387D01*
G37*
G36*
X144020004Y-75796039D02*
G01*
X144020004Y-75160642D01*
X144147255Y-75160642D01*
X144147255Y-75414654D01*
X144402977Y-75414654D01*
X144402977Y-75542027D01*
X144147255Y-75542027D01*
X144147255Y-75796039D01*
X144020004Y-75796039D01*
G37*
G36*
X144148964Y-75797627D02*
G01*
X144402977Y-75797627D01*
X144402977Y-75925000D01*
X144148964Y-75925000D01*
X144148964Y-75797627D01*
G37*
G36*
X144148964Y-75161374D02*
G01*
X144148964Y-75034002D01*
X144402977Y-75034002D01*
X144402977Y-75161374D01*
X144148964Y-75161374D01*
G37*
G36*
X144402977Y-75796039D02*
G01*
X144402977Y-75542027D01*
X144528029Y-75542027D01*
X144528029Y-75796039D01*
X144402977Y-75796039D01*
G37*
G36*
X144402977Y-75288014D02*
G01*
X144402977Y-75160642D01*
X144528029Y-75160642D01*
X144528029Y-75288014D01*
X144402977Y-75288014D01*
G37*
G36*
X148247988Y-54920987D02*
G01*
X148247988Y-54538014D01*
X148375238Y-54538014D01*
X148375238Y-54920987D01*
X148247988Y-54920987D01*
G37*
G36*
X148756013Y-54920987D02*
G01*
X148630960Y-54920987D01*
X148630960Y-54538014D01*
X148756013Y-54538014D01*
X148756013Y-54920987D01*
G37*
G36*
X148376948Y-54920987D02*
G01*
X148630960Y-54920987D01*
X148630960Y-55175000D01*
X148376948Y-55175000D01*
X148376948Y-54920987D01*
G37*
G36*
X148883996Y-55047627D02*
G01*
X148883996Y-54664654D01*
X149011246Y-54664654D01*
X149011246Y-55047627D01*
X148883996Y-55047627D01*
G37*
G36*
X149012956Y-55047627D02*
G01*
X149266969Y-55047627D01*
X149266969Y-55175000D01*
X149012956Y-55175000D01*
X149012956Y-55047627D01*
G37*
G36*
X149012956Y-54665387D02*
G01*
X149012956Y-54538014D01*
X149266969Y-54538014D01*
X149266969Y-54665387D01*
X149012956Y-54665387D01*
G37*
G36*
X149266969Y-55047627D02*
G01*
X149266969Y-54920987D01*
X149392021Y-54920987D01*
X149392021Y-55047627D01*
X149266969Y-55047627D01*
G37*
G36*
X149266969Y-54664654D02*
G01*
X149392021Y-54664654D01*
X149392021Y-54792027D01*
X149266969Y-54792027D01*
X149266969Y-54664654D01*
G37*
G36*
X149520004Y-55047627D02*
G01*
X149520004Y-54664654D01*
X149647255Y-54664654D01*
X149647255Y-55047627D01*
X149520004Y-55047627D01*
G37*
G36*
X149648964Y-55047627D02*
G01*
X149902977Y-55047627D01*
X149902977Y-55175000D01*
X149648964Y-55175000D01*
X149648964Y-55047627D01*
G37*
G36*
X149648964Y-54665387D02*
G01*
X149648964Y-54538014D01*
X149902977Y-54538014D01*
X149902977Y-54665387D01*
X149648964Y-54665387D01*
G37*
G36*
X149902977Y-55047627D02*
G01*
X149902977Y-54920987D01*
X150028029Y-54920987D01*
X150028029Y-55047627D01*
X149902977Y-55047627D01*
G37*
G36*
X149902977Y-54664654D02*
G01*
X150028029Y-54664654D01*
X150028029Y-54792027D01*
X149902977Y-54792027D01*
X149902977Y-54664654D01*
G37*
G36*
X143065992Y-45675000D02*
G01*
X143065992Y-44784002D01*
X143193242Y-44784002D01*
X143193242Y-45038014D01*
X143447804Y-45038014D01*
X143447804Y-45165387D01*
X143193242Y-45165387D01*
X143193242Y-45547627D01*
X143447804Y-45547627D01*
X143447804Y-45675000D01*
X143065992Y-45675000D01*
G37*
G36*
X143574017Y-45547627D02*
G01*
X143447804Y-45547627D01*
X143447804Y-45166974D01*
X143574017Y-45166974D01*
X143574017Y-45547627D01*
G37*
G36*
X143702000Y-45420987D02*
G01*
X143702000Y-45293614D01*
X144210025Y-45293614D01*
X144210025Y-45420987D01*
X143702000Y-45420987D01*
G37*
G36*
X142747988Y-65796039D02*
G01*
X142747988Y-65159054D01*
X142875238Y-65159054D01*
X142875238Y-65414654D01*
X143003954Y-65414654D01*
X143003954Y-65542027D01*
X142875238Y-65542027D01*
X142875238Y-65796039D01*
X142747988Y-65796039D01*
G37*
G36*
X142876948Y-65797627D02*
G01*
X143130960Y-65797627D01*
X143130960Y-65925000D01*
X142876948Y-65925000D01*
X142876948Y-65797627D01*
G37*
G36*
X142876948Y-65161374D02*
G01*
X142876948Y-65034002D01*
X143130960Y-65034002D01*
X143130960Y-65161374D01*
X142876948Y-65161374D01*
G37*
G36*
X143003954Y-65415387D02*
G01*
X143003954Y-65288014D01*
X143130960Y-65288014D01*
X143130960Y-65159054D01*
X143256013Y-65159054D01*
X143256013Y-65796039D01*
X143130960Y-65796039D01*
X143130960Y-65415387D01*
X143003954Y-65415387D01*
G37*
G36*
X143383996Y-65669399D02*
G01*
X143511246Y-65669399D01*
X143511246Y-65797627D01*
X143892021Y-65797627D01*
X143892021Y-65925000D01*
X143383996Y-65925000D01*
X143383996Y-65669399D01*
G37*
G36*
X143383996Y-65290334D02*
G01*
X143383996Y-65162962D01*
X143511246Y-65162962D01*
X143511246Y-65290334D01*
X143383996Y-65290334D01*
G37*
G36*
X143511246Y-65669399D02*
G01*
X143511246Y-65542027D01*
X143638008Y-65542027D01*
X143638008Y-65669399D01*
X143511246Y-65669399D01*
G37*
G36*
X143511246Y-65161374D02*
G01*
X143511246Y-65034002D01*
X143765259Y-65034002D01*
X143765259Y-65161374D01*
X143511246Y-65161374D01*
G37*
G36*
X143638008Y-65542027D02*
G01*
X143638008Y-65414654D01*
X143765259Y-65414654D01*
X143765259Y-65542027D01*
X143638008Y-65542027D01*
G37*
G36*
X143765259Y-65414654D02*
G01*
X143765259Y-65162962D01*
X143892021Y-65162962D01*
X143892021Y-65414654D01*
X143765259Y-65414654D01*
G37*
G36*
X144020004Y-65669399D02*
G01*
X144020004Y-65034002D01*
X144147255Y-65034002D01*
X144147255Y-65542027D01*
X144274017Y-65542027D01*
X144274017Y-65288014D01*
X144401267Y-65288014D01*
X144401267Y-65542027D01*
X144529983Y-65542027D01*
X144529983Y-65669399D01*
X144401267Y-65669399D01*
X144401267Y-65925000D01*
X144274017Y-65925000D01*
X144274017Y-65669399D01*
X144020004Y-65669399D01*
G37*
G36*
X143259921Y-68297627D02*
G01*
X143259921Y-68425000D01*
X142876948Y-68425000D01*
X142876948Y-68297627D01*
X143003710Y-68297627D01*
X143003710Y-67788014D01*
X142876948Y-67788014D01*
X142876948Y-67660642D01*
X143003710Y-67660642D01*
X143003710Y-67534002D01*
X143130960Y-67534002D01*
X143130960Y-68297627D01*
X143259921Y-68297627D01*
G37*
G36*
X143383996Y-68296039D02*
G01*
X143383996Y-67659054D01*
X143511246Y-67659054D01*
X143511246Y-67914654D01*
X143639962Y-67914654D01*
X143639962Y-68042027D01*
X143511246Y-68042027D01*
X143511246Y-68296039D01*
X143383996Y-68296039D01*
G37*
G36*
X143512956Y-68297627D02*
G01*
X143766969Y-68297627D01*
X143766969Y-68425000D01*
X143512956Y-68425000D01*
X143512956Y-68297627D01*
G37*
G36*
X143512956Y-67661374D02*
G01*
X143512956Y-67534002D01*
X143766969Y-67534002D01*
X143766969Y-67661374D01*
X143512956Y-67661374D01*
G37*
G36*
X143639962Y-67915387D02*
G01*
X143639962Y-67788014D01*
X143766969Y-67788014D01*
X143766969Y-67659054D01*
X143892021Y-67659054D01*
X143892021Y-68296039D01*
X143766969Y-68296039D01*
X143766969Y-67915387D01*
X143639962Y-67915387D01*
G37*
G36*
X144020004Y-68296039D02*
G01*
X144020004Y-67659054D01*
X144147255Y-67659054D01*
X144147255Y-67914654D01*
X144275971Y-67914654D01*
X144275971Y-68042027D01*
X144147255Y-68042027D01*
X144147255Y-68296039D01*
X144020004Y-68296039D01*
G37*
G36*
X144148964Y-68297627D02*
G01*
X144402977Y-68297627D01*
X144402977Y-68425000D01*
X144148964Y-68425000D01*
X144148964Y-68297627D01*
G37*
G36*
X144148964Y-67661374D02*
G01*
X144148964Y-67534002D01*
X144402977Y-67534002D01*
X144402977Y-67661374D01*
X144148964Y-67661374D01*
G37*
G36*
X144275971Y-67915387D02*
G01*
X144275971Y-67788014D01*
X144402977Y-67788014D01*
X144402977Y-67659054D01*
X144528029Y-67659054D01*
X144528029Y-68296039D01*
X144402977Y-68296039D01*
X144402977Y-67915387D01*
X144275971Y-67915387D01*
G37*
G36*
X142747988Y-53046039D02*
G01*
X142747988Y-52663066D01*
X142875238Y-52663066D01*
X142875238Y-53046039D01*
X142747988Y-53046039D01*
G37*
G36*
X142876948Y-53047627D02*
G01*
X143130960Y-53047627D01*
X143130960Y-52665387D01*
X142876948Y-52665387D01*
X142876948Y-52538014D01*
X143256013Y-52538014D01*
X143256013Y-53301639D01*
X143130960Y-53301639D01*
X143130960Y-53175000D01*
X142876948Y-53175000D01*
X142876948Y-53047627D01*
G37*
G36*
X142876948Y-53429012D02*
G01*
X142876948Y-53301639D01*
X143130960Y-53301639D01*
X143130960Y-53429012D01*
X142876948Y-53429012D01*
G37*
G36*
X143383996Y-53175000D02*
G01*
X143383996Y-52538014D01*
X143765809Y-52538014D01*
X143765809Y-52665387D01*
X143511246Y-52665387D01*
X143511246Y-53175000D01*
X143383996Y-53175000D01*
G37*
G36*
X143892021Y-53175000D02*
G01*
X143765809Y-53175000D01*
X143765809Y-52666974D01*
X143892021Y-52666974D01*
X143892021Y-53175000D01*
G37*
G36*
X144020004Y-53047627D02*
G01*
X144020004Y-52666974D01*
X144147255Y-52666974D01*
X144147255Y-53047627D01*
X144020004Y-53047627D01*
G37*
G36*
X144528029Y-53175000D02*
G01*
X144147255Y-53175000D01*
X144147255Y-53047627D01*
X144400779Y-53047627D01*
X144400779Y-52665387D01*
X144147255Y-52665387D01*
X144147255Y-52538014D01*
X144400779Y-52538014D01*
X144400779Y-52284002D01*
X144528029Y-52284002D01*
X144528029Y-53175000D01*
G37*
G36*
X148247988Y-50046039D02*
G01*
X148247988Y-49663066D01*
X148375238Y-49663066D01*
X148375238Y-50046039D01*
X148247988Y-50046039D01*
G37*
G36*
X148376948Y-50047627D02*
G01*
X148630960Y-50047627D01*
X148630960Y-49665387D01*
X148376948Y-49665387D01*
X148376948Y-49538014D01*
X148756013Y-49538014D01*
X148756013Y-50301639D01*
X148630960Y-50301639D01*
X148630960Y-50175000D01*
X148376948Y-50175000D01*
X148376948Y-50047627D01*
G37*
G36*
X148376948Y-50429012D02*
G01*
X148376948Y-50301639D01*
X148630960Y-50301639D01*
X148630960Y-50429012D01*
X148376948Y-50429012D01*
G37*
G36*
X148883996Y-50175000D02*
G01*
X148883996Y-49538014D01*
X149265809Y-49538014D01*
X149265809Y-49665387D01*
X149011246Y-49665387D01*
X149011246Y-50175000D01*
X148883996Y-50175000D01*
G37*
G36*
X149392021Y-50175000D02*
G01*
X149265809Y-50175000D01*
X149265809Y-49666974D01*
X149392021Y-49666974D01*
X149392021Y-50175000D01*
G37*
G36*
X149520004Y-50047627D02*
G01*
X149520004Y-49666974D01*
X149647255Y-49666974D01*
X149647255Y-50047627D01*
X149520004Y-50047627D01*
G37*
G36*
X150028029Y-50175000D02*
G01*
X149647255Y-50175000D01*
X149647255Y-50047627D01*
X149900779Y-50047627D01*
X149900779Y-49665387D01*
X149647255Y-49665387D01*
X149647255Y-49538014D01*
X149900779Y-49538014D01*
X149900779Y-49284002D01*
X150028029Y-49284002D01*
X150028029Y-50175000D01*
G37*
G36*
X148247988Y-52675000D02*
G01*
X148247988Y-52038014D01*
X148629800Y-52038014D01*
X148629800Y-52165387D01*
X148375238Y-52165387D01*
X148375238Y-52675000D01*
X148247988Y-52675000D01*
G37*
G36*
X148756013Y-52164654D02*
G01*
X148756013Y-52292027D01*
X148629800Y-52292027D01*
X148629800Y-52164654D01*
X148756013Y-52164654D01*
G37*
G36*
X148883996Y-52675000D02*
G01*
X148883996Y-52547627D01*
X149266969Y-52547627D01*
X149266969Y-52675000D01*
X148883996Y-52675000D01*
G37*
G36*
X148883996Y-52292027D02*
G01*
X148883996Y-52164654D01*
X149011246Y-52164654D01*
X149011246Y-52292027D01*
X148883996Y-52292027D01*
G37*
G36*
X149012956Y-52419399D02*
G01*
X149012956Y-52292027D01*
X149266969Y-52292027D01*
X149266969Y-52419399D01*
X149012956Y-52419399D01*
G37*
G36*
X149012956Y-52165387D02*
G01*
X149012956Y-52038014D01*
X149392021Y-52038014D01*
X149392021Y-52165387D01*
X149012956Y-52165387D01*
G37*
G36*
X149266969Y-52420987D02*
G01*
X149392021Y-52420987D01*
X149392021Y-52547627D01*
X149266969Y-52547627D01*
X149266969Y-52420987D01*
G37*
G36*
X149520004Y-52165387D02*
G01*
X149520004Y-52038014D01*
X149646766Y-52038014D01*
X149646766Y-51784002D01*
X149774017Y-51784002D01*
X149774017Y-52038014D01*
X150028029Y-52038014D01*
X150028029Y-52165387D01*
X149774017Y-52165387D01*
X149774017Y-52549947D01*
X149646766Y-52549947D01*
X149646766Y-52165387D01*
X149520004Y-52165387D01*
G37*
G36*
X149774017Y-52547627D02*
G01*
X150028029Y-52547627D01*
X150028029Y-52675000D01*
X149774017Y-52675000D01*
X149774017Y-52547627D01*
G37*
G36*
X148497988Y-75296039D02*
G01*
X148497988Y-74659054D01*
X148625238Y-74659054D01*
X148625238Y-74914654D01*
X148753954Y-74914654D01*
X148753954Y-75042027D01*
X148625238Y-75042027D01*
X148625238Y-75296039D01*
X148497988Y-75296039D01*
G37*
G36*
X148626948Y-75297627D02*
G01*
X148880960Y-75297627D01*
X148880960Y-75425000D01*
X148626948Y-75425000D01*
X148626948Y-75297627D01*
G37*
G36*
X148626948Y-74661374D02*
G01*
X148626948Y-74534002D01*
X148880960Y-74534002D01*
X148880960Y-74661374D01*
X148626948Y-74661374D01*
G37*
G36*
X148753954Y-74915387D02*
G01*
X148753954Y-74788014D01*
X148880960Y-74788014D01*
X148880960Y-74659054D01*
X149006013Y-74659054D01*
X149006013Y-75296039D01*
X148880960Y-75296039D01*
X148880960Y-74915387D01*
X148753954Y-74915387D01*
G37*
G36*
X149133996Y-75296039D02*
G01*
X149133996Y-74659054D01*
X149261246Y-74659054D01*
X149261246Y-74914654D01*
X149389962Y-74914654D01*
X149389962Y-75042027D01*
X149261246Y-75042027D01*
X149261246Y-75296039D01*
X149133996Y-75296039D01*
G37*
G36*
X149262956Y-75297627D02*
G01*
X149516969Y-75297627D01*
X149516969Y-75425000D01*
X149262956Y-75425000D01*
X149262956Y-75297627D01*
G37*
G36*
X149262956Y-74661374D02*
G01*
X149262956Y-74534002D01*
X149516969Y-74534002D01*
X149516969Y-74661374D01*
X149262956Y-74661374D01*
G37*
G36*
X149389962Y-74915387D02*
G01*
X149389962Y-74788014D01*
X149516969Y-74788014D01*
X149516969Y-74659054D01*
X149642021Y-74659054D01*
X149642021Y-75296039D01*
X149516969Y-75296039D01*
X149516969Y-74915387D01*
X149389962Y-74915387D01*
G37*
G36*
X149770004Y-75297627D02*
G01*
X149770004Y-75170987D01*
X149897255Y-75170987D01*
X149897255Y-75297627D01*
X149770004Y-75297627D01*
G37*
G36*
X149770004Y-74914654D02*
G01*
X149770004Y-74662962D01*
X149897255Y-74662962D01*
X149897255Y-74914654D01*
X149770004Y-74914654D01*
G37*
G36*
X149898964Y-75297627D02*
G01*
X150152977Y-75297627D01*
X150152977Y-75425000D01*
X149898964Y-75425000D01*
X149898964Y-75297627D01*
G37*
G36*
X149898964Y-74914654D02*
G01*
X150152977Y-74914654D01*
X150152977Y-74662962D01*
X150278029Y-74662962D01*
X150278029Y-75297627D01*
X150152977Y-75297627D01*
X150152977Y-75042027D01*
X149898964Y-75042027D01*
X149898964Y-74914654D01*
G37*
G36*
X149898964Y-74661374D02*
G01*
X149898964Y-74534002D01*
X150152977Y-74534002D01*
X150152977Y-74661374D01*
X149898964Y-74661374D01*
G37*
G36*
X142747988Y-50546039D02*
G01*
X142747988Y-49909054D01*
X142875238Y-49909054D01*
X142875238Y-50164654D01*
X143003954Y-50164654D01*
X143003954Y-50292027D01*
X142875238Y-50292027D01*
X142875238Y-50546039D01*
X142747988Y-50546039D01*
G37*
G36*
X142876948Y-50547627D02*
G01*
X143130960Y-50547627D01*
X143130960Y-50675000D01*
X142876948Y-50675000D01*
X142876948Y-50547627D01*
G37*
G36*
X142876948Y-49911374D02*
G01*
X142876948Y-49784002D01*
X143130960Y-49784002D01*
X143130960Y-49911374D01*
X142876948Y-49911374D01*
G37*
G36*
X143003954Y-50165387D02*
G01*
X143003954Y-50038014D01*
X143130960Y-50038014D01*
X143130960Y-49909054D01*
X143256013Y-49909054D01*
X143256013Y-50546039D01*
X143130960Y-50546039D01*
X143130960Y-50165387D01*
X143003954Y-50165387D01*
G37*
G36*
X143383996Y-50546039D02*
G01*
X143383996Y-49909054D01*
X143511246Y-49909054D01*
X143511246Y-50164654D01*
X143639962Y-50164654D01*
X143639962Y-50292027D01*
X143511246Y-50292027D01*
X143511246Y-50546039D01*
X143383996Y-50546039D01*
G37*
G36*
X143512956Y-50547627D02*
G01*
X143766969Y-50547627D01*
X143766969Y-50675000D01*
X143512956Y-50675000D01*
X143512956Y-50547627D01*
G37*
G36*
X143512956Y-49911374D02*
G01*
X143512956Y-49784002D01*
X143766969Y-49784002D01*
X143766969Y-49911374D01*
X143512956Y-49911374D01*
G37*
G36*
X143639962Y-50165387D02*
G01*
X143639962Y-50038014D01*
X143766969Y-50038014D01*
X143766969Y-49909054D01*
X143892021Y-49909054D01*
X143892021Y-50546039D01*
X143766969Y-50546039D01*
X143766969Y-50165387D01*
X143639962Y-50165387D01*
G37*
G36*
X144020004Y-50546039D02*
G01*
X144020004Y-50292027D01*
X144147255Y-50292027D01*
X144147255Y-50546039D01*
X144020004Y-50546039D01*
G37*
G36*
X144020004Y-50164654D02*
G01*
X144020004Y-49912962D01*
X144147255Y-49912962D01*
X144147255Y-50164654D01*
X144020004Y-50164654D01*
G37*
G36*
X144148964Y-50547627D02*
G01*
X144402977Y-50547627D01*
X144402977Y-50675000D01*
X144148964Y-50675000D01*
X144148964Y-50547627D01*
G37*
G36*
X144148964Y-50164654D02*
G01*
X144402977Y-50164654D01*
X144402977Y-50292027D01*
X144148964Y-50292027D01*
X144148964Y-50164654D01*
G37*
G36*
X144148964Y-49911374D02*
G01*
X144148964Y-49784002D01*
X144402977Y-49784002D01*
X144402977Y-49911374D01*
X144148964Y-49911374D01*
G37*
G36*
X144402977Y-50546039D02*
G01*
X144402977Y-50292027D01*
X144528029Y-50292027D01*
X144528029Y-50546039D01*
X144402977Y-50546039D01*
G37*
G36*
X144402977Y-50164654D02*
G01*
X144402977Y-49912962D01*
X144528029Y-49912962D01*
X144528029Y-50164654D01*
X144402977Y-50164654D01*
G37*
G36*
X149009921Y-65297627D02*
G01*
X149009921Y-65425000D01*
X148626948Y-65425000D01*
X148626948Y-65297627D01*
X148753710Y-65297627D01*
X148753710Y-64788014D01*
X148626948Y-64788014D01*
X148626948Y-64660642D01*
X148753710Y-64660642D01*
X148753710Y-64534002D01*
X148880960Y-64534002D01*
X148880960Y-65297627D01*
X149009921Y-65297627D01*
G37*
G36*
X149645929Y-65297627D02*
G01*
X149645929Y-65425000D01*
X149262956Y-65425000D01*
X149262956Y-65297627D01*
X149389718Y-65297627D01*
X149389718Y-64788014D01*
X149262956Y-64788014D01*
X149262956Y-64660642D01*
X149389718Y-64660642D01*
X149389718Y-64534002D01*
X149516969Y-64534002D01*
X149516969Y-65297627D01*
X149645929Y-65297627D01*
G37*
G36*
X149770004Y-65297627D02*
G01*
X149770004Y-65170987D01*
X149897255Y-65170987D01*
X149897255Y-65297627D01*
X149770004Y-65297627D01*
G37*
G36*
X149770004Y-64915387D02*
G01*
X149770004Y-64534002D01*
X150278029Y-64534002D01*
X150278029Y-64661374D01*
X149897255Y-64661374D01*
X149897255Y-64788014D01*
X150152977Y-64788014D01*
X150152977Y-64915387D01*
X149770004Y-64915387D01*
G37*
G36*
X149898964Y-65297627D02*
G01*
X150152977Y-65297627D01*
X150152977Y-65425000D01*
X149898964Y-65425000D01*
X149898964Y-65297627D01*
G37*
G36*
X150152977Y-65297627D02*
G01*
X150152977Y-64914654D01*
X150278029Y-64914654D01*
X150278029Y-65297627D01*
X150152977Y-65297627D01*
G37*
G36*
X148355177Y-57516599D02*
G01*
X148355177Y-56879614D01*
X148482427Y-56879614D01*
X148482427Y-57135214D01*
X148611143Y-57135214D01*
X148611143Y-57262587D01*
X148482427Y-57262587D01*
X148482427Y-57516599D01*
X148355177Y-57516599D01*
G37*
G36*
X148484137Y-57518187D02*
G01*
X148738149Y-57518187D01*
X148738149Y-57645560D01*
X148484137Y-57645560D01*
X148484137Y-57518187D01*
G37*
G36*
X148484137Y-56881934D02*
G01*
X148484137Y-56754562D01*
X148738149Y-56754562D01*
X148738149Y-56881934D01*
X148484137Y-56881934D01*
G37*
G36*
X148611143Y-57135947D02*
G01*
X148611143Y-57008574D01*
X148738149Y-57008574D01*
X148738149Y-56879614D01*
X148863202Y-56879614D01*
X148863202Y-57516599D01*
X148738149Y-57516599D01*
X148738149Y-57135947D01*
X148611143Y-57135947D01*
G37*
G36*
X148991185Y-57518187D02*
G01*
X148991185Y-57391547D01*
X149118435Y-57391547D01*
X149118435Y-57518187D01*
X148991185Y-57518187D01*
G37*
G36*
X148991185Y-56881934D02*
G01*
X148991185Y-56754562D01*
X149499210Y-56754562D01*
X149499210Y-57008574D01*
X149372448Y-57008574D01*
X149372448Y-56881934D01*
X148991185Y-56881934D01*
G37*
G36*
X149118435Y-57518187D02*
G01*
X149372448Y-57518187D01*
X149372448Y-57645560D01*
X149118435Y-57645560D01*
X149118435Y-57518187D01*
G37*
G36*
X149118435Y-57262587D02*
G01*
X149118435Y-57135214D01*
X149245197Y-57135214D01*
X149245197Y-57262587D01*
X149118435Y-57262587D01*
G37*
G36*
X149245197Y-57135947D02*
G01*
X149245197Y-57008574D01*
X149372448Y-57008574D01*
X149372448Y-57135947D01*
X149245197Y-57135947D01*
G37*
G36*
X149372448Y-57518187D02*
G01*
X149372448Y-57135214D01*
X149499210Y-57135214D01*
X149499210Y-57518187D01*
X149372448Y-57518187D01*
G37*
G36*
X150139126Y-57518187D02*
G01*
X150139126Y-57645560D01*
X149756153Y-57645560D01*
X149756153Y-57518187D01*
X149882916Y-57518187D01*
X149882916Y-57008574D01*
X149756153Y-57008574D01*
X149756153Y-56881202D01*
X149882916Y-56881202D01*
X149882916Y-56754562D01*
X150010166Y-56754562D01*
X150010166Y-57518187D01*
X150139126Y-57518187D01*
G37*
G36*
X148247988Y-47425000D02*
G01*
X148247988Y-46788014D01*
X148629800Y-46788014D01*
X148629800Y-46915387D01*
X148375238Y-46915387D01*
X148375238Y-47425000D01*
X148247988Y-47425000D01*
G37*
G36*
X148756013Y-46914654D02*
G01*
X148756013Y-47042027D01*
X148629800Y-47042027D01*
X148629800Y-46914654D01*
X148756013Y-46914654D01*
G37*
G36*
X148883996Y-47297627D02*
G01*
X148883996Y-46914654D01*
X149011246Y-46914654D01*
X149011246Y-47297627D01*
X148883996Y-47297627D01*
G37*
G36*
X149011246Y-47297627D02*
G01*
X149138008Y-47297627D01*
X149138008Y-47425000D01*
X149011246Y-47425000D01*
X149011246Y-47297627D01*
G37*
G36*
X149011246Y-46915387D02*
G01*
X149011246Y-46788014D01*
X149392021Y-46788014D01*
X149392021Y-47425000D01*
X149264770Y-47425000D01*
X149264770Y-47297627D01*
X149138008Y-47297627D01*
X149138008Y-47170987D01*
X149264770Y-47170987D01*
X149264770Y-46915387D01*
X149011246Y-46915387D01*
G37*
G36*
X149520004Y-47425000D02*
G01*
X149520004Y-46788014D01*
X149647255Y-46788014D01*
X149647255Y-47170987D01*
X149900779Y-47170987D01*
X149900779Y-46788014D01*
X150028029Y-46788014D01*
X150028029Y-47425000D01*
X149900779Y-47425000D01*
X149900779Y-47298360D01*
X149647255Y-47298360D01*
X149647255Y-47425000D01*
X149520004Y-47425000D01*
G37*
G36*
X142747988Y-55546039D02*
G01*
X142747988Y-55163066D01*
X142875238Y-55163066D01*
X142875238Y-55546039D01*
X142747988Y-55546039D01*
G37*
G36*
X142876948Y-55547627D02*
G01*
X143130960Y-55547627D01*
X143130960Y-55165387D01*
X142876948Y-55165387D01*
X142876948Y-55038014D01*
X143256013Y-55038014D01*
X143256013Y-55801639D01*
X143130960Y-55801639D01*
X143130960Y-55675000D01*
X142876948Y-55675000D01*
X142876948Y-55547627D01*
G37*
G36*
X142876948Y-55929012D02*
G01*
X142876948Y-55801639D01*
X143130960Y-55801639D01*
X143130960Y-55929012D01*
X142876948Y-55929012D01*
G37*
G36*
X143383996Y-55675000D02*
G01*
X143383996Y-55038014D01*
X143765809Y-55038014D01*
X143765809Y-55165387D01*
X143511246Y-55165387D01*
X143511246Y-55675000D01*
X143383996Y-55675000D01*
G37*
G36*
X143892021Y-55675000D02*
G01*
X143765809Y-55675000D01*
X143765809Y-55166974D01*
X143892021Y-55166974D01*
X143892021Y-55675000D01*
G37*
G36*
X144020004Y-55547627D02*
G01*
X144020004Y-55166974D01*
X144147255Y-55166974D01*
X144147255Y-55547627D01*
X144020004Y-55547627D01*
G37*
G36*
X144528029Y-55675000D02*
G01*
X144147255Y-55675000D01*
X144147255Y-55547627D01*
X144400779Y-55547627D01*
X144400779Y-55165387D01*
X144147255Y-55165387D01*
X144147255Y-55038014D01*
X144400779Y-55038014D01*
X144400779Y-54784002D01*
X144528029Y-54784002D01*
X144528029Y-55675000D01*
G37*
G36*
X148497988Y-62796039D02*
G01*
X148497988Y-62159054D01*
X148625238Y-62159054D01*
X148625238Y-62414654D01*
X148753954Y-62414654D01*
X148753954Y-62542027D01*
X148625238Y-62542027D01*
X148625238Y-62796039D01*
X148497988Y-62796039D01*
G37*
G36*
X148626948Y-62797627D02*
G01*
X148880960Y-62797627D01*
X148880960Y-62925000D01*
X148626948Y-62925000D01*
X148626948Y-62797627D01*
G37*
G36*
X148626948Y-62161374D02*
G01*
X148626948Y-62034002D01*
X148880960Y-62034002D01*
X148880960Y-62161374D01*
X148626948Y-62161374D01*
G37*
G36*
X148753954Y-62415387D02*
G01*
X148753954Y-62288014D01*
X148880960Y-62288014D01*
X148880960Y-62159054D01*
X149006013Y-62159054D01*
X149006013Y-62796039D01*
X148880960Y-62796039D01*
X148880960Y-62415387D01*
X148753954Y-62415387D01*
G37*
G36*
X149133996Y-62796039D02*
G01*
X149133996Y-62159054D01*
X149261246Y-62159054D01*
X149261246Y-62414654D01*
X149389962Y-62414654D01*
X149389962Y-62542027D01*
X149261246Y-62542027D01*
X149261246Y-62796039D01*
X149133996Y-62796039D01*
G37*
G36*
X149262956Y-62797627D02*
G01*
X149516969Y-62797627D01*
X149516969Y-62925000D01*
X149262956Y-62925000D01*
X149262956Y-62797627D01*
G37*
G36*
X149262956Y-62161374D02*
G01*
X149262956Y-62034002D01*
X149516969Y-62034002D01*
X149516969Y-62161374D01*
X149262956Y-62161374D01*
G37*
G36*
X149389962Y-62415387D02*
G01*
X149389962Y-62288014D01*
X149516969Y-62288014D01*
X149516969Y-62159054D01*
X149642021Y-62159054D01*
X149642021Y-62796039D01*
X149516969Y-62796039D01*
X149516969Y-62415387D01*
X149389962Y-62415387D01*
G37*
G36*
X149770004Y-62669399D02*
G01*
X149897255Y-62669399D01*
X149897255Y-62797627D01*
X150278029Y-62797627D01*
X150278029Y-62925000D01*
X149770004Y-62925000D01*
X149770004Y-62669399D01*
G37*
G36*
X149770004Y-62290334D02*
G01*
X149770004Y-62162962D01*
X149897255Y-62162962D01*
X149897255Y-62290334D01*
X149770004Y-62290334D01*
G37*
G36*
X149897255Y-62669399D02*
G01*
X149897255Y-62542027D01*
X150024017Y-62542027D01*
X150024017Y-62669399D01*
X149897255Y-62669399D01*
G37*
G36*
X149897255Y-62161374D02*
G01*
X149897255Y-62034002D01*
X150151267Y-62034002D01*
X150151267Y-62161374D01*
X149897255Y-62161374D01*
G37*
G36*
X150024017Y-62542027D02*
G01*
X150024017Y-62414654D01*
X150151267Y-62414654D01*
X150151267Y-62542027D01*
X150024017Y-62542027D01*
G37*
G36*
X150151267Y-62414654D02*
G01*
X150151267Y-62162962D01*
X150278029Y-62162962D01*
X150278029Y-62414654D01*
X150151267Y-62414654D01*
G37*
G36*
X149009921Y-67797627D02*
G01*
X149009921Y-67925000D01*
X148626948Y-67925000D01*
X148626948Y-67797627D01*
X148753710Y-67797627D01*
X148753710Y-67288014D01*
X148626948Y-67288014D01*
X148626948Y-67160642D01*
X148753710Y-67160642D01*
X148753710Y-67034002D01*
X148880960Y-67034002D01*
X148880960Y-67797627D01*
X149009921Y-67797627D01*
G37*
G36*
X149645929Y-67797627D02*
G01*
X149645929Y-67925000D01*
X149262956Y-67925000D01*
X149262956Y-67797627D01*
X149389718Y-67797627D01*
X149389718Y-67288014D01*
X149262956Y-67288014D01*
X149262956Y-67160642D01*
X149389718Y-67160642D01*
X149389718Y-67034002D01*
X149516969Y-67034002D01*
X149516969Y-67797627D01*
X149645929Y-67797627D01*
G37*
G36*
X149770004Y-67797627D02*
G01*
X149770004Y-67670987D01*
X149897255Y-67670987D01*
X149897255Y-67797627D01*
X149770004Y-67797627D01*
G37*
G36*
X149770004Y-67161374D02*
G01*
X149770004Y-67034002D01*
X150278029Y-67034002D01*
X150278029Y-67288014D01*
X150151267Y-67288014D01*
X150151267Y-67161374D01*
X149770004Y-67161374D01*
G37*
G36*
X149897255Y-67797627D02*
G01*
X150151267Y-67797627D01*
X150151267Y-67925000D01*
X149897255Y-67925000D01*
X149897255Y-67797627D01*
G37*
G36*
X149897255Y-67542027D02*
G01*
X149897255Y-67414654D01*
X150024017Y-67414654D01*
X150024017Y-67542027D01*
X149897255Y-67542027D01*
G37*
G36*
X150024017Y-67415387D02*
G01*
X150024017Y-67288014D01*
X150151267Y-67288014D01*
X150151267Y-67415387D01*
X150024017Y-67415387D01*
G37*
G36*
X150151267Y-67797627D02*
G01*
X150151267Y-67414654D01*
X150278029Y-67414654D01*
X150278029Y-67797627D01*
X150151267Y-67797627D01*
G37*
G36*
X148497988Y-72796039D02*
G01*
X148497988Y-72159054D01*
X148625238Y-72159054D01*
X148625238Y-72414654D01*
X148753954Y-72414654D01*
X148753954Y-72542027D01*
X148625238Y-72542027D01*
X148625238Y-72796039D01*
X148497988Y-72796039D01*
G37*
G36*
X148626948Y-72797627D02*
G01*
X148880960Y-72797627D01*
X148880960Y-72925000D01*
X148626948Y-72925000D01*
X148626948Y-72797627D01*
G37*
G36*
X148626948Y-72161374D02*
G01*
X148626948Y-72034002D01*
X148880960Y-72034002D01*
X148880960Y-72161374D01*
X148626948Y-72161374D01*
G37*
G36*
X148753954Y-72415387D02*
G01*
X148753954Y-72288014D01*
X148880960Y-72288014D01*
X148880960Y-72159054D01*
X149006013Y-72159054D01*
X149006013Y-72796039D01*
X148880960Y-72796039D01*
X148880960Y-72415387D01*
X148753954Y-72415387D01*
G37*
G36*
X149645929Y-72797627D02*
G01*
X149645929Y-72925000D01*
X149262956Y-72925000D01*
X149262956Y-72797627D01*
X149389718Y-72797627D01*
X149389718Y-72288014D01*
X149262956Y-72288014D01*
X149262956Y-72160642D01*
X149389718Y-72160642D01*
X149389718Y-72034002D01*
X149516969Y-72034002D01*
X149516969Y-72797627D01*
X149645929Y-72797627D01*
G37*
G36*
X149770004Y-72796039D02*
G01*
X149770004Y-72159054D01*
X149897255Y-72159054D01*
X149897255Y-72414654D01*
X150025971Y-72414654D01*
X150025971Y-72542027D01*
X149897255Y-72542027D01*
X149897255Y-72796039D01*
X149770004Y-72796039D01*
G37*
G36*
X149898964Y-72797627D02*
G01*
X150152977Y-72797627D01*
X150152977Y-72925000D01*
X149898964Y-72925000D01*
X149898964Y-72797627D01*
G37*
G36*
X149898964Y-72161374D02*
G01*
X149898964Y-72034002D01*
X150152977Y-72034002D01*
X150152977Y-72161374D01*
X149898964Y-72161374D01*
G37*
G36*
X150025971Y-72415387D02*
G01*
X150025971Y-72288014D01*
X150152977Y-72288014D01*
X150152977Y-72159054D01*
X150278029Y-72159054D01*
X150278029Y-72796039D01*
X150152977Y-72796039D01*
X150152977Y-72415387D01*
X150025971Y-72415387D01*
G37*
G36*
X142747988Y-48046039D02*
G01*
X142747988Y-47409054D01*
X142875238Y-47409054D01*
X142875238Y-47664654D01*
X143003954Y-47664654D01*
X143003954Y-47792027D01*
X142875238Y-47792027D01*
X142875238Y-48046039D01*
X142747988Y-48046039D01*
G37*
G36*
X142876948Y-48047627D02*
G01*
X143130960Y-48047627D01*
X143130960Y-48175000D01*
X142876948Y-48175000D01*
X142876948Y-48047627D01*
G37*
G36*
X142876948Y-47411374D02*
G01*
X142876948Y-47284002D01*
X143130960Y-47284002D01*
X143130960Y-47411374D01*
X142876948Y-47411374D01*
G37*
G36*
X143003954Y-47665387D02*
G01*
X143003954Y-47538014D01*
X143130960Y-47538014D01*
X143130960Y-47409054D01*
X143256013Y-47409054D01*
X143256013Y-48046039D01*
X143130960Y-48046039D01*
X143130960Y-47665387D01*
X143003954Y-47665387D01*
G37*
G36*
X143383996Y-48046039D02*
G01*
X143383996Y-47409054D01*
X143511246Y-47409054D01*
X143511246Y-47664654D01*
X143639962Y-47664654D01*
X143639962Y-47792027D01*
X143511246Y-47792027D01*
X143511246Y-48046039D01*
X143383996Y-48046039D01*
G37*
G36*
X143512956Y-48047627D02*
G01*
X143766969Y-48047627D01*
X143766969Y-48175000D01*
X143512956Y-48175000D01*
X143512956Y-48047627D01*
G37*
G36*
X143512956Y-47411374D02*
G01*
X143512956Y-47284002D01*
X143766969Y-47284002D01*
X143766969Y-47411374D01*
X143512956Y-47411374D01*
G37*
G36*
X143639962Y-47665387D02*
G01*
X143639962Y-47538014D01*
X143766969Y-47538014D01*
X143766969Y-47409054D01*
X143892021Y-47409054D01*
X143892021Y-48046039D01*
X143766969Y-48046039D01*
X143766969Y-47665387D01*
X143639962Y-47665387D01*
G37*
G36*
X144020004Y-48046039D02*
G01*
X144020004Y-47410642D01*
X144147255Y-47410642D01*
X144147255Y-47664654D01*
X144402977Y-47664654D01*
X144402977Y-47792027D01*
X144147255Y-47792027D01*
X144147255Y-48046039D01*
X144020004Y-48046039D01*
G37*
G36*
X144148964Y-48047627D02*
G01*
X144402977Y-48047627D01*
X144402977Y-48175000D01*
X144148964Y-48175000D01*
X144148964Y-48047627D01*
G37*
G36*
X144148964Y-47411374D02*
G01*
X144148964Y-47284002D01*
X144402977Y-47284002D01*
X144402977Y-47411374D01*
X144148964Y-47411374D01*
G37*
G36*
X144402977Y-48046039D02*
G01*
X144402977Y-47792027D01*
X144528029Y-47792027D01*
X144528029Y-48046039D01*
X144402977Y-48046039D01*
G37*
G36*
X144402977Y-47538014D02*
G01*
X144402977Y-47410642D01*
X144528029Y-47410642D01*
X144528029Y-47538014D01*
X144402977Y-47538014D01*
G37*
G36*
X142747988Y-63046039D02*
G01*
X142747988Y-62409054D01*
X142875238Y-62409054D01*
X142875238Y-62664654D01*
X143003954Y-62664654D01*
X143003954Y-62792027D01*
X142875238Y-62792027D01*
X142875238Y-63046039D01*
X142747988Y-63046039D01*
G37*
G36*
X142876948Y-63047627D02*
G01*
X143130960Y-63047627D01*
X143130960Y-63175000D01*
X142876948Y-63175000D01*
X142876948Y-63047627D01*
G37*
G36*
X142876948Y-62411374D02*
G01*
X142876948Y-62284002D01*
X143130960Y-62284002D01*
X143130960Y-62411374D01*
X142876948Y-62411374D01*
G37*
G36*
X143003954Y-62665387D02*
G01*
X143003954Y-62538014D01*
X143130960Y-62538014D01*
X143130960Y-62409054D01*
X143256013Y-62409054D01*
X143256013Y-63046039D01*
X143130960Y-63046039D01*
X143130960Y-62665387D01*
X143003954Y-62665387D01*
G37*
G36*
X143383996Y-62919399D02*
G01*
X143511246Y-62919399D01*
X143511246Y-63047627D01*
X143892021Y-63047627D01*
X143892021Y-63175000D01*
X143383996Y-63175000D01*
X143383996Y-62919399D01*
G37*
G36*
X143383996Y-62540334D02*
G01*
X143383996Y-62412962D01*
X143511246Y-62412962D01*
X143511246Y-62540334D01*
X143383996Y-62540334D01*
G37*
G36*
X143511246Y-62919399D02*
G01*
X143511246Y-62792027D01*
X143638008Y-62792027D01*
X143638008Y-62919399D01*
X143511246Y-62919399D01*
G37*
G36*
X143511246Y-62411374D02*
G01*
X143511246Y-62284002D01*
X143765259Y-62284002D01*
X143765259Y-62411374D01*
X143511246Y-62411374D01*
G37*
G36*
X143638008Y-62792027D02*
G01*
X143638008Y-62664654D01*
X143765259Y-62664654D01*
X143765259Y-62792027D01*
X143638008Y-62792027D01*
G37*
G36*
X143765259Y-62664654D02*
G01*
X143765259Y-62412962D01*
X143892021Y-62412962D01*
X143892021Y-62664654D01*
X143765259Y-62664654D01*
G37*
G36*
X144020004Y-62919399D02*
G01*
X144147255Y-62919399D01*
X144147255Y-63047627D01*
X144528029Y-63047627D01*
X144528029Y-63175000D01*
X144020004Y-63175000D01*
X144020004Y-62919399D01*
G37*
G36*
X144020004Y-62540334D02*
G01*
X144020004Y-62412962D01*
X144147255Y-62412962D01*
X144147255Y-62540334D01*
X144020004Y-62540334D01*
G37*
G36*
X144147255Y-62919399D02*
G01*
X144147255Y-62792027D01*
X144274017Y-62792027D01*
X144274017Y-62919399D01*
X144147255Y-62919399D01*
G37*
G36*
X144147255Y-62411374D02*
G01*
X144147255Y-62284002D01*
X144401267Y-62284002D01*
X144401267Y-62411374D01*
X144147255Y-62411374D01*
G37*
G36*
X144274017Y-62792027D02*
G01*
X144274017Y-62664654D01*
X144401267Y-62664654D01*
X144401267Y-62792027D01*
X144274017Y-62792027D01*
G37*
G36*
X144401267Y-62664654D02*
G01*
X144401267Y-62412962D01*
X144528029Y-62412962D01*
X144528029Y-62664654D01*
X144401267Y-62664654D01*
G37*
G36*
X121244025Y-52088162D02*
G01*
X121244025Y-51960789D01*
X121626997Y-51960789D01*
X121626997Y-52088162D01*
X121244025Y-52088162D01*
G37*
G36*
X121244025Y-51705189D02*
G01*
X121244025Y-51577816D01*
X121371275Y-51577816D01*
X121371275Y-51705189D01*
X121244025Y-51705189D01*
G37*
G36*
X121372985Y-51832561D02*
G01*
X121372985Y-51705189D01*
X121626997Y-51705189D01*
X121626997Y-51832561D01*
X121372985Y-51832561D01*
G37*
G36*
X121372985Y-51578549D02*
G01*
X121372985Y-51451176D01*
X121752050Y-51451176D01*
X121752050Y-51578549D01*
X121372985Y-51578549D01*
G37*
G36*
X121626997Y-51834149D02*
G01*
X121752050Y-51834149D01*
X121752050Y-51960789D01*
X121626997Y-51960789D01*
X121626997Y-51834149D01*
G37*
G36*
X121880033Y-52088162D02*
G01*
X121880033Y-51451176D01*
X122007283Y-51451176D01*
X122007283Y-51834149D01*
X122260807Y-51834149D01*
X122260807Y-51451176D01*
X122388058Y-51451176D01*
X122388058Y-52088162D01*
X122260807Y-52088162D01*
X122260807Y-51961522D01*
X122007283Y-51961522D01*
X122007283Y-52088162D01*
X121880033Y-52088162D01*
G37*
G36*
X123027974Y-51960789D02*
G01*
X123027974Y-52088162D01*
X122645001Y-52088162D01*
X122645001Y-51960789D01*
X122771764Y-51960789D01*
X122771764Y-51451176D01*
X122645001Y-51451176D01*
X122645001Y-51323804D01*
X122771764Y-51323804D01*
X122771764Y-51197164D01*
X122899014Y-51197164D01*
X122899014Y-51960789D01*
X123027974Y-51960789D01*
G37*
G36*
X98316475Y-68449356D02*
G01*
X98292171Y-68324323D01*
X98668108Y-68251249D01*
X98692412Y-68376281D01*
X98316475Y-68449356D01*
G37*
G36*
X98243400Y-68073419D02*
G01*
X98219097Y-67948387D01*
X98344009Y-67924106D01*
X98368313Y-68049139D01*
X98243400Y-68073419D01*
G37*
G36*
X98394295Y-68173845D02*
G01*
X98369991Y-68048813D01*
X98619337Y-68000345D01*
X98643641Y-68125377D01*
X98394295Y-68173845D01*
G37*
G36*
X98345827Y-67924499D02*
G01*
X98321523Y-67799467D01*
X98693624Y-67727138D01*
X98717928Y-67852170D01*
X98345827Y-67924499D01*
G37*
G36*
X98643944Y-68126936D02*
G01*
X98766699Y-68103074D01*
X98790863Y-68227388D01*
X98668108Y-68251249D01*
X98643944Y-68126936D01*
G37*
G36*
X98940798Y-68328000D02*
G01*
X98819256Y-67702718D01*
X98944168Y-67678437D01*
X99017243Y-68054374D01*
X99266109Y-68005999D01*
X99193034Y-67630062D01*
X99317947Y-67605782D01*
X99439489Y-68231064D01*
X99314577Y-68255345D01*
X99290413Y-68131031D01*
X99041547Y-68179406D01*
X99065711Y-68303719D01*
X98940798Y-68328000D01*
G37*
G36*
X99516351Y-67955740D02*
G01*
X99395111Y-67332016D01*
X99520023Y-67307735D01*
X99616959Y-67806427D01*
X99741392Y-67782239D01*
X99692924Y-67532894D01*
X99817837Y-67508613D01*
X99866305Y-67757959D01*
X99992656Y-67733399D01*
X100016960Y-67858431D01*
X99890609Y-67882991D01*
X99939380Y-68133895D01*
X99814467Y-68158176D01*
X99765696Y-67907272D01*
X99516351Y-67955740D01*
G37*
G36*
X77884092Y-77260496D02*
G01*
X77839777Y-77141081D01*
X78198824Y-77007838D01*
X78243139Y-77127253D01*
X77884092Y-77260496D01*
G37*
G36*
X77750849Y-76901449D02*
G01*
X77706534Y-76782034D01*
X77825835Y-76737762D01*
X77870150Y-76857177D01*
X77750849Y-76901449D01*
G37*
G36*
X77916068Y-76975997D02*
G01*
X77871753Y-76856582D01*
X78109896Y-76768206D01*
X78154211Y-76887621D01*
X77916068Y-76975997D01*
G37*
G36*
X77827692Y-76737854D02*
G01*
X77783377Y-76618439D01*
X78138760Y-76486555D01*
X78183075Y-76605970D01*
X77827692Y-76737854D01*
G37*
G36*
X78154763Y-76889110D02*
G01*
X78272003Y-76845602D01*
X78316063Y-76964330D01*
X78198824Y-77007838D01*
X78154763Y-76889110D01*
G37*
G36*
X78480366Y-77039217D02*
G01*
X78258748Y-76442028D01*
X78378048Y-76397755D01*
X78511291Y-76756802D01*
X78748976Y-76668596D01*
X78615733Y-76309550D01*
X78735034Y-76265277D01*
X78956652Y-76862467D01*
X78837352Y-76906739D01*
X78793291Y-76788011D01*
X78555606Y-76876217D01*
X78599666Y-76994945D01*
X78480366Y-77039217D01*
G37*
G36*
X79031772Y-76697036D02*
G01*
X78810706Y-76101334D01*
X78930007Y-76057061D01*
X79018382Y-76295205D01*
X79258128Y-76206234D01*
X79302443Y-76325649D01*
X79062697Y-76414620D01*
X79151073Y-76652763D01*
X79031772Y-76697036D01*
G37*
G36*
X79153228Y-76653656D02*
G01*
X79391371Y-76565281D01*
X79435686Y-76684696D01*
X79197543Y-76773071D01*
X79153228Y-76653656D01*
G37*
G36*
X78931865Y-76057154D02*
G01*
X78887549Y-75937739D01*
X79125692Y-75849363D01*
X79170008Y-75968778D01*
X78931865Y-76057154D01*
G37*
G36*
X79390819Y-76563793D02*
G01*
X79302443Y-76325649D01*
X79419683Y-76282141D01*
X79508059Y-76520285D01*
X79390819Y-76563793D01*
G37*
G36*
X79214068Y-76087506D02*
G01*
X79169753Y-75968091D01*
X79286992Y-75924583D01*
X79331308Y-76043998D01*
X79214068Y-76087506D01*
G37*
D11*
%TO.C,sw3*%
X83529133Y-34909697D02*
X83338324Y-33928070D01*
X84319951Y-33737261D02*
X83338324Y-33928070D01*
X86772886Y-51597359D02*
X86582077Y-50615732D01*
X86772886Y-51597359D02*
X87754513Y-51406549D01*
X87570783Y-35158078D02*
X87643481Y-35532078D01*
X88044943Y-37597421D02*
X88235752Y-38579048D01*
X91412892Y-38939443D02*
X93405595Y-38552101D01*
X96187974Y-39951916D02*
X97883086Y-39622420D01*
X96297447Y-33461786D02*
X87570783Y-35158078D01*
X99275436Y-35470464D02*
X99348135Y-35844464D01*
X99628419Y-39283162D02*
X100002419Y-39210463D01*
X99929720Y-38836464D02*
X100002419Y-39210463D01*
X101007613Y-30493508D02*
X100025986Y-30684317D01*
X101007613Y-30493508D02*
X101198422Y-31475135D01*
X103460548Y-48353607D02*
X104442175Y-48162798D01*
X104251366Y-47181170D02*
X104442175Y-48162798D01*
X93405595Y-38552101D02*
G75*
G02*
X96191592Y-39970528I484655J-2493332D01*
G01*
X96297447Y-33461786D02*
G75*
G02*
X99275436Y-35470464I484656J-2493333D01*
G01*
%TO.C,sw5*%
X57838835Y-46572356D02*
X57490917Y-45634831D01*
X58428442Y-45286913D02*
X57490917Y-45634831D01*
X61867070Y-46160107D02*
X61999626Y-46517304D01*
X62731645Y-48489857D02*
X63079563Y-49427382D01*
X63753434Y-62510283D02*
X63405517Y-61572758D01*
X63753434Y-62510283D02*
X64690959Y-62162365D01*
X66273015Y-49266257D02*
X68176191Y-48559985D01*
X70201668Y-43067119D02*
X61867070Y-46160107D01*
X71149188Y-49488644D02*
X72768142Y-48887847D01*
X73466692Y-44564722D02*
X73599249Y-44921919D01*
X74366369Y-39372314D02*
X73428844Y-39720231D01*
X74366369Y-39372314D02*
X74714287Y-40309839D01*
X74435061Y-48269250D02*
X74792259Y-48136693D01*
X74659702Y-47779496D02*
X74792259Y-48136693D01*
X79691361Y-56595683D02*
X80628886Y-56247766D01*
X80280969Y-55310241D02*
X80628886Y-56247766D01*
X68176191Y-48559985D02*
G75*
G02*
X71155783Y-49506421I883710J-2381312D01*
G01*
X70201668Y-43067119D02*
G75*
G02*
X73466693Y-44564722I883711J-2381314D01*
G01*
%TO.C,sw2*%
X113128037Y-54498162D02*
X113128037Y-53498162D01*
X113128037Y-71498162D02*
X113128037Y-70498162D01*
X113128037Y-71498162D02*
X114128037Y-71498162D01*
X114128037Y-53498162D02*
X113128037Y-53498162D01*
X117048037Y-55513162D02*
X117048037Y-55894162D01*
X117048037Y-57998162D02*
X117048037Y-58998162D01*
X120098037Y-59958162D02*
X122128037Y-59958162D01*
X124592199Y-61863162D02*
X126319037Y-61863162D01*
X125938037Y-55513162D02*
X117048037Y-55513162D01*
X128097037Y-61863162D02*
X128478037Y-61863162D01*
X128478037Y-58053162D02*
X128478037Y-58434162D01*
X128478037Y-61482162D02*
X128478037Y-61863162D01*
X130128037Y-71498162D02*
X131128037Y-71498162D01*
X131128037Y-53498162D02*
X130128037Y-53498162D01*
X131128037Y-53498162D02*
X131128037Y-54498162D01*
X131128037Y-70498162D02*
X131128037Y-71498162D01*
X122128037Y-59958162D02*
G75*
G02*
X124592198Y-61882122I0J-2539999D01*
G01*
X125938037Y-55513162D02*
G75*
G02*
X128478037Y-58053162I0J-2540000D01*
G01*
%TO.C,sw9*%
X142633047Y-96565802D02*
X142754916Y-95573255D01*
X142633047Y-96565802D02*
X143625593Y-96687671D01*
X144704826Y-79692517D02*
X144826695Y-78699971D01*
X145819241Y-78821840D02*
X144826695Y-78699971D01*
X148169064Y-83644156D02*
X148047194Y-84636702D01*
X148471909Y-81177679D02*
X148425477Y-81555839D01*
X150957466Y-85961248D02*
X152972334Y-86208643D01*
X155185968Y-88399749D02*
X156899934Y-88610198D01*
X157295644Y-82261098D02*
X148471909Y-81177679D01*
X158664681Y-88826882D02*
X159042841Y-88873314D01*
X159089273Y-88495154D02*
X159042841Y-88873314D01*
X159506331Y-98637580D02*
X160498877Y-98759450D01*
X159507163Y-85091713D02*
X159460731Y-85469873D01*
X160620747Y-97766904D02*
X160498877Y-98759450D01*
X162692526Y-80893619D02*
X161699979Y-80771750D01*
X162692526Y-80893619D02*
X162570656Y-81886165D01*
X152972334Y-86208643D02*
G75*
G02*
X155183656Y-88418568I-309548J-2521066D01*
G01*
X157295644Y-82261098D02*
G75*
G02*
X159507163Y-85091713I-309548J-2521067D01*
G01*
%TO.C,sw11*%
X178782939Y-107027379D02*
X179412259Y-106250233D01*
X178782939Y-107027379D02*
X179560085Y-107656700D01*
X189481386Y-93815898D02*
X190110706Y-93038752D01*
X190325176Y-99002845D02*
X189695856Y-99779991D01*
X190887852Y-93668073D02*
X190110706Y-93038752D01*
X191462004Y-102445478D02*
X193039610Y-103722999D01*
X191889038Y-97071637D02*
X191649267Y-97367730D01*
X191994420Y-117725826D02*
X192771566Y-118355146D01*
X193400887Y-117578001D02*
X192771566Y-118355146D01*
X193755768Y-106754209D02*
X195097773Y-107840943D01*
X196479539Y-108959875D02*
X196775631Y-109199646D01*
X197015403Y-108903553D02*
X196775631Y-109199646D01*
X198797865Y-102666295D02*
X191889038Y-97071637D01*
X199173342Y-106238720D02*
X198933571Y-106534813D01*
X204099333Y-104366519D02*
X203322187Y-103737199D01*
X204099333Y-104366519D02*
X203470013Y-105143665D01*
X193039610Y-103722999D02*
G75*
G02*
X193743836Y-106768944I-1598473J-1973950D01*
G01*
X198797865Y-102666295D02*
G75*
G02*
X199173342Y-106238720I-1598474J-1973951D01*
G01*
%TO.C,sw7*%
X31549060Y-76231626D02*
X31064250Y-75357006D01*
X31938870Y-74872197D02*
X31064250Y-75357006D01*
X35469651Y-75218911D02*
X35654363Y-75552142D01*
X36674402Y-77392341D02*
X37159212Y-78266961D01*
X39790823Y-91100161D02*
X39306013Y-90225541D01*
X39790823Y-91100161D02*
X40665443Y-90615352D01*
X40292219Y-77627927D02*
X42067697Y-76643763D01*
X43245020Y-70908954D02*
X35469651Y-75218911D01*
X45146464Y-77115264D02*
X46656791Y-76278077D01*
X46697970Y-71899072D02*
X46882683Y-72232302D01*
X46807405Y-66630433D02*
X45932785Y-67115243D01*
X46807405Y-66630433D02*
X47292214Y-67505053D01*
X48211865Y-75416085D02*
X48545095Y-75231373D01*
X48360382Y-74898142D02*
X48545095Y-75231373D01*
X54659358Y-82858398D02*
X55533978Y-82373588D01*
X55049168Y-81498968D02*
X55533978Y-82373588D01*
X42067697Y-76643763D02*
G75*
G02*
X45155656Y-77131847I1231416J-2221533D01*
G01*
X43245020Y-70908954D02*
G75*
G02*
X46697970Y-71899072I1231416J-2221534D01*
G01*
%TO.C,sw10*%
X161446752Y-99125686D02*
X161837483Y-98205181D01*
X161446752Y-99125686D02*
X162367256Y-99516417D01*
X168089181Y-83477103D02*
X168479912Y-82556598D01*
X169400417Y-82947329D02*
X168479912Y-82556598D01*
X170330001Y-88230536D02*
X169939270Y-89151041D01*
X171300969Y-85943082D02*
X171152099Y-86293794D01*
X172371708Y-91226456D02*
X174240332Y-92019640D01*
X175764263Y-94736026D02*
X177353825Y-95410756D01*
X177095334Y-105768115D02*
X178015839Y-106158846D01*
X178406570Y-105238341D02*
X178015839Y-106158846D01*
X178990483Y-96105476D02*
X179341195Y-96254344D01*
X179484256Y-89416681D02*
X171300969Y-85943082D01*
X179490064Y-95903632D02*
X179341195Y-96254344D01*
X180829881Y-92747221D02*
X180681012Y-93097933D01*
X185048999Y-89589759D02*
X184128494Y-89199027D01*
X185048999Y-89589759D02*
X184658268Y-90510263D01*
X174240332Y-92019640D02*
G75*
G02*
X175756853Y-94753479I-992456J-2338081D01*
G01*
X179484256Y-89416681D02*
G75*
G02*
X180829882Y-92747221I-992457J-2338083D01*
G01*
%TO.C,sw8*%
X50304870Y-87548478D02*
X49850879Y-86657471D01*
X50741886Y-86203481D02*
X49850879Y-86657471D01*
X54258415Y-86673206D02*
X54431386Y-87012680D01*
X55386582Y-88887358D02*
X55840572Y-89778364D01*
X58022708Y-102695588D02*
X57568718Y-101804582D01*
X58022708Y-102695588D02*
X58913715Y-102241598D01*
X58993973Y-89249059D02*
X60802716Y-88327459D01*
X62179463Y-82637231D02*
X54258415Y-86673206D01*
X63863153Y-88906120D02*
X65401777Y-88122152D01*
X65595756Y-83747252D02*
X65768726Y-84086725D01*
X65888996Y-78485642D02*
X64997990Y-78939633D01*
X65888996Y-78485642D02*
X66342987Y-79376649D01*
X66985986Y-87314957D02*
X67325460Y-87141986D01*
X67152489Y-86802513D02*
X67325460Y-87141986D01*
X73169819Y-94977750D02*
X74060825Y-94523759D01*
X73606835Y-93632753D02*
X74060825Y-94523759D01*
X60802716Y-88327459D02*
G75*
G02*
X63871760Y-88923013I1153136J-2263156D01*
G01*
X62179463Y-82637231D02*
G75*
G02*
X65595756Y-83747252I1153136J-2263156D01*
G01*
D10*
%TO.C,ctl1*%
X137452000Y-43260000D02*
X137452000Y-53260000D01*
X137452000Y-77010000D02*
X137452000Y-67010000D01*
X142452000Y-43260000D02*
X137452000Y-43260000D01*
X142452000Y-77010000D02*
X137452000Y-77010000D01*
X150452000Y-43260000D02*
X155452000Y-43260000D01*
X150452000Y-77010000D02*
X155452000Y-77010000D01*
X155452000Y-43260000D02*
X155452000Y-53260000D01*
X155452000Y-77010000D02*
X155452000Y-67010000D01*
D11*
%TO.C,sw1*%
X113128037Y-35573162D02*
X113128037Y-34573162D01*
X113128037Y-52573162D02*
X113128037Y-51573162D01*
X113128037Y-52573162D02*
X114128037Y-52573162D01*
X114128037Y-34573162D02*
X113128037Y-34573162D01*
X117048037Y-36588162D02*
X117048037Y-36969162D01*
X117048037Y-39073162D02*
X117048037Y-40073162D01*
X120098037Y-41033162D02*
X122128037Y-41033162D01*
X124592199Y-42938162D02*
X126319037Y-42938162D01*
X125938037Y-36588162D02*
X117048037Y-36588162D01*
X128097037Y-42938162D02*
X128478037Y-42938162D01*
X128478037Y-39128162D02*
X128478037Y-39509162D01*
X128478037Y-42557162D02*
X128478037Y-42938162D01*
X130128037Y-52573162D02*
X131128037Y-52573162D01*
X131128037Y-34573162D02*
X130128037Y-34573162D01*
X131128037Y-34573162D02*
X131128037Y-35573162D01*
X131128037Y-51573162D02*
X131128037Y-52573162D01*
X122128037Y-41033162D02*
G75*
G02*
X124592198Y-42957122I0J-2539999D01*
G01*
X125938037Y-36588162D02*
G75*
G02*
X128478037Y-39128162I0J-2540000D01*
G01*
%TO.C,sw4*%
X87198390Y-53786387D02*
X87007581Y-52804760D01*
X87989208Y-52613951D02*
X87007581Y-52804760D01*
X90442143Y-70474049D02*
X90251334Y-69492422D01*
X90442143Y-70474049D02*
X91423770Y-70283239D01*
X91240040Y-54034768D02*
X91312738Y-54408768D01*
X91714200Y-56474111D02*
X91905009Y-57455738D01*
X95082149Y-57816133D02*
X97074852Y-57428791D01*
X99857231Y-58828606D02*
X101552343Y-58499110D01*
X99966704Y-52338476D02*
X91240040Y-54034768D01*
X102944693Y-54347154D02*
X103017392Y-54721154D01*
X103297676Y-58159852D02*
X103671676Y-58087153D01*
X103598977Y-57713154D02*
X103671676Y-58087153D01*
X104676870Y-49370198D02*
X103695243Y-49561007D01*
X104676870Y-49370198D02*
X104867679Y-50351825D01*
X107129805Y-67230297D02*
X108111432Y-67039488D01*
X107920623Y-66057860D02*
X108111432Y-67039488D01*
X97074852Y-57428791D02*
G75*
G02*
X99860849Y-58847218I484655J-2493332D01*
G01*
X99966704Y-52338476D02*
G75*
G02*
X102944693Y-54347154I484656J-2493333D01*
G01*
%TO.C,sw6*%
X64529291Y-64600965D02*
X64181373Y-63663440D01*
X65118898Y-63315522D02*
X64181373Y-63663440D01*
X68557526Y-64188716D02*
X68690082Y-64545913D01*
X69422101Y-66518466D02*
X69770019Y-67455991D01*
X70443890Y-80538892D02*
X70095973Y-79601367D01*
X70443890Y-80538892D02*
X71381415Y-80190974D01*
X72963471Y-67294866D02*
X74866647Y-66588594D01*
X76892124Y-61095728D02*
X68557526Y-64188716D01*
X77839644Y-67517253D02*
X79458598Y-66916456D01*
X80157148Y-62593331D02*
X80289705Y-62950528D01*
X81056825Y-57400923D02*
X80119300Y-57748840D01*
X81056825Y-57400923D02*
X81404743Y-58338448D01*
X81125517Y-66297859D02*
X81482715Y-66165302D01*
X81350158Y-65808105D02*
X81482715Y-66165302D01*
X86381817Y-74624292D02*
X87319342Y-74276375D01*
X86971425Y-73338850D02*
X87319342Y-74276375D01*
X74866647Y-66588594D02*
G75*
G02*
X77846239Y-67535030I883710J-2381312D01*
G01*
X76892124Y-61095728D02*
G75*
G02*
X80157149Y-62593331I883711J-2381314D01*
G01*
%TD*%
M02*
