%TF.GenerationSoftware,KiCad,Pcbnew,9.0.3*%
%TF.CreationDate,2025-08-09T00:32:57-04:00*%
%TF.ProjectId,darling,6461726c-696e-4672-9e6b-696361645f70,rev?*%
%TF.SameCoordinates,Original*%
%TF.FileFunction,Legend,Bot*%
%TF.FilePolarity,Positive*%
%FSLAX46Y46*%
G04 Gerber Fmt 4.6, Leading zero omitted, Abs format (unit mm)*
G04 Created by KiCad (PCBNEW 9.0.3) date 2025-08-09 00:32:57*
%MOMM*%
%LPD*%
G01*
G04 APERTURE LIST*
%ADD10C,0.100000*%
%ADD11C,0.150000*%
G04 APERTURE END LIST*
D10*
G36*
X96520186Y-49208598D02*
G01*
X96495882Y-49083565D01*
X96119946Y-49156640D01*
X96144250Y-49281672D01*
X96520186Y-49208598D01*
G37*
G36*
X96447112Y-48832661D02*
G01*
X96422808Y-48707629D01*
X96297895Y-48731909D01*
X96322199Y-48856942D01*
X96447112Y-48832661D01*
G37*
G36*
X96344825Y-48982300D02*
G01*
X96320521Y-48857268D01*
X96071175Y-48905736D01*
X96095479Y-49030768D01*
X96344825Y-48982300D01*
G37*
G36*
X96296357Y-48732955D02*
G01*
X96272053Y-48607922D01*
X95899953Y-48680251D01*
X95924256Y-48805284D01*
X96296357Y-48732955D01*
G37*
G36*
X96095782Y-49032327D02*
G01*
X95973027Y-49056188D01*
X95997191Y-49180501D01*
X96119946Y-49156640D01*
X96095782Y-49032327D01*
G37*
G36*
X95895863Y-49329954D02*
G01*
X95774321Y-48704672D01*
X95649408Y-48728952D01*
X95722483Y-49104889D01*
X95473617Y-49153263D01*
X95400542Y-48777327D01*
X95275629Y-48801607D01*
X95397172Y-49426890D01*
X95522085Y-49402609D01*
X95497921Y-49278296D01*
X95746787Y-49229921D01*
X95770951Y-49354234D01*
X95895863Y-49329954D01*
G37*
G36*
X95247236Y-49326277D02*
G01*
X95223072Y-49201964D01*
X95098160Y-49226245D01*
X95122324Y-49350558D01*
X95247236Y-49326277D01*
G37*
G36*
X95125834Y-48701715D02*
G01*
X95101530Y-48576682D01*
X94602838Y-48673618D01*
X94651306Y-48922964D01*
X94775739Y-48898776D01*
X94751575Y-48774463D01*
X95125834Y-48701715D01*
G37*
G36*
X95122324Y-49350558D02*
G01*
X94872978Y-49399026D01*
X94897282Y-49524058D01*
X95146628Y-49475590D01*
X95122324Y-49350558D01*
G37*
G36*
X95073553Y-49099654D02*
G01*
X95049249Y-48974622D01*
X94924816Y-48998809D01*
X94949120Y-49123841D01*
X95073553Y-49099654D01*
G37*
G36*
X94924956Y-48999528D02*
G01*
X94900652Y-48874496D01*
X94775739Y-48898776D01*
X94800043Y-49023809D01*
X94924956Y-48999528D01*
G37*
G36*
X94872978Y-49399026D02*
G01*
X94799903Y-49023089D01*
X94675470Y-49047277D01*
X94748545Y-49423213D01*
X94872978Y-49399026D01*
G37*
G36*
X72982457Y-58568052D02*
G01*
X72938141Y-58448637D01*
X72579095Y-58581880D01*
X72623410Y-58701295D01*
X72982457Y-58568052D01*
G37*
G36*
X72849214Y-58209005D02*
G01*
X72804898Y-58089590D01*
X72685598Y-58133863D01*
X72729913Y-58253278D01*
X72849214Y-58209005D01*
G37*
G36*
X72772625Y-58373288D02*
G01*
X72728310Y-58253873D01*
X72490167Y-58342248D01*
X72534482Y-58461663D01*
X72772625Y-58373288D01*
G37*
G36*
X72684250Y-58135145D02*
G01*
X72639935Y-58015730D01*
X72284552Y-58147613D01*
X72328867Y-58267028D01*
X72684250Y-58135145D01*
G37*
G36*
X72535034Y-58463152D02*
G01*
X72417795Y-58506660D01*
X72461855Y-58625388D01*
X72579095Y-58581880D01*
X72535034Y-58463152D01*
G37*
G36*
X72386183Y-58789330D02*
G01*
X72164564Y-58192141D01*
X72045264Y-58236413D01*
X72178507Y-58595460D01*
X71940822Y-58683665D01*
X71807579Y-58324619D01*
X71688278Y-58368891D01*
X71909896Y-58966081D01*
X72029197Y-58921809D01*
X71985137Y-58803080D01*
X72222822Y-58714875D01*
X72266882Y-58833603D01*
X72386183Y-58789330D01*
G37*
G36*
X71745594Y-58891194D02*
G01*
X71701533Y-58772466D01*
X71582233Y-58816738D01*
X71626293Y-58935467D01*
X71745594Y-58891194D01*
G37*
G36*
X71612606Y-58532834D02*
G01*
X71479915Y-58175276D01*
X71003629Y-58352027D01*
X71047944Y-58471442D01*
X71404930Y-58338964D01*
X71448990Y-58457692D01*
X71209244Y-58546662D01*
X71253559Y-58666077D01*
X71612606Y-58532834D01*
G37*
G36*
X71624690Y-58936061D02*
G01*
X71386547Y-59024437D01*
X71430862Y-59143852D01*
X71669005Y-59055476D01*
X71624690Y-58936061D01*
G37*
G36*
X71386547Y-59024437D02*
G01*
X71253304Y-58665390D01*
X71136064Y-58708898D01*
X71269307Y-59067945D01*
X71386547Y-59024437D01*
G37*
G36*
X123152049Y-71013162D02*
G01*
X123152049Y-70885789D01*
X122769076Y-70885789D01*
X122769076Y-71013162D01*
X123152049Y-71013162D01*
G37*
G36*
X123152049Y-70630189D02*
G01*
X123152049Y-70502816D01*
X123024798Y-70502816D01*
X123024798Y-70630189D01*
X123152049Y-70630189D01*
G37*
G36*
X123023088Y-70757561D02*
G01*
X123023088Y-70630189D01*
X122769076Y-70630189D01*
X122769076Y-70757561D01*
X123023088Y-70757561D01*
G37*
G36*
X123023088Y-70503549D02*
G01*
X123023088Y-70376176D01*
X122644023Y-70376176D01*
X122644023Y-70503549D01*
X123023088Y-70503549D01*
G37*
G36*
X122769076Y-70759149D02*
G01*
X122644023Y-70759149D01*
X122644023Y-70885789D01*
X122769076Y-70885789D01*
X122769076Y-70759149D01*
G37*
G36*
X122516040Y-71013162D02*
G01*
X122516040Y-70376176D01*
X122388790Y-70376176D01*
X122388790Y-70759149D01*
X122135266Y-70759149D01*
X122135266Y-70376176D01*
X122008015Y-70376176D01*
X122008015Y-71013162D01*
X122135266Y-71013162D01*
X122135266Y-70886522D01*
X122388790Y-70886522D01*
X122388790Y-71013162D01*
X122516040Y-71013162D01*
G37*
G36*
X121880032Y-70757561D02*
G01*
X121752781Y-70757561D01*
X121752781Y-70885789D01*
X121372007Y-70885789D01*
X121372007Y-71013162D01*
X121880032Y-71013162D01*
X121880032Y-70757561D01*
G37*
G36*
X121880032Y-70378496D02*
G01*
X121880032Y-70251124D01*
X121752781Y-70251124D01*
X121752781Y-70378496D01*
X121880032Y-70378496D01*
G37*
G36*
X121752781Y-70757561D02*
G01*
X121752781Y-70630189D01*
X121626019Y-70630189D01*
X121626019Y-70757561D01*
X121752781Y-70757561D01*
G37*
G36*
X121752781Y-70249536D02*
G01*
X121752781Y-70122164D01*
X121498769Y-70122164D01*
X121498769Y-70249536D01*
X121752781Y-70249536D01*
G37*
G36*
X121626019Y-70630189D02*
G01*
X121626019Y-70502816D01*
X121498769Y-70502816D01*
X121498769Y-70630189D01*
X121626019Y-70630189D01*
G37*
G36*
X121498769Y-70502816D02*
G01*
X121498769Y-70251124D01*
X121372007Y-70251124D01*
X121372007Y-70502816D01*
X121498769Y-70502816D01*
G37*
G36*
X152641448Y-97306036D02*
G01*
X152656970Y-97179613D01*
X152276852Y-97132940D01*
X152261329Y-97259363D01*
X152641448Y-97306036D01*
G37*
G36*
X152688120Y-96925918D02*
G01*
X152703643Y-96799495D01*
X152577341Y-96783987D01*
X152561818Y-96910410D01*
X152688120Y-96925918D01*
G37*
G36*
X152544599Y-97036625D02*
G01*
X152560121Y-96910202D01*
X152308002Y-96879245D01*
X152292479Y-97005668D01*
X152544599Y-97036625D01*
G37*
G36*
X152575555Y-96784506D02*
G01*
X152591078Y-96658082D01*
X152214838Y-96611886D01*
X152199315Y-96738309D01*
X152575555Y-96784506D01*
G37*
G36*
X152292286Y-97007244D02*
G01*
X152168166Y-96992004D01*
X152152732Y-97117700D01*
X152276852Y-97132940D01*
X152292286Y-97007244D01*
G37*
G36*
X152010180Y-97228526D02*
G01*
X152087809Y-96596289D01*
X151961507Y-96580781D01*
X151914834Y-96960899D01*
X151663200Y-96930002D01*
X151709873Y-96549884D01*
X151583571Y-96534376D01*
X151505942Y-97166613D01*
X151632244Y-97182121D01*
X151647677Y-97056425D01*
X151899312Y-97087322D01*
X151883878Y-97213018D01*
X152010180Y-97228526D01*
G37*
G36*
X151394435Y-97024593D02*
G01*
X151409869Y-96898897D01*
X151283567Y-96883389D01*
X151268133Y-97009085D01*
X151394435Y-97024593D01*
G37*
G36*
X151441108Y-96644475D02*
G01*
X151471781Y-96394659D01*
X151345479Y-96379151D01*
X151314806Y-96628967D01*
X151441108Y-96644475D01*
G37*
G36*
X151266436Y-97008877D02*
G01*
X151014317Y-96977920D01*
X150998794Y-97104343D01*
X151250913Y-97135300D01*
X151266436Y-97008877D01*
G37*
G36*
X151313109Y-96628758D02*
G01*
X151060990Y-96597802D01*
X151091663Y-96347986D01*
X150967543Y-96332746D01*
X150890197Y-96962680D01*
X151014317Y-96977920D01*
X151045467Y-96724225D01*
X151297586Y-96755182D01*
X151313109Y-96628758D01*
G37*
G36*
X151343976Y-96377367D02*
G01*
X151359499Y-96250943D01*
X151107380Y-96219987D01*
X151091857Y-96346410D01*
X151343976Y-96377367D01*
G37*
G36*
X187125415Y-113158905D02*
G01*
X187205573Y-113059918D01*
X186907947Y-112818905D01*
X186827789Y-112917892D01*
X187125415Y-113158905D01*
G37*
G36*
X187366427Y-112861279D02*
G01*
X187446585Y-112762292D01*
X187347693Y-112682210D01*
X187267535Y-112781198D01*
X187366427Y-112861279D01*
G37*
G36*
X187186048Y-112879109D02*
G01*
X187266206Y-112780122D01*
X187068801Y-112620266D01*
X186988643Y-112719253D01*
X187186048Y-112879109D01*
G37*
G36*
X187345903Y-112681704D02*
G01*
X187426062Y-112582717D01*
X187131473Y-112344164D01*
X187051315Y-112443151D01*
X187345903Y-112681704D01*
G37*
G36*
X186987644Y-112720487D02*
G01*
X186890460Y-112641789D01*
X186810763Y-112740207D01*
X186907947Y-112818905D01*
X186987644Y-112720487D01*
G37*
G36*
X186631143Y-112758652D02*
G01*
X187032011Y-112263621D01*
X186933119Y-112183540D01*
X186692106Y-112481165D01*
X186495081Y-112321618D01*
X186736094Y-112023992D01*
X186637201Y-111943910D01*
X186236334Y-112438941D01*
X186335226Y-112519022D01*
X186414923Y-112420605D01*
X186611948Y-112580153D01*
X186532251Y-112678570D01*
X186631143Y-112758652D01*
G37*
G36*
X185819183Y-111937242D02*
G01*
X185739025Y-112036229D01*
X186036651Y-112277241D01*
X186116809Y-112178254D01*
X186018297Y-112098480D01*
X186339006Y-111702437D01*
X186437519Y-111782211D01*
X186517677Y-111683224D01*
X186419165Y-111603450D01*
X186498862Y-111505032D01*
X186399969Y-111424951D01*
X185919404Y-112018399D01*
X185819183Y-111937242D01*
G37*
G36*
X185324912Y-111536989D02*
G01*
X185244754Y-111635976D01*
X185542380Y-111876988D01*
X185622538Y-111778001D01*
X185524025Y-111698227D01*
X185844735Y-111302184D01*
X185943248Y-111381958D01*
X186023406Y-111282971D01*
X185924893Y-111203197D01*
X186004590Y-111104779D01*
X185905698Y-111024698D01*
X185425133Y-111618146D01*
X185324912Y-111536989D01*
G37*
G36*
X48322888Y-85816232D02*
G01*
X48261137Y-85704830D01*
X47926181Y-85890499D01*
X47987933Y-86001901D01*
X48322888Y-85816232D01*
G37*
G36*
X48137219Y-85481277D02*
G01*
X48075468Y-85369874D01*
X47964172Y-85431567D01*
X48025923Y-85542969D01*
X48137219Y-85481277D01*
G37*
G36*
X48086180Y-85655201D02*
G01*
X48024428Y-85543798D01*
X47802264Y-85666946D01*
X47864015Y-85778348D01*
X48086180Y-85655201D01*
G37*
G36*
X47963032Y-85433036D02*
G01*
X47901280Y-85321634D01*
X47569743Y-85505408D01*
X47631494Y-85616811D01*
X47963032Y-85433036D01*
G37*
G36*
X47864785Y-85779737D02*
G01*
X47755412Y-85840364D01*
X47816808Y-85951125D01*
X47926181Y-85890499D01*
X47864785Y-85779737D01*
G37*
G36*
X47766623Y-86124575D02*
G01*
X47457806Y-85567456D01*
X47346510Y-85629148D01*
X47532179Y-85964103D01*
X47310442Y-86087014D01*
X47124773Y-85752059D01*
X47013477Y-85813751D01*
X47322294Y-86370871D01*
X47433590Y-86309179D01*
X47372194Y-86198417D01*
X47593931Y-86075506D01*
X47655327Y-86186268D01*
X47766623Y-86124575D01*
G37*
G36*
X46517810Y-86235951D02*
G01*
X46629106Y-86174259D01*
X46505189Y-85950706D01*
X46838435Y-85765984D01*
X46776684Y-85654581D01*
X46332142Y-85900995D01*
X46517810Y-86235951D01*
G37*
G36*
X46974418Y-86273275D02*
G01*
X46863123Y-86334967D01*
X46986270Y-86557132D01*
X47097566Y-86495440D01*
X46974418Y-86273275D01*
G37*
G36*
X46863123Y-86334967D02*
G01*
X46739975Y-86112803D01*
X46629106Y-86174259D01*
X46752254Y-86396423D01*
X46863123Y-86334967D01*
G37*
G36*
X171156132Y-102720188D02*
G01*
X171205900Y-102602941D01*
X170853372Y-102453302D01*
X170803604Y-102570549D01*
X171156132Y-102720188D01*
G37*
G36*
X171305771Y-102367660D02*
G01*
X171355540Y-102250413D01*
X171238405Y-102200692D01*
X171188637Y-102317939D01*
X171305771Y-102367660D01*
G37*
G36*
X171137294Y-102434518D02*
G01*
X171187063Y-102317271D01*
X170953243Y-102218021D01*
X170903475Y-102335268D01*
X171137294Y-102434518D01*
G37*
G36*
X171236545Y-102200699D02*
G01*
X171286313Y-102083451D01*
X170937382Y-101935339D01*
X170887614Y-102052586D01*
X171236545Y-102200699D01*
G37*
G36*
X170902854Y-102336729D02*
G01*
X170787743Y-102287867D01*
X170738261Y-102404440D01*
X170853372Y-102453302D01*
X170902854Y-102336729D01*
G37*
G36*
X170570683Y-102471680D02*
G01*
X170819573Y-101885332D01*
X170702438Y-101835611D01*
X170552799Y-102188139D01*
X170319429Y-102089080D01*
X170469068Y-101736551D01*
X170351934Y-101686831D01*
X170103044Y-102273179D01*
X170220178Y-102322900D01*
X170269660Y-102206327D01*
X170503031Y-102305387D01*
X170453548Y-102421959D01*
X170570683Y-102471680D01*
G37*
G36*
X169563766Y-101905896D02*
G01*
X169513998Y-102023144D01*
X169866526Y-102172783D01*
X169916294Y-102055536D01*
X169799609Y-102006006D01*
X169998731Y-101536905D01*
X170115416Y-101586435D01*
X170165184Y-101469188D01*
X170048499Y-101419658D01*
X170097981Y-101303085D01*
X169980847Y-101253364D01*
X169682475Y-101956285D01*
X169563766Y-101905896D01*
G37*
G36*
X169450174Y-101855955D02*
G01*
X169699064Y-101269607D01*
X169581930Y-101219886D01*
X169482059Y-101455167D01*
X169363575Y-101404874D01*
X169313807Y-101522121D01*
X169432290Y-101572414D01*
X169333040Y-101806234D01*
X169450174Y-101855955D01*
G37*
G36*
X169330846Y-101807028D02*
G01*
X169097026Y-101707777D01*
X169047257Y-101825024D01*
X169281077Y-101924275D01*
X169330846Y-101807028D01*
G37*
G36*
X169579449Y-101221354D02*
G01*
X169629218Y-101104107D01*
X169395398Y-101004856D01*
X169345629Y-101122103D01*
X169579449Y-101221354D01*
G37*
G36*
X169363289Y-101405548D02*
G01*
X169413057Y-101288301D01*
X169296147Y-101238676D01*
X169346536Y-101119967D01*
X169231425Y-101071106D01*
X168982535Y-101657454D01*
X169097646Y-101706316D01*
X169246379Y-101355923D01*
X169363289Y-101405548D01*
G37*
G36*
X66733982Y-97712644D02*
G01*
X66676157Y-97599154D01*
X66334925Y-97773020D01*
X66392751Y-97886510D01*
X66733982Y-97712644D01*
G37*
G36*
X66560116Y-97371413D02*
G01*
X66502290Y-97257923D01*
X66388909Y-97315693D01*
X66446735Y-97429183D01*
X66560116Y-97371413D01*
G37*
G36*
X66503038Y-97543449D02*
G01*
X66445212Y-97429959D01*
X66218885Y-97545279D01*
X66276711Y-97658768D01*
X66503038Y-97543449D01*
G37*
G36*
X66387719Y-97317122D02*
G01*
X66329893Y-97203632D01*
X65992143Y-97375724D01*
X66049969Y-97489214D01*
X66387719Y-97317122D01*
G37*
G36*
X66277432Y-97660183D02*
G01*
X66166009Y-97716956D01*
X66223503Y-97829793D01*
X66334925Y-97773020D01*
X66277432Y-97660183D01*
G37*
G36*
X66167295Y-98001386D02*
G01*
X65878110Y-97433827D01*
X65764729Y-97491598D01*
X65938595Y-97832829D01*
X65712703Y-97947927D01*
X65538837Y-97606696D01*
X65425456Y-97664466D01*
X65714641Y-98232024D01*
X65828022Y-98174254D01*
X65770529Y-98061417D01*
X65996420Y-97946319D01*
X66053914Y-98059156D01*
X66167295Y-98001386D01*
G37*
G36*
X65542061Y-98175223D02*
G01*
X65426741Y-97948896D01*
X65313360Y-98006667D01*
X65428679Y-98232993D01*
X65542061Y-98175223D01*
G37*
G36*
X65368915Y-97835406D02*
G01*
X65254649Y-97611147D01*
X65141268Y-97668917D01*
X65255534Y-97893177D01*
X65368915Y-97835406D01*
G37*
G36*
X65427877Y-98235184D02*
G01*
X65201550Y-98350503D01*
X65259376Y-98463993D01*
X65485703Y-98348674D01*
X65427877Y-98235184D01*
G37*
G36*
X65254011Y-97893953D02*
G01*
X65027684Y-98009272D01*
X65085510Y-98122762D01*
X65311837Y-98007443D01*
X65254011Y-97893953D01*
G37*
G36*
X65139024Y-97668279D02*
G01*
X65081198Y-97554789D01*
X64854871Y-97670108D01*
X64912697Y-97783598D01*
X65139024Y-97668279D01*
G37*
G36*
X65200829Y-98349089D02*
G01*
X65085510Y-98122762D01*
X64974088Y-98179535D01*
X65089407Y-98405862D01*
X65200829Y-98349089D01*
G37*
G36*
X65027684Y-98009272D02*
G01*
X64913418Y-97785013D01*
X64801996Y-97841785D01*
X64916262Y-98066045D01*
X65027684Y-98009272D01*
G37*
G36*
X150281012Y-70296039D02*
G01*
X150281012Y-69659054D01*
X150153761Y-69659054D01*
X150153761Y-69914654D01*
X150025045Y-69914654D01*
X150025045Y-70042027D01*
X150153761Y-70042027D01*
X150153761Y-70296039D01*
X150281012Y-70296039D01*
G37*
G36*
X150152051Y-70297627D02*
G01*
X149898039Y-70297627D01*
X149898039Y-70425000D01*
X150152051Y-70425000D01*
X150152051Y-70297627D01*
G37*
G36*
X150152051Y-69661374D02*
G01*
X150152051Y-69534002D01*
X149898039Y-69534002D01*
X149898039Y-69661374D01*
X150152051Y-69661374D01*
G37*
G36*
X150025045Y-69915387D02*
G01*
X150025045Y-69788014D01*
X149898039Y-69788014D01*
X149898039Y-69659054D01*
X149772986Y-69659054D01*
X149772986Y-70296039D01*
X149898039Y-70296039D01*
X149898039Y-69915387D01*
X150025045Y-69915387D01*
G37*
G36*
X149133070Y-70297627D02*
G01*
X149133070Y-70425000D01*
X149516043Y-70425000D01*
X149516043Y-70297627D01*
X149389281Y-70297627D01*
X149389281Y-69788014D01*
X149516043Y-69788014D01*
X149516043Y-69660642D01*
X149389281Y-69660642D01*
X149389281Y-69534002D01*
X149262030Y-69534002D01*
X149262030Y-70297627D01*
X149133070Y-70297627D01*
G37*
G36*
X148497062Y-70297627D02*
G01*
X148497062Y-70425000D01*
X148880035Y-70425000D01*
X148880035Y-70297627D01*
X148753272Y-70297627D01*
X148753272Y-69788014D01*
X148880035Y-69788014D01*
X148880035Y-69660642D01*
X148753272Y-69660642D01*
X148753272Y-69534002D01*
X148626022Y-69534002D01*
X148626022Y-70297627D01*
X148497062Y-70297627D01*
G37*
G36*
X144281012Y-50546039D02*
G01*
X144281012Y-50163066D01*
X144153761Y-50163066D01*
X144153761Y-50546039D01*
X144281012Y-50546039D01*
G37*
G36*
X144152051Y-50547627D02*
G01*
X143898039Y-50547627D01*
X143898039Y-50165387D01*
X144152051Y-50165387D01*
X144152051Y-50038014D01*
X143772986Y-50038014D01*
X143772986Y-50801639D01*
X143898039Y-50801639D01*
X143898039Y-50675000D01*
X144152051Y-50675000D01*
X144152051Y-50547627D01*
G37*
G36*
X144152051Y-50929012D02*
G01*
X144152051Y-50801639D01*
X143898039Y-50801639D01*
X143898039Y-50929012D01*
X144152051Y-50929012D01*
G37*
G36*
X143645003Y-50675000D02*
G01*
X143645003Y-50038014D01*
X143263190Y-50038014D01*
X143263190Y-50165387D01*
X143517753Y-50165387D01*
X143517753Y-50675000D01*
X143645003Y-50675000D01*
G37*
G36*
X143136978Y-50675000D02*
G01*
X143263190Y-50675000D01*
X143263190Y-50166974D01*
X143136978Y-50166974D01*
X143136978Y-50675000D01*
G37*
G36*
X143008995Y-50547627D02*
G01*
X143008995Y-50166974D01*
X142881744Y-50166974D01*
X142881744Y-50547627D01*
X143008995Y-50547627D01*
G37*
G36*
X142500970Y-50675000D02*
G01*
X142881744Y-50675000D01*
X142881744Y-50547627D01*
X142628220Y-50547627D01*
X142628220Y-50165387D01*
X142881744Y-50165387D01*
X142881744Y-50038014D01*
X142628220Y-50038014D01*
X142628220Y-49784002D01*
X142500970Y-49784002D01*
X142500970Y-50675000D01*
G37*
G36*
X144531012Y-60546039D02*
G01*
X144531012Y-59909054D01*
X144403761Y-59909054D01*
X144403761Y-60164654D01*
X144275045Y-60164654D01*
X144275045Y-60292027D01*
X144403761Y-60292027D01*
X144403761Y-60546039D01*
X144531012Y-60546039D01*
G37*
G36*
X144402051Y-60547627D02*
G01*
X144148039Y-60547627D01*
X144148039Y-60675000D01*
X144402051Y-60675000D01*
X144402051Y-60547627D01*
G37*
G36*
X144402051Y-59911374D02*
G01*
X144402051Y-59784002D01*
X144148039Y-59784002D01*
X144148039Y-59911374D01*
X144402051Y-59911374D01*
G37*
G36*
X144275045Y-60165387D02*
G01*
X144275045Y-60038014D01*
X144148039Y-60038014D01*
X144148039Y-59909054D01*
X144022986Y-59909054D01*
X144022986Y-60546039D01*
X144148039Y-60546039D01*
X144148039Y-60165387D01*
X144275045Y-60165387D01*
G37*
G36*
X143895003Y-60419399D02*
G01*
X143767753Y-60419399D01*
X143767753Y-60547627D01*
X143386978Y-60547627D01*
X143386978Y-60675000D01*
X143895003Y-60675000D01*
X143895003Y-60419399D01*
G37*
G36*
X143895003Y-60040334D02*
G01*
X143895003Y-59912962D01*
X143767753Y-59912962D01*
X143767753Y-60040334D01*
X143895003Y-60040334D01*
G37*
G36*
X143767753Y-60419399D02*
G01*
X143767753Y-60292027D01*
X143640991Y-60292027D01*
X143640991Y-60419399D01*
X143767753Y-60419399D01*
G37*
G36*
X143767753Y-59911374D02*
G01*
X143767753Y-59784002D01*
X143513740Y-59784002D01*
X143513740Y-59911374D01*
X143767753Y-59911374D01*
G37*
G36*
X143640991Y-60292027D02*
G01*
X143640991Y-60164654D01*
X143513740Y-60164654D01*
X143513740Y-60292027D01*
X143640991Y-60292027D01*
G37*
G36*
X143513740Y-60164654D02*
G01*
X143513740Y-59912962D01*
X143386978Y-59912962D01*
X143386978Y-60164654D01*
X143513740Y-60164654D01*
G37*
G36*
X143258995Y-60547627D02*
G01*
X143258995Y-60420987D01*
X143131744Y-60420987D01*
X143131744Y-60547627D01*
X143258995Y-60547627D01*
G37*
G36*
X143258995Y-60164654D02*
G01*
X143258995Y-59912962D01*
X143131744Y-59912962D01*
X143131744Y-60164654D01*
X143258995Y-60164654D01*
G37*
G36*
X143130035Y-60547627D02*
G01*
X142876022Y-60547627D01*
X142876022Y-60675000D01*
X143130035Y-60675000D01*
X143130035Y-60547627D01*
G37*
G36*
X143130035Y-60164654D02*
G01*
X142876022Y-60164654D01*
X142876022Y-59912962D01*
X142750970Y-59912962D01*
X142750970Y-60547627D01*
X142876022Y-60547627D01*
X142876022Y-60292027D01*
X143130035Y-60292027D01*
X143130035Y-60164654D01*
G37*
G36*
X143130035Y-59911374D02*
G01*
X143130035Y-59784002D01*
X142876022Y-59784002D01*
X142876022Y-59911374D01*
X143130035Y-59911374D01*
G37*
G36*
X144019078Y-65797627D02*
G01*
X144019078Y-65925000D01*
X144402051Y-65925000D01*
X144402051Y-65797627D01*
X144275289Y-65797627D01*
X144275289Y-65288014D01*
X144402051Y-65288014D01*
X144402051Y-65160642D01*
X144275289Y-65160642D01*
X144275289Y-65034002D01*
X144148039Y-65034002D01*
X144148039Y-65797627D01*
X144019078Y-65797627D01*
G37*
G36*
X143383070Y-65797627D02*
G01*
X143383070Y-65925000D01*
X143766043Y-65925000D01*
X143766043Y-65797627D01*
X143639281Y-65797627D01*
X143639281Y-65288014D01*
X143766043Y-65288014D01*
X143766043Y-65160642D01*
X143639281Y-65160642D01*
X143639281Y-65034002D01*
X143512030Y-65034002D01*
X143512030Y-65797627D01*
X143383070Y-65797627D01*
G37*
G36*
X143258995Y-65797627D02*
G01*
X143258995Y-65670987D01*
X143131744Y-65670987D01*
X143131744Y-65797627D01*
X143258995Y-65797627D01*
G37*
G36*
X143258995Y-65415387D02*
G01*
X143258995Y-65034002D01*
X142750970Y-65034002D01*
X142750970Y-65161374D01*
X143131744Y-65161374D01*
X143131744Y-65288014D01*
X142876022Y-65288014D01*
X142876022Y-65415387D01*
X143258995Y-65415387D01*
G37*
G36*
X143130035Y-65797627D02*
G01*
X142876022Y-65797627D01*
X142876022Y-65925000D01*
X143130035Y-65925000D01*
X143130035Y-65797627D01*
G37*
G36*
X142876022Y-65797627D02*
G01*
X142876022Y-65414654D01*
X142750970Y-65414654D01*
X142750970Y-65797627D01*
X142876022Y-65797627D01*
G37*
G36*
X150281012Y-65296039D02*
G01*
X150281012Y-64659054D01*
X150153761Y-64659054D01*
X150153761Y-64914654D01*
X150025045Y-64914654D01*
X150025045Y-65042027D01*
X150153761Y-65042027D01*
X150153761Y-65296039D01*
X150281012Y-65296039D01*
G37*
G36*
X150152051Y-65297627D02*
G01*
X149898039Y-65297627D01*
X149898039Y-65425000D01*
X150152051Y-65425000D01*
X150152051Y-65297627D01*
G37*
G36*
X150152051Y-64661374D02*
G01*
X150152051Y-64534002D01*
X149898039Y-64534002D01*
X149898039Y-64661374D01*
X150152051Y-64661374D01*
G37*
G36*
X150025045Y-64915387D02*
G01*
X150025045Y-64788014D01*
X149898039Y-64788014D01*
X149898039Y-64659054D01*
X149772986Y-64659054D01*
X149772986Y-65296039D01*
X149898039Y-65296039D01*
X149898039Y-64915387D01*
X150025045Y-64915387D01*
G37*
G36*
X149645003Y-65169399D02*
G01*
X149517753Y-65169399D01*
X149517753Y-65297627D01*
X149136978Y-65297627D01*
X149136978Y-65425000D01*
X149645003Y-65425000D01*
X149645003Y-65169399D01*
G37*
G36*
X149645003Y-64790334D02*
G01*
X149645003Y-64662962D01*
X149517753Y-64662962D01*
X149517753Y-64790334D01*
X149645003Y-64790334D01*
G37*
G36*
X149517753Y-65169399D02*
G01*
X149517753Y-65042027D01*
X149390991Y-65042027D01*
X149390991Y-65169399D01*
X149517753Y-65169399D01*
G37*
G36*
X149517753Y-64661374D02*
G01*
X149517753Y-64534002D01*
X149263740Y-64534002D01*
X149263740Y-64661374D01*
X149517753Y-64661374D01*
G37*
G36*
X149390991Y-65042027D02*
G01*
X149390991Y-64914654D01*
X149263740Y-64914654D01*
X149263740Y-65042027D01*
X149390991Y-65042027D01*
G37*
G36*
X149263740Y-64914654D02*
G01*
X149263740Y-64662962D01*
X149136978Y-64662962D01*
X149136978Y-64914654D01*
X149263740Y-64914654D01*
G37*
G36*
X149008995Y-65169399D02*
G01*
X149008995Y-64534002D01*
X148881744Y-64534002D01*
X148881744Y-65042027D01*
X148754982Y-65042027D01*
X148754982Y-64788014D01*
X148627732Y-64788014D01*
X148627732Y-65042027D01*
X148499016Y-65042027D01*
X148499016Y-65169399D01*
X148627732Y-65169399D01*
X148627732Y-65425000D01*
X148754982Y-65425000D01*
X148754982Y-65169399D01*
X149008995Y-65169399D01*
G37*
G36*
X144531012Y-75796039D02*
G01*
X144531012Y-75159054D01*
X144403761Y-75159054D01*
X144403761Y-75414654D01*
X144275045Y-75414654D01*
X144275045Y-75542027D01*
X144403761Y-75542027D01*
X144403761Y-75796039D01*
X144531012Y-75796039D01*
G37*
G36*
X144402051Y-75797627D02*
G01*
X144148039Y-75797627D01*
X144148039Y-75925000D01*
X144402051Y-75925000D01*
X144402051Y-75797627D01*
G37*
G36*
X144402051Y-75161374D02*
G01*
X144402051Y-75034002D01*
X144148039Y-75034002D01*
X144148039Y-75161374D01*
X144402051Y-75161374D01*
G37*
G36*
X144275045Y-75415387D02*
G01*
X144275045Y-75288014D01*
X144148039Y-75288014D01*
X144148039Y-75159054D01*
X144022986Y-75159054D01*
X144022986Y-75796039D01*
X144148039Y-75796039D01*
X144148039Y-75415387D01*
X144275045Y-75415387D01*
G37*
G36*
X143895003Y-75796039D02*
G01*
X143895003Y-75159054D01*
X143767753Y-75159054D01*
X143767753Y-75414654D01*
X143639037Y-75414654D01*
X143639037Y-75542027D01*
X143767753Y-75542027D01*
X143767753Y-75796039D01*
X143895003Y-75796039D01*
G37*
G36*
X143766043Y-75797627D02*
G01*
X143512030Y-75797627D01*
X143512030Y-75925000D01*
X143766043Y-75925000D01*
X143766043Y-75797627D01*
G37*
G36*
X143766043Y-75161374D02*
G01*
X143766043Y-75034002D01*
X143512030Y-75034002D01*
X143512030Y-75161374D01*
X143766043Y-75161374D01*
G37*
G36*
X143639037Y-75415387D02*
G01*
X143639037Y-75288014D01*
X143512030Y-75288014D01*
X143512030Y-75159054D01*
X143386978Y-75159054D01*
X143386978Y-75796039D01*
X143512030Y-75796039D01*
X143512030Y-75415387D01*
X143639037Y-75415387D01*
G37*
G36*
X143258995Y-75797627D02*
G01*
X143258995Y-75670987D01*
X143131744Y-75670987D01*
X143131744Y-75797627D01*
X143258995Y-75797627D01*
G37*
G36*
X143258995Y-75414654D02*
G01*
X143258995Y-75162962D01*
X143131744Y-75162962D01*
X143131744Y-75414654D01*
X143258995Y-75414654D01*
G37*
G36*
X143130035Y-75797627D02*
G01*
X142876022Y-75797627D01*
X142876022Y-75925000D01*
X143130035Y-75925000D01*
X143130035Y-75797627D01*
G37*
G36*
X143130035Y-75414654D02*
G01*
X142876022Y-75414654D01*
X142876022Y-75162962D01*
X142750970Y-75162962D01*
X142750970Y-75797627D01*
X142876022Y-75797627D01*
X142876022Y-75542027D01*
X143130035Y-75542027D01*
X143130035Y-75414654D01*
G37*
G36*
X143130035Y-75161374D02*
G01*
X143130035Y-75034002D01*
X142876022Y-75034002D01*
X142876022Y-75161374D01*
X143130035Y-75161374D01*
G37*
G36*
X150281012Y-47546039D02*
G01*
X150281012Y-46909054D01*
X150153761Y-46909054D01*
X150153761Y-47164654D01*
X150025045Y-47164654D01*
X150025045Y-47292027D01*
X150153761Y-47292027D01*
X150153761Y-47546039D01*
X150281012Y-47546039D01*
G37*
G36*
X150152051Y-47547627D02*
G01*
X149898039Y-47547627D01*
X149898039Y-47675000D01*
X150152051Y-47675000D01*
X150152051Y-47547627D01*
G37*
G36*
X150152051Y-46911374D02*
G01*
X150152051Y-46784002D01*
X149898039Y-46784002D01*
X149898039Y-46911374D01*
X150152051Y-46911374D01*
G37*
G36*
X150025045Y-47165387D02*
G01*
X150025045Y-47038014D01*
X149898039Y-47038014D01*
X149898039Y-46909054D01*
X149772986Y-46909054D01*
X149772986Y-47546039D01*
X149898039Y-47546039D01*
X149898039Y-47165387D01*
X150025045Y-47165387D01*
G37*
G36*
X149645003Y-47546039D02*
G01*
X149645003Y-46909054D01*
X149517753Y-46909054D01*
X149517753Y-47164654D01*
X149389037Y-47164654D01*
X149389037Y-47292027D01*
X149517753Y-47292027D01*
X149517753Y-47546039D01*
X149645003Y-47546039D01*
G37*
G36*
X149516043Y-47547627D02*
G01*
X149262030Y-47547627D01*
X149262030Y-47675000D01*
X149516043Y-47675000D01*
X149516043Y-47547627D01*
G37*
G36*
X149516043Y-46911374D02*
G01*
X149516043Y-46784002D01*
X149262030Y-46784002D01*
X149262030Y-46911374D01*
X149516043Y-46911374D01*
G37*
G36*
X149389037Y-47165387D02*
G01*
X149389037Y-47038014D01*
X149262030Y-47038014D01*
X149262030Y-46909054D01*
X149136978Y-46909054D01*
X149136978Y-47546039D01*
X149262030Y-47546039D01*
X149262030Y-47165387D01*
X149389037Y-47165387D01*
G37*
G36*
X149008995Y-47546039D02*
G01*
X149008995Y-46910642D01*
X148881744Y-46910642D01*
X148881744Y-47164654D01*
X148626022Y-47164654D01*
X148626022Y-47292027D01*
X148881744Y-47292027D01*
X148881744Y-47546039D01*
X149008995Y-47546039D01*
G37*
G36*
X148880035Y-47547627D02*
G01*
X148626022Y-47547627D01*
X148626022Y-47675000D01*
X148880035Y-47675000D01*
X148880035Y-47547627D01*
G37*
G36*
X148880035Y-46911374D02*
G01*
X148880035Y-46784002D01*
X148626022Y-46784002D01*
X148626022Y-46911374D01*
X148880035Y-46911374D01*
G37*
G36*
X148626022Y-47546039D02*
G01*
X148626022Y-47292027D01*
X148500970Y-47292027D01*
X148500970Y-47546039D01*
X148626022Y-47546039D01*
G37*
G36*
X148626022Y-47038014D02*
G01*
X148626022Y-46910642D01*
X148500970Y-46910642D01*
X148500970Y-47038014D01*
X148626022Y-47038014D01*
G37*
G36*
X150281012Y-50046039D02*
G01*
X150281012Y-49409054D01*
X150153761Y-49409054D01*
X150153761Y-49664654D01*
X150025045Y-49664654D01*
X150025045Y-49792027D01*
X150153761Y-49792027D01*
X150153761Y-50046039D01*
X150281012Y-50046039D01*
G37*
G36*
X150152051Y-50047627D02*
G01*
X149898039Y-50047627D01*
X149898039Y-50175000D01*
X150152051Y-50175000D01*
X150152051Y-50047627D01*
G37*
G36*
X150152051Y-49411374D02*
G01*
X150152051Y-49284002D01*
X149898039Y-49284002D01*
X149898039Y-49411374D01*
X150152051Y-49411374D01*
G37*
G36*
X150025045Y-49665387D02*
G01*
X150025045Y-49538014D01*
X149898039Y-49538014D01*
X149898039Y-49409054D01*
X149772986Y-49409054D01*
X149772986Y-50046039D01*
X149898039Y-50046039D01*
X149898039Y-49665387D01*
X150025045Y-49665387D01*
G37*
G36*
X149645003Y-50046039D02*
G01*
X149645003Y-49409054D01*
X149517753Y-49409054D01*
X149517753Y-49664654D01*
X149389037Y-49664654D01*
X149389037Y-49792027D01*
X149517753Y-49792027D01*
X149517753Y-50046039D01*
X149645003Y-50046039D01*
G37*
G36*
X149516043Y-50047627D02*
G01*
X149262030Y-50047627D01*
X149262030Y-50175000D01*
X149516043Y-50175000D01*
X149516043Y-50047627D01*
G37*
G36*
X149516043Y-49411374D02*
G01*
X149516043Y-49284002D01*
X149262030Y-49284002D01*
X149262030Y-49411374D01*
X149516043Y-49411374D01*
G37*
G36*
X149389037Y-49665387D02*
G01*
X149389037Y-49538014D01*
X149262030Y-49538014D01*
X149262030Y-49409054D01*
X149136978Y-49409054D01*
X149136978Y-50046039D01*
X149262030Y-50046039D01*
X149262030Y-49665387D01*
X149389037Y-49665387D01*
G37*
G36*
X149008995Y-50046039D02*
G01*
X149008995Y-49792027D01*
X148881744Y-49792027D01*
X148881744Y-50046039D01*
X149008995Y-50046039D01*
G37*
G36*
X149008995Y-49664654D02*
G01*
X149008995Y-49412962D01*
X148881744Y-49412962D01*
X148881744Y-49664654D01*
X149008995Y-49664654D01*
G37*
G36*
X148880035Y-50047627D02*
G01*
X148626022Y-50047627D01*
X148626022Y-50175000D01*
X148880035Y-50175000D01*
X148880035Y-50047627D01*
G37*
G36*
X148880035Y-49664654D02*
G01*
X148626022Y-49664654D01*
X148626022Y-49792027D01*
X148880035Y-49792027D01*
X148880035Y-49664654D01*
G37*
G36*
X148880035Y-49411374D02*
G01*
X148880035Y-49284002D01*
X148626022Y-49284002D01*
X148626022Y-49411374D01*
X148880035Y-49411374D01*
G37*
G36*
X148626022Y-50046039D02*
G01*
X148626022Y-49792027D01*
X148500970Y-49792027D01*
X148500970Y-50046039D01*
X148626022Y-50046039D01*
G37*
G36*
X148626022Y-49664654D02*
G01*
X148626022Y-49412962D01*
X148500970Y-49412962D01*
X148500970Y-49664654D01*
X148626022Y-49664654D01*
G37*
G36*
X150281012Y-62546039D02*
G01*
X150281012Y-61909054D01*
X150153761Y-61909054D01*
X150153761Y-62164654D01*
X150025045Y-62164654D01*
X150025045Y-62292027D01*
X150153761Y-62292027D01*
X150153761Y-62546039D01*
X150281012Y-62546039D01*
G37*
G36*
X150152051Y-62547627D02*
G01*
X149898039Y-62547627D01*
X149898039Y-62675000D01*
X150152051Y-62675000D01*
X150152051Y-62547627D01*
G37*
G36*
X150152051Y-61911374D02*
G01*
X150152051Y-61784002D01*
X149898039Y-61784002D01*
X149898039Y-61911374D01*
X150152051Y-61911374D01*
G37*
G36*
X150025045Y-62165387D02*
G01*
X150025045Y-62038014D01*
X149898039Y-62038014D01*
X149898039Y-61909054D01*
X149772986Y-61909054D01*
X149772986Y-62546039D01*
X149898039Y-62546039D01*
X149898039Y-62165387D01*
X150025045Y-62165387D01*
G37*
G36*
X149645003Y-62419399D02*
G01*
X149517753Y-62419399D01*
X149517753Y-62547627D01*
X149136978Y-62547627D01*
X149136978Y-62675000D01*
X149645003Y-62675000D01*
X149645003Y-62419399D01*
G37*
G36*
X149645003Y-62040334D02*
G01*
X149645003Y-61912962D01*
X149517753Y-61912962D01*
X149517753Y-62040334D01*
X149645003Y-62040334D01*
G37*
G36*
X149517753Y-62419399D02*
G01*
X149517753Y-62292027D01*
X149390991Y-62292027D01*
X149390991Y-62419399D01*
X149517753Y-62419399D01*
G37*
G36*
X149517753Y-61911374D02*
G01*
X149517753Y-61784002D01*
X149263740Y-61784002D01*
X149263740Y-61911374D01*
X149517753Y-61911374D01*
G37*
G36*
X149390991Y-62292027D02*
G01*
X149390991Y-62164654D01*
X149263740Y-62164654D01*
X149263740Y-62292027D01*
X149390991Y-62292027D01*
G37*
G36*
X149263740Y-62164654D02*
G01*
X149263740Y-61912962D01*
X149136978Y-61912962D01*
X149136978Y-62164654D01*
X149263740Y-62164654D01*
G37*
G36*
X149008995Y-62419399D02*
G01*
X148881744Y-62419399D01*
X148881744Y-62547627D01*
X148500970Y-62547627D01*
X148500970Y-62675000D01*
X149008995Y-62675000D01*
X149008995Y-62419399D01*
G37*
G36*
X149008995Y-62040334D02*
G01*
X149008995Y-61912962D01*
X148881744Y-61912962D01*
X148881744Y-62040334D01*
X149008995Y-62040334D01*
G37*
G36*
X148881744Y-62419399D02*
G01*
X148881744Y-62292027D01*
X148754982Y-62292027D01*
X148754982Y-62419399D01*
X148881744Y-62419399D01*
G37*
G36*
X148881744Y-61911374D02*
G01*
X148881744Y-61784002D01*
X148627732Y-61784002D01*
X148627732Y-61911374D01*
X148881744Y-61911374D01*
G37*
G36*
X148754982Y-62292027D02*
G01*
X148754982Y-62164654D01*
X148627732Y-62164654D01*
X148627732Y-62292027D01*
X148754982Y-62292027D01*
G37*
G36*
X148627732Y-62164654D02*
G01*
X148627732Y-61912962D01*
X148500970Y-61912962D01*
X148500970Y-62164654D01*
X148627732Y-62164654D01*
G37*
G36*
X150281012Y-55046039D02*
G01*
X150281012Y-54663066D01*
X150153761Y-54663066D01*
X150153761Y-55046039D01*
X150281012Y-55046039D01*
G37*
G36*
X150152051Y-55047627D02*
G01*
X149898039Y-55047627D01*
X149898039Y-54665387D01*
X150152051Y-54665387D01*
X150152051Y-54538014D01*
X149772986Y-54538014D01*
X149772986Y-55301639D01*
X149898039Y-55301639D01*
X149898039Y-55175000D01*
X150152051Y-55175000D01*
X150152051Y-55047627D01*
G37*
G36*
X150152051Y-55429012D02*
G01*
X150152051Y-55301639D01*
X149898039Y-55301639D01*
X149898039Y-55429012D01*
X150152051Y-55429012D01*
G37*
G36*
X149645003Y-55175000D02*
G01*
X149645003Y-54538014D01*
X149263190Y-54538014D01*
X149263190Y-54665387D01*
X149517753Y-54665387D01*
X149517753Y-55175000D01*
X149645003Y-55175000D01*
G37*
G36*
X149136978Y-55175000D02*
G01*
X149263190Y-55175000D01*
X149263190Y-54666974D01*
X149136978Y-54666974D01*
X149136978Y-55175000D01*
G37*
G36*
X149008995Y-55047627D02*
G01*
X149008995Y-54666974D01*
X148881744Y-54666974D01*
X148881744Y-55047627D01*
X149008995Y-55047627D01*
G37*
G36*
X148500970Y-55175000D02*
G01*
X148881744Y-55175000D01*
X148881744Y-55047627D01*
X148628220Y-55047627D01*
X148628220Y-54665387D01*
X148881744Y-54665387D01*
X148881744Y-54538014D01*
X148628220Y-54538014D01*
X148628220Y-54284002D01*
X148500970Y-54284002D01*
X148500970Y-55175000D01*
G37*
G36*
X150281012Y-57546039D02*
G01*
X150281012Y-56909054D01*
X150153761Y-56909054D01*
X150153761Y-57164654D01*
X150025045Y-57164654D01*
X150025045Y-57292027D01*
X150153761Y-57292027D01*
X150153761Y-57546039D01*
X150281012Y-57546039D01*
G37*
G36*
X150152051Y-57547627D02*
G01*
X149898039Y-57547627D01*
X149898039Y-57675000D01*
X150152051Y-57675000D01*
X150152051Y-57547627D01*
G37*
G36*
X150152051Y-56911374D02*
G01*
X150152051Y-56784002D01*
X149898039Y-56784002D01*
X149898039Y-56911374D01*
X150152051Y-56911374D01*
G37*
G36*
X150025045Y-57165387D02*
G01*
X150025045Y-57038014D01*
X149898039Y-57038014D01*
X149898039Y-56909054D01*
X149772986Y-56909054D01*
X149772986Y-57546039D01*
X149898039Y-57546039D01*
X149898039Y-57165387D01*
X150025045Y-57165387D01*
G37*
G36*
X149133070Y-57547627D02*
G01*
X149133070Y-57675000D01*
X149516043Y-57675000D01*
X149516043Y-57547627D01*
X149389281Y-57547627D01*
X149389281Y-57038014D01*
X149516043Y-57038014D01*
X149516043Y-56910642D01*
X149389281Y-56910642D01*
X149389281Y-56784002D01*
X149262030Y-56784002D01*
X149262030Y-57547627D01*
X149133070Y-57547627D01*
G37*
G36*
X148498771Y-57166974D02*
G01*
X148626022Y-57166974D01*
X148626022Y-56911374D01*
X149007041Y-56911374D01*
X149007041Y-56784002D01*
X148498771Y-56784002D01*
X148498771Y-57166974D01*
G37*
G36*
X148880035Y-57420987D02*
G01*
X148752784Y-57420987D01*
X148752784Y-57675000D01*
X148880035Y-57675000D01*
X148880035Y-57420987D01*
G37*
G36*
X148752784Y-57420987D02*
G01*
X148752784Y-57166974D01*
X148626022Y-57166974D01*
X148626022Y-57420987D01*
X148752784Y-57420987D01*
G37*
G36*
X150281012Y-60046039D02*
G01*
X150281012Y-59409054D01*
X150153761Y-59409054D01*
X150153761Y-59664654D01*
X150025045Y-59664654D01*
X150025045Y-59792027D01*
X150153761Y-59792027D01*
X150153761Y-60046039D01*
X150281012Y-60046039D01*
G37*
G36*
X150152051Y-60047627D02*
G01*
X149898039Y-60047627D01*
X149898039Y-60175000D01*
X150152051Y-60175000D01*
X150152051Y-60047627D01*
G37*
G36*
X150152051Y-59411374D02*
G01*
X150152051Y-59284002D01*
X149898039Y-59284002D01*
X149898039Y-59411374D01*
X150152051Y-59411374D01*
G37*
G36*
X150025045Y-59665387D02*
G01*
X150025045Y-59538014D01*
X149898039Y-59538014D01*
X149898039Y-59409054D01*
X149772986Y-59409054D01*
X149772986Y-60046039D01*
X149898039Y-60046039D01*
X149898039Y-59665387D01*
X150025045Y-59665387D01*
G37*
G36*
X149645003Y-59919399D02*
G01*
X149517753Y-59919399D01*
X149517753Y-60047627D01*
X149136978Y-60047627D01*
X149136978Y-60175000D01*
X149645003Y-60175000D01*
X149645003Y-59919399D01*
G37*
G36*
X149645003Y-59540334D02*
G01*
X149645003Y-59412962D01*
X149517753Y-59412962D01*
X149517753Y-59540334D01*
X149645003Y-59540334D01*
G37*
G36*
X149517753Y-59919399D02*
G01*
X149517753Y-59792027D01*
X149390991Y-59792027D01*
X149390991Y-59919399D01*
X149517753Y-59919399D01*
G37*
G36*
X149517753Y-59411374D02*
G01*
X149517753Y-59284002D01*
X149263740Y-59284002D01*
X149263740Y-59411374D01*
X149517753Y-59411374D01*
G37*
G36*
X149390991Y-59792027D02*
G01*
X149390991Y-59664654D01*
X149263740Y-59664654D01*
X149263740Y-59792027D01*
X149390991Y-59792027D01*
G37*
G36*
X149263740Y-59664654D02*
G01*
X149263740Y-59412962D01*
X149136978Y-59412962D01*
X149136978Y-59664654D01*
X149263740Y-59664654D01*
G37*
G36*
X149008995Y-60046039D02*
G01*
X149008995Y-59409054D01*
X148881744Y-59409054D01*
X148881744Y-59664654D01*
X148753028Y-59664654D01*
X148753028Y-59792027D01*
X148881744Y-59792027D01*
X148881744Y-60046039D01*
X149008995Y-60046039D01*
G37*
G36*
X148880035Y-60047627D02*
G01*
X148626022Y-60047627D01*
X148626022Y-60175000D01*
X148880035Y-60175000D01*
X148880035Y-60047627D01*
G37*
G36*
X148880035Y-59411374D02*
G01*
X148880035Y-59284002D01*
X148626022Y-59284002D01*
X148626022Y-59411374D01*
X148880035Y-59411374D01*
G37*
G36*
X148753028Y-59665387D02*
G01*
X148753028Y-59538014D01*
X148626022Y-59538014D01*
X148626022Y-59409054D01*
X148500970Y-59409054D01*
X148500970Y-60046039D01*
X148626022Y-60046039D01*
X148626022Y-59665387D01*
X148753028Y-59665387D01*
G37*
G36*
X144019078Y-70797627D02*
G01*
X144019078Y-70925000D01*
X144402051Y-70925000D01*
X144402051Y-70797627D01*
X144275289Y-70797627D01*
X144275289Y-70288014D01*
X144402051Y-70288014D01*
X144402051Y-70160642D01*
X144275289Y-70160642D01*
X144275289Y-70034002D01*
X144148039Y-70034002D01*
X144148039Y-70797627D01*
X144019078Y-70797627D01*
G37*
G36*
X143383070Y-70797627D02*
G01*
X143383070Y-70925000D01*
X143766043Y-70925000D01*
X143766043Y-70797627D01*
X143639281Y-70797627D01*
X143639281Y-70288014D01*
X143766043Y-70288014D01*
X143766043Y-70160642D01*
X143639281Y-70160642D01*
X143639281Y-70034002D01*
X143512030Y-70034002D01*
X143512030Y-70797627D01*
X143383070Y-70797627D01*
G37*
G36*
X142747062Y-70797627D02*
G01*
X142747062Y-70925000D01*
X143130035Y-70925000D01*
X143130035Y-70797627D01*
X143003272Y-70797627D01*
X143003272Y-70288014D01*
X143130035Y-70288014D01*
X143130035Y-70160642D01*
X143003272Y-70160642D01*
X143003272Y-70034002D01*
X142876022Y-70034002D01*
X142876022Y-70797627D01*
X142747062Y-70797627D01*
G37*
G36*
X144531012Y-63296039D02*
G01*
X144531012Y-62659054D01*
X144403761Y-62659054D01*
X144403761Y-62914654D01*
X144275045Y-62914654D01*
X144275045Y-63042027D01*
X144403761Y-63042027D01*
X144403761Y-63296039D01*
X144531012Y-63296039D01*
G37*
G36*
X144402051Y-63297627D02*
G01*
X144148039Y-63297627D01*
X144148039Y-63425000D01*
X144402051Y-63425000D01*
X144402051Y-63297627D01*
G37*
G36*
X144402051Y-62661374D02*
G01*
X144402051Y-62534002D01*
X144148039Y-62534002D01*
X144148039Y-62661374D01*
X144402051Y-62661374D01*
G37*
G36*
X144275045Y-62915387D02*
G01*
X144275045Y-62788014D01*
X144148039Y-62788014D01*
X144148039Y-62659054D01*
X144022986Y-62659054D01*
X144022986Y-63296039D01*
X144148039Y-63296039D01*
X144148039Y-62915387D01*
X144275045Y-62915387D01*
G37*
G36*
X143895003Y-63296039D02*
G01*
X143895003Y-62659054D01*
X143767753Y-62659054D01*
X143767753Y-62914654D01*
X143639037Y-62914654D01*
X143639037Y-63042027D01*
X143767753Y-63042027D01*
X143767753Y-63296039D01*
X143895003Y-63296039D01*
G37*
G36*
X143766043Y-63297627D02*
G01*
X143512030Y-63297627D01*
X143512030Y-63425000D01*
X143766043Y-63425000D01*
X143766043Y-63297627D01*
G37*
G36*
X143766043Y-62661374D02*
G01*
X143766043Y-62534002D01*
X143512030Y-62534002D01*
X143512030Y-62661374D01*
X143766043Y-62661374D01*
G37*
G36*
X143639037Y-62915387D02*
G01*
X143639037Y-62788014D01*
X143512030Y-62788014D01*
X143512030Y-62659054D01*
X143386978Y-62659054D01*
X143386978Y-63296039D01*
X143512030Y-63296039D01*
X143512030Y-62915387D01*
X143639037Y-62915387D01*
G37*
G36*
X143258995Y-63169399D02*
G01*
X143131744Y-63169399D01*
X143131744Y-63297627D01*
X142750970Y-63297627D01*
X142750970Y-63425000D01*
X143258995Y-63425000D01*
X143258995Y-63169399D01*
G37*
G36*
X143258995Y-62790334D02*
G01*
X143258995Y-62662962D01*
X143131744Y-62662962D01*
X143131744Y-62790334D01*
X143258995Y-62790334D01*
G37*
G36*
X143131744Y-63169399D02*
G01*
X143131744Y-63042027D01*
X143004982Y-63042027D01*
X143004982Y-63169399D01*
X143131744Y-63169399D01*
G37*
G36*
X143131744Y-62661374D02*
G01*
X143131744Y-62534002D01*
X142877732Y-62534002D01*
X142877732Y-62661374D01*
X143131744Y-62661374D01*
G37*
G36*
X143004982Y-63042027D02*
G01*
X143004982Y-62914654D01*
X142877732Y-62914654D01*
X142877732Y-63042027D01*
X143004982Y-63042027D01*
G37*
G36*
X142877732Y-62914654D02*
G01*
X142877732Y-62662962D01*
X142750970Y-62662962D01*
X142750970Y-62914654D01*
X142877732Y-62914654D01*
G37*
G36*
X149769078Y-67797627D02*
G01*
X149769078Y-67925000D01*
X150152051Y-67925000D01*
X150152051Y-67797627D01*
X150025289Y-67797627D01*
X150025289Y-67288014D01*
X150152051Y-67288014D01*
X150152051Y-67160642D01*
X150025289Y-67160642D01*
X150025289Y-67034002D01*
X149898039Y-67034002D01*
X149898039Y-67797627D01*
X149769078Y-67797627D01*
G37*
G36*
X149645003Y-67796039D02*
G01*
X149645003Y-67159054D01*
X149517753Y-67159054D01*
X149517753Y-67414654D01*
X149389037Y-67414654D01*
X149389037Y-67542027D01*
X149517753Y-67542027D01*
X149517753Y-67796039D01*
X149645003Y-67796039D01*
G37*
G36*
X149516043Y-67797627D02*
G01*
X149262030Y-67797627D01*
X149262030Y-67925000D01*
X149516043Y-67925000D01*
X149516043Y-67797627D01*
G37*
G36*
X149516043Y-67161374D02*
G01*
X149516043Y-67034002D01*
X149262030Y-67034002D01*
X149262030Y-67161374D01*
X149516043Y-67161374D01*
G37*
G36*
X149389037Y-67415387D02*
G01*
X149389037Y-67288014D01*
X149262030Y-67288014D01*
X149262030Y-67159054D01*
X149136978Y-67159054D01*
X149136978Y-67796039D01*
X149262030Y-67796039D01*
X149262030Y-67415387D01*
X149389037Y-67415387D01*
G37*
G36*
X149008995Y-67796039D02*
G01*
X149008995Y-67159054D01*
X148881744Y-67159054D01*
X148881744Y-67414654D01*
X148753028Y-67414654D01*
X148753028Y-67542027D01*
X148881744Y-67542027D01*
X148881744Y-67796039D01*
X149008995Y-67796039D01*
G37*
G36*
X148880035Y-67797627D02*
G01*
X148626022Y-67797627D01*
X148626022Y-67925000D01*
X148880035Y-67925000D01*
X148880035Y-67797627D01*
G37*
G36*
X148880035Y-67161374D02*
G01*
X148880035Y-67034002D01*
X148626022Y-67034002D01*
X148626022Y-67161374D01*
X148880035Y-67161374D01*
G37*
G36*
X148753028Y-67415387D02*
G01*
X148753028Y-67288014D01*
X148626022Y-67288014D01*
X148626022Y-67159054D01*
X148500970Y-67159054D01*
X148500970Y-67796039D01*
X148626022Y-67796039D01*
X148626022Y-67415387D01*
X148753028Y-67415387D01*
G37*
G36*
X143963008Y-45425000D02*
G01*
X143963008Y-44534002D01*
X143835757Y-44534002D01*
X143835757Y-44788014D01*
X143581195Y-44788014D01*
X143581195Y-44915387D01*
X143835757Y-44915387D01*
X143835757Y-45297627D01*
X143581195Y-45297627D01*
X143581195Y-45425000D01*
X143963008Y-45425000D01*
G37*
G36*
X143454982Y-45297627D02*
G01*
X143581195Y-45297627D01*
X143581195Y-44916974D01*
X143454982Y-44916974D01*
X143454982Y-45297627D01*
G37*
G36*
X143326999Y-45169399D02*
G01*
X143326999Y-45042027D01*
X143072987Y-45042027D01*
X143072987Y-44788014D01*
X142945736Y-44788014D01*
X142945736Y-45042027D01*
X142690014Y-45042027D01*
X142690014Y-45169399D01*
X142945736Y-45169399D01*
X142945736Y-45425000D01*
X143072987Y-45425000D01*
X143072987Y-45169399D01*
X143326999Y-45169399D01*
G37*
G36*
X144531012Y-73296039D02*
G01*
X144531012Y-72659054D01*
X144403761Y-72659054D01*
X144403761Y-72914654D01*
X144275045Y-72914654D01*
X144275045Y-73042027D01*
X144403761Y-73042027D01*
X144403761Y-73296039D01*
X144531012Y-73296039D01*
G37*
G36*
X144402051Y-73297627D02*
G01*
X144148039Y-73297627D01*
X144148039Y-73425000D01*
X144402051Y-73425000D01*
X144402051Y-73297627D01*
G37*
G36*
X144402051Y-72661374D02*
G01*
X144402051Y-72534002D01*
X144148039Y-72534002D01*
X144148039Y-72661374D01*
X144402051Y-72661374D01*
G37*
G36*
X144275045Y-72915387D02*
G01*
X144275045Y-72788014D01*
X144148039Y-72788014D01*
X144148039Y-72659054D01*
X144022986Y-72659054D01*
X144022986Y-73296039D01*
X144148039Y-73296039D01*
X144148039Y-72915387D01*
X144275045Y-72915387D01*
G37*
G36*
X143383070Y-73297627D02*
G01*
X143383070Y-73425000D01*
X143766043Y-73425000D01*
X143766043Y-73297627D01*
X143639281Y-73297627D01*
X143639281Y-72788014D01*
X143766043Y-72788014D01*
X143766043Y-72660642D01*
X143639281Y-72660642D01*
X143639281Y-72534002D01*
X143512030Y-72534002D01*
X143512030Y-73297627D01*
X143383070Y-73297627D01*
G37*
G36*
X143258995Y-73296039D02*
G01*
X143258995Y-72659054D01*
X143131744Y-72659054D01*
X143131744Y-72914654D01*
X143003028Y-72914654D01*
X143003028Y-73042027D01*
X143131744Y-73042027D01*
X143131744Y-73296039D01*
X143258995Y-73296039D01*
G37*
G36*
X143130035Y-73297627D02*
G01*
X142876022Y-73297627D01*
X142876022Y-73425000D01*
X143130035Y-73425000D01*
X143130035Y-73297627D01*
G37*
G36*
X143130035Y-72661374D02*
G01*
X143130035Y-72534002D01*
X142876022Y-72534002D01*
X142876022Y-72661374D01*
X143130035Y-72661374D01*
G37*
G36*
X143003028Y-72915387D02*
G01*
X143003028Y-72788014D01*
X142876022Y-72788014D01*
X142876022Y-72659054D01*
X142750970Y-72659054D01*
X142750970Y-73296039D01*
X142876022Y-73296039D01*
X142876022Y-72915387D01*
X143003028Y-72915387D01*
G37*
G36*
X144019078Y-68297627D02*
G01*
X144019078Y-68425000D01*
X144402051Y-68425000D01*
X144402051Y-68297627D01*
X144275289Y-68297627D01*
X144275289Y-67788014D01*
X144402051Y-67788014D01*
X144402051Y-67660642D01*
X144275289Y-67660642D01*
X144275289Y-67534002D01*
X144148039Y-67534002D01*
X144148039Y-68297627D01*
X144019078Y-68297627D01*
G37*
G36*
X143383070Y-68297627D02*
G01*
X143383070Y-68425000D01*
X143766043Y-68425000D01*
X143766043Y-68297627D01*
X143639281Y-68297627D01*
X143639281Y-67788014D01*
X143766043Y-67788014D01*
X143766043Y-67660642D01*
X143639281Y-67660642D01*
X143639281Y-67534002D01*
X143512030Y-67534002D01*
X143512030Y-68297627D01*
X143383070Y-68297627D01*
G37*
G36*
X143258995Y-68297627D02*
G01*
X143258995Y-68170987D01*
X143131744Y-68170987D01*
X143131744Y-68297627D01*
X143258995Y-68297627D01*
G37*
G36*
X143258995Y-67661374D02*
G01*
X143258995Y-67534002D01*
X142750970Y-67534002D01*
X142750970Y-67788014D01*
X142877732Y-67788014D01*
X142877732Y-67661374D01*
X143258995Y-67661374D01*
G37*
G36*
X143131744Y-68297627D02*
G01*
X142877732Y-68297627D01*
X142877732Y-68425000D01*
X143131744Y-68425000D01*
X143131744Y-68297627D01*
G37*
G36*
X143131744Y-68042027D02*
G01*
X143131744Y-67914654D01*
X143004982Y-67914654D01*
X143004982Y-68042027D01*
X143131744Y-68042027D01*
G37*
G36*
X143004982Y-67915387D02*
G01*
X143004982Y-67788014D01*
X142877732Y-67788014D01*
X142877732Y-67915387D01*
X143004982Y-67915387D01*
G37*
G36*
X142877732Y-68297627D02*
G01*
X142877732Y-67914654D01*
X142750970Y-67914654D01*
X142750970Y-68297627D01*
X142877732Y-68297627D01*
G37*
G36*
X144281012Y-47925000D02*
G01*
X144281012Y-47288014D01*
X143899199Y-47288014D01*
X143899199Y-47415387D01*
X144153761Y-47415387D01*
X144153761Y-47925000D01*
X144281012Y-47925000D01*
G37*
G36*
X143772986Y-47414654D02*
G01*
X143772986Y-47542027D01*
X143899199Y-47542027D01*
X143899199Y-47414654D01*
X143772986Y-47414654D01*
G37*
G36*
X143645003Y-47797627D02*
G01*
X143645003Y-47414654D01*
X143517753Y-47414654D01*
X143517753Y-47797627D01*
X143645003Y-47797627D01*
G37*
G36*
X143517753Y-47797627D02*
G01*
X143390991Y-47797627D01*
X143390991Y-47925000D01*
X143517753Y-47925000D01*
X143517753Y-47797627D01*
G37*
G36*
X143517753Y-47415387D02*
G01*
X143517753Y-47288014D01*
X143136978Y-47288014D01*
X143136978Y-47925000D01*
X143264229Y-47925000D01*
X143264229Y-47797627D01*
X143390991Y-47797627D01*
X143390991Y-47670987D01*
X143264229Y-47670987D01*
X143264229Y-47415387D01*
X143517753Y-47415387D01*
G37*
G36*
X143008995Y-47925000D02*
G01*
X143008995Y-47288014D01*
X142881744Y-47288014D01*
X142881744Y-47670987D01*
X142628220Y-47670987D01*
X142628220Y-47288014D01*
X142500970Y-47288014D01*
X142500970Y-47925000D01*
X142628220Y-47925000D01*
X142628220Y-47798360D01*
X142881744Y-47798360D01*
X142881744Y-47925000D01*
X143008995Y-47925000D01*
G37*
G36*
X149769078Y-75297627D02*
G01*
X149769078Y-75425000D01*
X150152051Y-75425000D01*
X150152051Y-75297627D01*
X150025289Y-75297627D01*
X150025289Y-74788014D01*
X150152051Y-74788014D01*
X150152051Y-74660642D01*
X150025289Y-74660642D01*
X150025289Y-74534002D01*
X149898039Y-74534002D01*
X149898039Y-75297627D01*
X149769078Y-75297627D01*
G37*
G36*
X149645003Y-75296039D02*
G01*
X149645003Y-74659054D01*
X149517753Y-74659054D01*
X149517753Y-74914654D01*
X149389037Y-74914654D01*
X149389037Y-75042027D01*
X149517753Y-75042027D01*
X149517753Y-75296039D01*
X149645003Y-75296039D01*
G37*
G36*
X149516043Y-75297627D02*
G01*
X149262030Y-75297627D01*
X149262030Y-75425000D01*
X149516043Y-75425000D01*
X149516043Y-75297627D01*
G37*
G36*
X149516043Y-74661374D02*
G01*
X149516043Y-74534002D01*
X149262030Y-74534002D01*
X149262030Y-74661374D01*
X149516043Y-74661374D01*
G37*
G36*
X149389037Y-74915387D02*
G01*
X149389037Y-74788014D01*
X149262030Y-74788014D01*
X149262030Y-74659054D01*
X149136978Y-74659054D01*
X149136978Y-75296039D01*
X149262030Y-75296039D01*
X149262030Y-74915387D01*
X149389037Y-74915387D01*
G37*
G36*
X149008995Y-75296039D02*
G01*
X149008995Y-74660642D01*
X148881744Y-74660642D01*
X148881744Y-74914654D01*
X148626022Y-74914654D01*
X148626022Y-75042027D01*
X148881744Y-75042027D01*
X148881744Y-75296039D01*
X149008995Y-75296039D01*
G37*
G36*
X148880035Y-75297627D02*
G01*
X148626022Y-75297627D01*
X148626022Y-75425000D01*
X148880035Y-75425000D01*
X148880035Y-75297627D01*
G37*
G36*
X148880035Y-74661374D02*
G01*
X148880035Y-74534002D01*
X148626022Y-74534002D01*
X148626022Y-74661374D01*
X148880035Y-74661374D01*
G37*
G36*
X148626022Y-75296039D02*
G01*
X148626022Y-75042027D01*
X148500970Y-75042027D01*
X148500970Y-75296039D01*
X148626022Y-75296039D01*
G37*
G36*
X148626022Y-74788014D02*
G01*
X148626022Y-74660642D01*
X148500970Y-74660642D01*
X148500970Y-74788014D01*
X148626022Y-74788014D01*
G37*
G36*
X150281012Y-52546039D02*
G01*
X150281012Y-52163066D01*
X150153761Y-52163066D01*
X150153761Y-52546039D01*
X150281012Y-52546039D01*
G37*
G36*
X150152051Y-52547627D02*
G01*
X149898039Y-52547627D01*
X149898039Y-52165387D01*
X150152051Y-52165387D01*
X150152051Y-52038014D01*
X149772986Y-52038014D01*
X149772986Y-52801639D01*
X149898039Y-52801639D01*
X149898039Y-52675000D01*
X150152051Y-52675000D01*
X150152051Y-52547627D01*
G37*
G36*
X150152051Y-52929012D02*
G01*
X150152051Y-52801639D01*
X149898039Y-52801639D01*
X149898039Y-52929012D01*
X150152051Y-52929012D01*
G37*
G36*
X149645003Y-52675000D02*
G01*
X149645003Y-52038014D01*
X149263190Y-52038014D01*
X149263190Y-52165387D01*
X149517753Y-52165387D01*
X149517753Y-52675000D01*
X149645003Y-52675000D01*
G37*
G36*
X149136978Y-52675000D02*
G01*
X149263190Y-52675000D01*
X149263190Y-52166974D01*
X149136978Y-52166974D01*
X149136978Y-52675000D01*
G37*
G36*
X149008995Y-52547627D02*
G01*
X149008995Y-52166974D01*
X148881744Y-52166974D01*
X148881744Y-52547627D01*
X149008995Y-52547627D01*
G37*
G36*
X148500970Y-52675000D02*
G01*
X148881744Y-52675000D01*
X148881744Y-52547627D01*
X148628220Y-52547627D01*
X148628220Y-52165387D01*
X148881744Y-52165387D01*
X148881744Y-52038014D01*
X148628220Y-52038014D01*
X148628220Y-51784002D01*
X148500970Y-51784002D01*
X148500970Y-52675000D01*
G37*
G36*
X149963008Y-45175000D02*
G01*
X149963008Y-44284002D01*
X149835757Y-44284002D01*
X149835757Y-44538014D01*
X149581195Y-44538014D01*
X149581195Y-44665387D01*
X149835757Y-44665387D01*
X149835757Y-45047627D01*
X149581195Y-45047627D01*
X149581195Y-45175000D01*
X149963008Y-45175000D01*
G37*
G36*
X149454982Y-45047627D02*
G01*
X149581195Y-45047627D01*
X149581195Y-44666974D01*
X149454982Y-44666974D01*
X149454982Y-45047627D01*
G37*
G36*
X149326999Y-44920987D02*
G01*
X149326999Y-44793614D01*
X148818974Y-44793614D01*
X148818974Y-44920987D01*
X149326999Y-44920987D01*
G37*
G36*
X144388201Y-58016599D02*
G01*
X144388201Y-57379614D01*
X144260950Y-57379614D01*
X144260950Y-57635214D01*
X144132234Y-57635214D01*
X144132234Y-57762587D01*
X144260950Y-57762587D01*
X144260950Y-58016599D01*
X144388201Y-58016599D01*
G37*
G36*
X144259240Y-58018187D02*
G01*
X144005228Y-58018187D01*
X144005228Y-58145560D01*
X144259240Y-58145560D01*
X144259240Y-58018187D01*
G37*
G36*
X144259240Y-57381934D02*
G01*
X144259240Y-57254562D01*
X144005228Y-57254562D01*
X144005228Y-57381934D01*
X144259240Y-57381934D01*
G37*
G36*
X144132234Y-57635947D02*
G01*
X144132234Y-57508574D01*
X144005228Y-57508574D01*
X144005228Y-57379614D01*
X143880175Y-57379614D01*
X143880175Y-58016599D01*
X144005228Y-58016599D01*
X144005228Y-57635947D01*
X144132234Y-57635947D01*
G37*
G36*
X143752192Y-58018187D02*
G01*
X143752192Y-57891547D01*
X143624942Y-57891547D01*
X143624942Y-58018187D01*
X143752192Y-58018187D01*
G37*
G36*
X143752192Y-57381934D02*
G01*
X143752192Y-57254562D01*
X143244167Y-57254562D01*
X143244167Y-57508574D01*
X143370929Y-57508574D01*
X143370929Y-57381934D01*
X143752192Y-57381934D01*
G37*
G36*
X143624942Y-58018187D02*
G01*
X143370929Y-58018187D01*
X143370929Y-58145560D01*
X143624942Y-58145560D01*
X143624942Y-58018187D01*
G37*
G36*
X143624942Y-57762587D02*
G01*
X143624942Y-57635214D01*
X143498180Y-57635214D01*
X143498180Y-57762587D01*
X143624942Y-57762587D01*
G37*
G36*
X143498180Y-57635947D02*
G01*
X143498180Y-57508574D01*
X143370929Y-57508574D01*
X143370929Y-57635947D01*
X143498180Y-57635947D01*
G37*
G36*
X143370929Y-58018187D02*
G01*
X143370929Y-57635214D01*
X143244167Y-57635214D01*
X143244167Y-58018187D01*
X143370929Y-58018187D01*
G37*
G36*
X142604251Y-58018187D02*
G01*
X142604251Y-58145560D01*
X142987224Y-58145560D01*
X142987224Y-58018187D01*
X142860461Y-58018187D01*
X142860461Y-57508574D01*
X142987224Y-57508574D01*
X142987224Y-57381202D01*
X142860461Y-57381202D01*
X142860461Y-57254562D01*
X142733211Y-57254562D01*
X142733211Y-58018187D01*
X142604251Y-58018187D01*
G37*
G36*
X144281012Y-53175000D02*
G01*
X144281012Y-52538014D01*
X143899199Y-52538014D01*
X143899199Y-52665387D01*
X144153761Y-52665387D01*
X144153761Y-53175000D01*
X144281012Y-53175000D01*
G37*
G36*
X143772986Y-52664654D02*
G01*
X143772986Y-52792027D01*
X143899199Y-52792027D01*
X143899199Y-52664654D01*
X143772986Y-52664654D01*
G37*
G36*
X143645003Y-53175000D02*
G01*
X143645003Y-53047627D01*
X143262030Y-53047627D01*
X143262030Y-53175000D01*
X143645003Y-53175000D01*
G37*
G36*
X143645003Y-52792027D02*
G01*
X143645003Y-52664654D01*
X143517753Y-52664654D01*
X143517753Y-52792027D01*
X143645003Y-52792027D01*
G37*
G36*
X143516043Y-52919399D02*
G01*
X143516043Y-52792027D01*
X143262030Y-52792027D01*
X143262030Y-52919399D01*
X143516043Y-52919399D01*
G37*
G36*
X143516043Y-52665387D02*
G01*
X143516043Y-52538014D01*
X143136978Y-52538014D01*
X143136978Y-52665387D01*
X143516043Y-52665387D01*
G37*
G36*
X143262030Y-52920987D02*
G01*
X143136978Y-52920987D01*
X143136978Y-53047627D01*
X143262030Y-53047627D01*
X143262030Y-52920987D01*
G37*
G36*
X143008995Y-52665387D02*
G01*
X143008995Y-52538014D01*
X142882233Y-52538014D01*
X142882233Y-52284002D01*
X142754982Y-52284002D01*
X142754982Y-52538014D01*
X142500970Y-52538014D01*
X142500970Y-52665387D01*
X142754982Y-52665387D01*
X142754982Y-53049947D01*
X142882233Y-53049947D01*
X142882233Y-52665387D01*
X143008995Y-52665387D01*
G37*
G36*
X142754982Y-53047627D02*
G01*
X142500970Y-53047627D01*
X142500970Y-53175000D01*
X142754982Y-53175000D01*
X142754982Y-53047627D01*
G37*
G36*
X144281012Y-55420987D02*
G01*
X144281012Y-55038014D01*
X144153761Y-55038014D01*
X144153761Y-55420987D01*
X144281012Y-55420987D01*
G37*
G36*
X143772986Y-55420987D02*
G01*
X143898039Y-55420987D01*
X143898039Y-55038014D01*
X143772986Y-55038014D01*
X143772986Y-55420987D01*
G37*
G36*
X144152051Y-55420987D02*
G01*
X143898039Y-55420987D01*
X143898039Y-55675000D01*
X144152051Y-55675000D01*
X144152051Y-55420987D01*
G37*
G36*
X143645003Y-55547627D02*
G01*
X143645003Y-55164654D01*
X143517753Y-55164654D01*
X143517753Y-55547627D01*
X143645003Y-55547627D01*
G37*
G36*
X143516043Y-55547627D02*
G01*
X143262030Y-55547627D01*
X143262030Y-55675000D01*
X143516043Y-55675000D01*
X143516043Y-55547627D01*
G37*
G36*
X143516043Y-55165387D02*
G01*
X143516043Y-55038014D01*
X143262030Y-55038014D01*
X143262030Y-55165387D01*
X143516043Y-55165387D01*
G37*
G36*
X143262030Y-55547627D02*
G01*
X143262030Y-55420987D01*
X143136978Y-55420987D01*
X143136978Y-55547627D01*
X143262030Y-55547627D01*
G37*
G36*
X143262030Y-55164654D02*
G01*
X143136978Y-55164654D01*
X143136978Y-55292027D01*
X143262030Y-55292027D01*
X143262030Y-55164654D01*
G37*
G36*
X143008995Y-55547627D02*
G01*
X143008995Y-55164654D01*
X142881744Y-55164654D01*
X142881744Y-55547627D01*
X143008995Y-55547627D01*
G37*
G36*
X142880035Y-55547627D02*
G01*
X142626022Y-55547627D01*
X142626022Y-55675000D01*
X142880035Y-55675000D01*
X142880035Y-55547627D01*
G37*
G36*
X142880035Y-55165387D02*
G01*
X142880035Y-55038014D01*
X142626022Y-55038014D01*
X142626022Y-55165387D01*
X142880035Y-55165387D01*
G37*
G36*
X142626022Y-55547627D02*
G01*
X142626022Y-55420987D01*
X142500970Y-55420987D01*
X142500970Y-55547627D01*
X142626022Y-55547627D01*
G37*
G36*
X142626022Y-55164654D02*
G01*
X142500970Y-55164654D01*
X142500970Y-55292027D01*
X142626022Y-55292027D01*
X142626022Y-55164654D01*
G37*
G36*
X147724016Y-77547627D02*
G01*
X147724016Y-77164654D01*
X147596765Y-77164654D01*
X147596765Y-77547627D01*
X147724016Y-77547627D01*
G37*
G36*
X147595055Y-77547627D02*
G01*
X147341043Y-77547627D01*
X147341043Y-77675000D01*
X147595055Y-77675000D01*
X147595055Y-77547627D01*
G37*
G36*
X147595055Y-77165387D02*
G01*
X147595055Y-77038014D01*
X147341043Y-77038014D01*
X147341043Y-77165387D01*
X147595055Y-77165387D01*
G37*
G36*
X147341043Y-77547627D02*
G01*
X147341043Y-77420987D01*
X147215990Y-77420987D01*
X147215990Y-77547627D01*
X147341043Y-77547627D01*
G37*
G36*
X147341043Y-77164654D02*
G01*
X147215990Y-77164654D01*
X147215990Y-77292027D01*
X147341043Y-77292027D01*
X147341043Y-77164654D01*
G37*
G36*
X147088007Y-77165387D02*
G01*
X147088007Y-77038014D01*
X146961245Y-77038014D01*
X146961245Y-76784002D01*
X146833995Y-76784002D01*
X146833995Y-77038014D01*
X146579982Y-77038014D01*
X146579982Y-77165387D01*
X146833995Y-77165387D01*
X146833995Y-77549947D01*
X146961245Y-77549947D01*
X146961245Y-77165387D01*
X147088007Y-77165387D01*
G37*
G36*
X146833995Y-77547627D02*
G01*
X146579982Y-77547627D01*
X146579982Y-77675000D01*
X146833995Y-77675000D01*
X146833995Y-77547627D01*
G37*
G36*
X145940066Y-77547627D02*
G01*
X145940066Y-77675000D01*
X146194078Y-77675000D01*
X146194078Y-77547627D01*
X145940066Y-77547627D01*
G37*
G36*
X146450045Y-76911374D02*
G01*
X146450045Y-76784002D01*
X146195788Y-76784002D01*
X146195788Y-77547627D01*
X146323039Y-77547627D01*
X146323039Y-76911374D01*
X146450045Y-76911374D01*
G37*
G36*
X145304057Y-77547627D02*
G01*
X145304057Y-77675000D01*
X145687030Y-77675000D01*
X145687030Y-77547627D01*
X145560268Y-77547627D01*
X145560268Y-77038014D01*
X145687030Y-77038014D01*
X145687030Y-76910642D01*
X145560268Y-76910642D01*
X145560268Y-76784002D01*
X145433018Y-76784002D01*
X145433018Y-77547627D01*
X145304057Y-77547627D01*
G37*
G36*
X149769078Y-72797627D02*
G01*
X149769078Y-72925000D01*
X150152051Y-72925000D01*
X150152051Y-72797627D01*
X150025289Y-72797627D01*
X150025289Y-72288014D01*
X150152051Y-72288014D01*
X150152051Y-72160642D01*
X150025289Y-72160642D01*
X150025289Y-72034002D01*
X149898039Y-72034002D01*
X149898039Y-72797627D01*
X149769078Y-72797627D01*
G37*
G36*
X149645003Y-72796039D02*
G01*
X149645003Y-72159054D01*
X149517753Y-72159054D01*
X149517753Y-72414654D01*
X149389037Y-72414654D01*
X149389037Y-72542027D01*
X149517753Y-72542027D01*
X149517753Y-72796039D01*
X149645003Y-72796039D01*
G37*
G36*
X149516043Y-72797627D02*
G01*
X149262030Y-72797627D01*
X149262030Y-72925000D01*
X149516043Y-72925000D01*
X149516043Y-72797627D01*
G37*
G36*
X149516043Y-72161374D02*
G01*
X149516043Y-72034002D01*
X149262030Y-72034002D01*
X149262030Y-72161374D01*
X149516043Y-72161374D01*
G37*
G36*
X149389037Y-72415387D02*
G01*
X149389037Y-72288014D01*
X149262030Y-72288014D01*
X149262030Y-72159054D01*
X149136978Y-72159054D01*
X149136978Y-72796039D01*
X149262030Y-72796039D01*
X149262030Y-72415387D01*
X149389037Y-72415387D01*
G37*
G36*
X149008995Y-72669399D02*
G01*
X149008995Y-72034002D01*
X148881744Y-72034002D01*
X148881744Y-72542027D01*
X148754982Y-72542027D01*
X148754982Y-72288014D01*
X148627732Y-72288014D01*
X148627732Y-72542027D01*
X148499016Y-72542027D01*
X148499016Y-72669399D01*
X148627732Y-72669399D01*
X148627732Y-72925000D01*
X148754982Y-72925000D01*
X148754982Y-72669399D01*
X149008995Y-72669399D01*
G37*
G36*
X123152049Y-52088162D02*
G01*
X123152049Y-51960789D01*
X122769076Y-51960789D01*
X122769076Y-52088162D01*
X123152049Y-52088162D01*
G37*
G36*
X123152049Y-51705189D02*
G01*
X123152049Y-51577816D01*
X123024798Y-51577816D01*
X123024798Y-51705189D01*
X123152049Y-51705189D01*
G37*
G36*
X123023088Y-51832561D02*
G01*
X123023088Y-51705189D01*
X122769076Y-51705189D01*
X122769076Y-51832561D01*
X123023088Y-51832561D01*
G37*
G36*
X123023088Y-51578549D02*
G01*
X123023088Y-51451176D01*
X122644023Y-51451176D01*
X122644023Y-51578549D01*
X123023088Y-51578549D01*
G37*
G36*
X122769076Y-51834149D02*
G01*
X122644023Y-51834149D01*
X122644023Y-51960789D01*
X122769076Y-51960789D01*
X122769076Y-51834149D01*
G37*
G36*
X122516040Y-52088162D02*
G01*
X122516040Y-51451176D01*
X122388790Y-51451176D01*
X122388790Y-51834149D01*
X122135266Y-51834149D01*
X122135266Y-51451176D01*
X122008015Y-51451176D01*
X122008015Y-52088162D01*
X122135266Y-52088162D01*
X122135266Y-51961522D01*
X122388790Y-51961522D01*
X122388790Y-52088162D01*
X122516040Y-52088162D01*
G37*
G36*
X121368099Y-51960789D02*
G01*
X121368099Y-52088162D01*
X121751072Y-52088162D01*
X121751072Y-51960789D01*
X121624309Y-51960789D01*
X121624309Y-51451176D01*
X121751072Y-51451176D01*
X121751072Y-51323804D01*
X121624309Y-51323804D01*
X121624309Y-51197164D01*
X121497059Y-51197164D01*
X121497059Y-51960789D01*
X121368099Y-51960789D01*
G37*
G36*
X100189443Y-68085288D02*
G01*
X100165139Y-67960255D01*
X99789203Y-68033330D01*
X99813507Y-68158362D01*
X100189443Y-68085288D01*
G37*
G36*
X100116369Y-67709351D02*
G01*
X100092065Y-67584319D01*
X99967152Y-67608599D01*
X99991456Y-67733632D01*
X100116369Y-67709351D01*
G37*
G36*
X100014082Y-67858990D02*
G01*
X99989778Y-67733958D01*
X99740432Y-67782426D01*
X99764736Y-67907458D01*
X100014082Y-67858990D01*
G37*
G36*
X99965614Y-67609645D02*
G01*
X99941310Y-67484612D01*
X99569210Y-67556941D01*
X99593513Y-67681974D01*
X99965614Y-67609645D01*
G37*
G36*
X99765039Y-67909017D02*
G01*
X99642284Y-67932878D01*
X99666448Y-68057191D01*
X99789203Y-68033330D01*
X99765039Y-67909017D01*
G37*
G36*
X99565120Y-68206644D02*
G01*
X99443578Y-67581362D01*
X99318665Y-67605642D01*
X99391740Y-67981579D01*
X99142874Y-68029953D01*
X99069799Y-67654017D01*
X98944886Y-67678297D01*
X99066429Y-68303580D01*
X99191342Y-68279299D01*
X99167178Y-68154986D01*
X99416044Y-68106611D01*
X99440208Y-68230924D01*
X99565120Y-68206644D01*
G37*
G36*
X98892026Y-68077096D02*
G01*
X98770787Y-67453372D01*
X98645874Y-67477653D01*
X98742810Y-67976344D01*
X98618377Y-68000531D01*
X98569909Y-67751186D01*
X98444996Y-67775466D01*
X98493464Y-68024812D01*
X98367113Y-68049372D01*
X98391417Y-68174404D01*
X98517768Y-68149844D01*
X98566539Y-68400748D01*
X98691451Y-68376468D01*
X98642681Y-68125564D01*
X98892026Y-68077096D01*
G37*
G36*
X79672913Y-76596661D02*
G01*
X79628597Y-76477246D01*
X79269551Y-76610489D01*
X79313866Y-76729904D01*
X79672913Y-76596661D01*
G37*
G36*
X79539670Y-76237614D02*
G01*
X79495354Y-76118199D01*
X79376054Y-76162472D01*
X79420369Y-76281887D01*
X79539670Y-76237614D01*
G37*
G36*
X79463081Y-76401897D02*
G01*
X79418766Y-76282482D01*
X79180623Y-76370857D01*
X79224938Y-76490272D01*
X79463081Y-76401897D01*
G37*
G36*
X79374706Y-76163754D02*
G01*
X79330391Y-76044339D01*
X78975008Y-76176222D01*
X79019323Y-76295637D01*
X79374706Y-76163754D01*
G37*
G36*
X79225490Y-76491761D02*
G01*
X79108251Y-76535269D01*
X79152311Y-76653997D01*
X79269551Y-76610489D01*
X79225490Y-76491761D01*
G37*
G36*
X79076639Y-76817939D02*
G01*
X78855020Y-76220750D01*
X78735720Y-76265022D01*
X78868963Y-76624069D01*
X78631278Y-76712274D01*
X78498035Y-76353228D01*
X78378734Y-76397500D01*
X78600352Y-76994690D01*
X78719653Y-76950418D01*
X78675593Y-76831689D01*
X78913278Y-76743484D01*
X78957338Y-76862212D01*
X79076639Y-76817939D01*
G37*
G36*
X78435497Y-76918314D02*
G01*
X78214431Y-76322613D01*
X78095131Y-76366886D01*
X78183506Y-76605029D01*
X77943760Y-76693999D01*
X77988075Y-76813414D01*
X78227821Y-76724444D01*
X78316197Y-76962587D01*
X78435497Y-76918314D01*
G37*
G36*
X78315146Y-76964670D02*
G01*
X78077003Y-77053046D01*
X78121318Y-77172461D01*
X78359461Y-77084085D01*
X78315146Y-76964670D01*
G37*
G36*
X78093783Y-76368168D02*
G01*
X78049468Y-76248752D01*
X77811324Y-76337128D01*
X77855640Y-76456543D01*
X78093783Y-76368168D01*
G37*
G36*
X78076451Y-77051557D02*
G01*
X77988075Y-76813414D01*
X77870836Y-76856922D01*
X77959211Y-77095065D01*
X78076451Y-77051557D01*
G37*
G36*
X77899700Y-76575271D02*
G01*
X77855385Y-76455856D01*
X77738145Y-76499364D01*
X77782460Y-76618779D01*
X77899700Y-76575271D01*
G37*
D11*
%TO.C,sw3*%
X83338324Y-33928070D02*
X83529133Y-34909697D01*
X83338324Y-33928070D02*
X84319951Y-33737261D01*
X86582077Y-50615732D02*
X86772886Y-51597359D01*
X86808771Y-37893738D02*
X86881469Y-38267738D01*
X87463055Y-41259738D02*
X87535753Y-41633738D01*
X87754513Y-51406549D02*
X86772886Y-51597359D01*
X87909753Y-41561039D02*
X87535753Y-41633738D01*
X88817449Y-34915750D02*
X97544115Y-33219458D01*
X91350198Y-40892285D02*
X89655086Y-41221781D01*
X95388482Y-38166667D02*
X93405595Y-38552101D01*
X97544115Y-33219458D02*
X97616813Y-33593458D01*
X98018275Y-35658802D02*
X98209084Y-36640429D01*
X100025986Y-30684317D02*
X101007613Y-30493508D01*
X101198422Y-31475135D02*
X101007613Y-30493508D01*
X104442175Y-48162798D02*
X103460548Y-48353607D01*
X104442175Y-48162798D02*
X104251366Y-47181170D01*
X86808771Y-37893738D02*
G75*
G02*
X88817449Y-34915750I2493334J484654D01*
G01*
X91353815Y-40910897D02*
G75*
G02*
X93405595Y-38552100I2536437J-134538D01*
G01*
%TO.C,sw5*%
X57490917Y-45634831D02*
X57838835Y-46572356D01*
X57490917Y-45634831D02*
X58428442Y-45286913D01*
X61560123Y-48983276D02*
X61692680Y-49340473D01*
X62753133Y-52198050D02*
X62885690Y-52555247D01*
X63057727Y-45718252D02*
X71392325Y-42625264D01*
X63242887Y-52422690D02*
X62885690Y-52555247D01*
X63405517Y-61572758D02*
X63753434Y-62510283D01*
X64690959Y-62162365D02*
X63753434Y-62510283D01*
X66528760Y-51203295D02*
X64909806Y-51804093D01*
X70069992Y-47857191D02*
X68176191Y-48559985D01*
X71392325Y-42625264D02*
X71524881Y-42982461D01*
X72256900Y-44955014D02*
X72604818Y-45892539D01*
X73428844Y-39720231D02*
X74366369Y-39372314D01*
X74714287Y-40309839D02*
X74366369Y-39372314D01*
X80628886Y-56247766D02*
X79691361Y-56595683D01*
X80628886Y-56247766D02*
X80280969Y-55310241D01*
X61560123Y-48983276D02*
G75*
G02*
X63057727Y-45718253I2381313J883710D01*
G01*
X66535357Y-51221071D02*
G75*
G02*
X68176191Y-48559984I2524544J279774D01*
G01*
%TO.C,sw2*%
X113128037Y-53498162D02*
X113128037Y-54498162D01*
X113128037Y-53498162D02*
X114128037Y-53498162D01*
X113128037Y-70498162D02*
X113128037Y-71498162D01*
X114128037Y-71498162D02*
X113128037Y-71498162D01*
X115778037Y-58053162D02*
X115778037Y-58434162D01*
X115778037Y-61482162D02*
X115778037Y-61863162D01*
X116159037Y-61863162D02*
X115778037Y-61863162D01*
X118318037Y-55513162D02*
X127208037Y-55513162D01*
X119663875Y-61863162D02*
X117937037Y-61863162D01*
X124148037Y-59958162D02*
X122128037Y-59958162D01*
X127208037Y-55513162D02*
X127208037Y-55894162D01*
X127208037Y-57998162D02*
X127208037Y-58998162D01*
X130128037Y-53498162D02*
X131128037Y-53498162D01*
X131128037Y-54498162D02*
X131128037Y-53498162D01*
X131128037Y-71498162D02*
X130128037Y-71498162D01*
X131128037Y-71498162D02*
X131128037Y-70498162D01*
X115778037Y-58053162D02*
G75*
G02*
X118318037Y-55513162I2540001J-1D01*
G01*
X119663875Y-61882122D02*
G75*
G02*
X122128037Y-59958161I2464162J-616039D01*
G01*
%TO.C,sw9*%
X142754916Y-95573255D02*
X142633047Y-96565802D01*
X143625593Y-96687671D02*
X142633047Y-96565802D01*
X144826695Y-78699971D02*
X144704826Y-79692517D01*
X144826695Y-78699971D02*
X145819241Y-78821840D01*
X146483937Y-86947413D02*
X146437505Y-87325573D01*
X146815665Y-87372005D02*
X146437505Y-87325573D01*
X146901827Y-83543972D02*
X146855395Y-83922132D01*
X149732443Y-81332453D02*
X158556178Y-82415872D01*
X150294379Y-87799138D02*
X148580412Y-87588689D01*
X154977277Y-86454819D02*
X152972334Y-86208643D01*
X158253333Y-84882349D02*
X158131463Y-85874895D01*
X158556178Y-82415872D02*
X158509746Y-82794032D01*
X160498877Y-98759450D02*
X159506331Y-98637580D01*
X160498877Y-98759450D02*
X160620747Y-97766904D01*
X161699979Y-80771750D02*
X162692526Y-80893619D01*
X162570656Y-81886165D02*
X162692526Y-80893619D01*
X146901827Y-83543972D02*
G75*
G02*
X149732443Y-81332454I2521068J-309550D01*
G01*
X150292068Y-87817956D02*
G75*
G02*
X152972334Y-86208642I2370718J-911753D01*
G01*
%TO.C,sw11*%
X179412259Y-106250233D02*
X178782939Y-107027379D01*
X179560085Y-107656700D02*
X178782939Y-107027379D01*
X187145649Y-100911185D02*
X186905878Y-101207277D01*
X187201970Y-101447048D02*
X186905878Y-101207277D01*
X189303588Y-98246351D02*
X189063817Y-98542444D01*
X189925741Y-103652714D02*
X188583736Y-102565980D01*
X190110706Y-93038752D02*
X189481386Y-93815898D01*
X190110706Y-93038752D02*
X190887852Y-93668073D01*
X192771566Y-118355146D02*
X191994420Y-117725826D01*
X192771566Y-118355146D02*
X193400887Y-117578001D01*
X192876013Y-97870874D02*
X199784841Y-103465532D01*
X194609445Y-104994226D02*
X193039610Y-103722999D01*
X198220979Y-105396740D02*
X197591659Y-106173886D01*
X199784841Y-103465532D02*
X199545069Y-103761625D01*
X203322187Y-103737199D02*
X204099333Y-104366519D01*
X203470013Y-105143665D02*
X204099333Y-104366519D01*
X189303588Y-98246351D02*
G75*
G02*
X192876013Y-97870874I1973951J-1598475D01*
G01*
X189913809Y-103667449D02*
G75*
G02*
X193039611Y-103722998I1527328J-2029500D01*
G01*
%TO.C,sw7*%
X31064250Y-75357006D02*
X31549060Y-76231626D01*
X31064250Y-75357006D02*
X31938870Y-74872197D01*
X35590300Y-78056154D02*
X35775012Y-78389384D01*
X36580418Y-74603203D02*
X44355787Y-70293246D01*
X37252712Y-81055225D02*
X37437425Y-81388455D01*
X37770655Y-81203742D02*
X37437425Y-81388455D01*
X39306013Y-90225541D02*
X39790823Y-91100161D01*
X40665443Y-90615352D02*
X39790823Y-91100161D01*
X40836055Y-79504563D02*
X39325729Y-80341751D01*
X43834429Y-75664448D02*
X42067697Y-76643763D01*
X44355787Y-70293246D02*
X44540499Y-70626476D01*
X45560539Y-72466676D02*
X46045348Y-73341295D01*
X45932785Y-67115243D02*
X46807405Y-66630433D01*
X47292214Y-67505053D02*
X46807405Y-66630433D01*
X55533978Y-82373588D02*
X54659358Y-82858398D01*
X55533978Y-82373588D02*
X55049168Y-81498968D01*
X35590300Y-78056154D02*
G75*
G02*
X36580418Y-74603203I2221537J1231416D01*
G01*
X40845247Y-79521146D02*
G75*
G02*
X42067697Y-76643763I2453864J655850D01*
G01*
%TO.C,sw10*%
X161837483Y-98205181D02*
X161446752Y-99125686D01*
X162367256Y-99516417D02*
X161446752Y-99125686D01*
X167799651Y-90941346D02*
X167650784Y-91292059D01*
X168001496Y-91440927D02*
X167650784Y-91292059D01*
X168479912Y-82556598D02*
X168089181Y-83477103D01*
X168479912Y-82556598D02*
X169400417Y-82947329D01*
X169139468Y-87784935D02*
X168990601Y-88135648D01*
X171227717Y-92810377D02*
X169638154Y-92135647D01*
X172470009Y-86439310D02*
X180653297Y-89912910D01*
X176099752Y-92808917D02*
X174240332Y-92019640D01*
X178015839Y-106158846D02*
X177095334Y-105768115D01*
X178015839Y-106158846D02*
X178406570Y-105238341D01*
X179682330Y-92200364D02*
X179291599Y-93120869D01*
X180653297Y-89912910D02*
X180504428Y-90263622D01*
X184128494Y-89199027D02*
X185048999Y-89589759D01*
X184658268Y-90510263D02*
X185048999Y-89589759D01*
X169139468Y-87784935D02*
G75*
G02*
X172470009Y-86439310I2338084J-992460D01*
G01*
X171220308Y-92827829D02*
G75*
G02*
X174240333Y-92019638I2027568J-1529892D01*
G01*
%TO.C,sw8*%
X49850879Y-86657471D02*
X50304870Y-87548478D01*
X49850879Y-86657471D02*
X50741886Y-86203481D01*
X54279973Y-89512931D02*
X54452943Y-89852403D01*
X55389994Y-86096638D02*
X63311042Y-82060663D01*
X55836706Y-92568192D02*
X56009677Y-92907666D01*
X56349150Y-92734695D02*
X56009677Y-92907666D01*
X57568718Y-101804582D02*
X58022708Y-102695588D01*
X58913715Y-102241598D02*
X58022708Y-102695588D01*
X59471984Y-91143532D02*
X57933360Y-91927500D01*
X62602550Y-87410398D02*
X60802716Y-88327459D01*
X63311042Y-82060663D02*
X63484012Y-82400136D01*
X64439208Y-84274814D02*
X64893199Y-85165821D01*
X64997990Y-78939633D02*
X65888996Y-78485642D01*
X66342987Y-79376649D02*
X65888996Y-78485642D01*
X74060825Y-94523759D02*
X73169819Y-94977750D01*
X74060825Y-94523759D02*
X73606835Y-93632753D01*
X54279973Y-89512931D02*
G75*
G02*
X55389994Y-86096638I2263158J1153136D01*
G01*
X59480592Y-91160426D02*
G75*
G02*
X60802716Y-88327458I2475260J569812D01*
G01*
D10*
%TO.C,ctl1*%
X137452000Y-43260000D02*
X137452000Y-53260000D01*
X137452000Y-77010000D02*
X137452000Y-67010000D01*
X142452000Y-43260000D02*
X137452000Y-43260000D01*
X142452000Y-77010000D02*
X137452000Y-77010000D01*
X150452000Y-43260000D02*
X155452000Y-43260000D01*
X150452000Y-77010000D02*
X155452000Y-77010000D01*
X155452000Y-43260000D02*
X155452000Y-53260000D01*
X155452000Y-77010000D02*
X155452000Y-67010000D01*
D11*
%TO.C,sw1*%
X113128037Y-34573162D02*
X113128037Y-35573162D01*
X113128037Y-34573162D02*
X114128037Y-34573162D01*
X113128037Y-51573162D02*
X113128037Y-52573162D01*
X114128037Y-52573162D02*
X113128037Y-52573162D01*
X115778037Y-39128162D02*
X115778037Y-39509162D01*
X115778037Y-42557162D02*
X115778037Y-42938162D01*
X116159037Y-42938162D02*
X115778037Y-42938162D01*
X118318037Y-36588162D02*
X127208037Y-36588162D01*
X119663875Y-42938162D02*
X117937037Y-42938162D01*
X124148037Y-41033162D02*
X122128037Y-41033162D01*
X127208037Y-36588162D02*
X127208037Y-36969162D01*
X127208037Y-39073162D02*
X127208037Y-40073162D01*
X130128037Y-34573162D02*
X131128037Y-34573162D01*
X131128037Y-35573162D02*
X131128037Y-34573162D01*
X131128037Y-52573162D02*
X130128037Y-52573162D01*
X131128037Y-52573162D02*
X131128037Y-51573162D01*
X115778037Y-39128162D02*
G75*
G02*
X118318037Y-36588162I2540001J-1D01*
G01*
X119663875Y-42957122D02*
G75*
G02*
X122128037Y-41033161I2464162J-616039D01*
G01*
%TO.C,sw4*%
X87007581Y-52804760D02*
X87198390Y-53786387D01*
X87007581Y-52804760D02*
X87989208Y-52613951D01*
X90251334Y-69492422D02*
X90442143Y-70474049D01*
X90478028Y-56770428D02*
X90550726Y-57144428D01*
X91132312Y-60136428D02*
X91205010Y-60510428D01*
X91423770Y-70283239D02*
X90442143Y-70474049D01*
X91579010Y-60437729D02*
X91205010Y-60510428D01*
X92486706Y-53792440D02*
X101213372Y-52096148D01*
X95019455Y-59768975D02*
X93324343Y-60098471D01*
X99057739Y-57043357D02*
X97074852Y-57428791D01*
X101213372Y-52096148D02*
X101286070Y-52470148D01*
X101687532Y-54535492D02*
X101878341Y-55517119D01*
X103695243Y-49561007D02*
X104676870Y-49370198D01*
X104867679Y-50351825D02*
X104676870Y-49370198D01*
X108111432Y-67039488D02*
X107129805Y-67230297D01*
X108111432Y-67039488D02*
X107920623Y-66057860D01*
X90478028Y-56770428D02*
G75*
G02*
X92486706Y-53792440I2493334J484654D01*
G01*
X95023072Y-59787587D02*
G75*
G02*
X97074852Y-57428790I2536437J-134538D01*
G01*
%TO.C,sw6*%
X64181373Y-63663440D02*
X64529291Y-64600965D01*
X64181373Y-63663440D02*
X65118898Y-63315522D01*
X68250579Y-67011885D02*
X68383136Y-67369082D01*
X69443589Y-70226659D02*
X69576146Y-70583856D01*
X69748183Y-63746861D02*
X78082781Y-60653873D01*
X69933343Y-70451299D02*
X69576146Y-70583856D01*
X70095973Y-79601367D02*
X70443890Y-80538892D01*
X71381415Y-80190974D02*
X70443890Y-80538892D01*
X73219216Y-69231904D02*
X71600262Y-69832702D01*
X76760448Y-65885800D02*
X74866647Y-66588594D01*
X78082781Y-60653873D02*
X78215337Y-61011070D01*
X78947356Y-62983623D02*
X79295274Y-63921148D01*
X80119300Y-57748840D02*
X81056825Y-57400923D01*
X81404743Y-58338448D02*
X81056825Y-57400923D01*
X87319342Y-74276375D02*
X86381817Y-74624292D01*
X87319342Y-74276375D02*
X86971425Y-73338850D01*
X68250579Y-67011885D02*
G75*
G02*
X69748183Y-63746862I2381313J883710D01*
G01*
X73225813Y-69249680D02*
G75*
G02*
X74866647Y-66588593I2524544J279774D01*
G01*
%TD*%
M02*
